<svg width="29" height="29" viewBox="0 0 29 29" fill="none" xmlns="http://www.w3.org/2000/svg">
<path d="M9.43192 19.3672V11.5965H7.63513V9.60547H11.9098V19.3681H9.43192V19.3672Z" fill="#B8B8B8"/>
<path d="M21.2265 12.1259C21.2265 12.9751 20.7666 13.7276 20.001 14.1448C21.0732 14.5907 21.7421 15.5235 21.7421 16.6096C21.7421 18.3646 20.1822 19.4786 17.7453 19.4786C15.3083 19.4786 13.7484 18.3785 13.7484 16.6514C13.7484 15.5366 14.4731 14.5899 15.6009 14.1448C14.7796 13.6849 14.2501 12.9054 14.2501 12.0562C14.2501 10.4964 15.6149 9.50781 17.7313 9.50781C19.8756 9.50781 21.2265 10.5242 21.2265 12.1259ZM16.0878 16.4015C16.0878 17.2228 16.6731 17.6826 17.7453 17.6826C18.8174 17.6826 19.4166 17.2367 19.4166 16.4015C19.4166 15.5941 18.8174 15.1342 17.7453 15.1342C16.6722 15.1333 16.0878 15.5932 16.0878 16.4015ZM16.3386 12.2644C16.3386 12.9612 16.8403 13.3505 17.7453 13.3505C18.6502 13.3505 19.1519 12.9612 19.1519 12.2644C19.1519 11.5406 18.6511 11.1365 17.7453 11.1365C16.8403 11.1365 16.3386 11.5406 16.3386 12.2644Z" fill="#B8B8B8"/>
<path d="M25.8671 10.7071C26.2791 11.9238 26.4881 13.1954 26.4881 14.4932C26.4881 20.9992 21.1953 26.2921 14.6883 26.2921C8.18226 26.2921 2.88943 20.9992 2.88943 14.4932C2.88943 7.98622 8.18226 2.69339 14.6883 2.69339C15.9861 2.69339 17.2585 2.90242 18.4744 3.31438V0.688434C17.2463 0.352243 15.9774 0.180664 14.6883 0.180664C6.79743 0.180664 0.376709 6.60052 0.376709 14.4923C0.376709 22.3832 6.79656 28.8039 14.6883 28.8039C22.5801 28.8039 29 22.3841 29 14.4923C29 13.2033 28.8293 11.9352 28.4922 10.7062H25.8671V10.7071Z" fill="#B8B8B8"/>
<path d="M25.1527 4.02077V1.27637H23.1791V4.02077H20.4513V5.99436H23.1791V8.73876H25.1527V5.99436H27.8972V4.02077H25.1527Z" fill="#B8B8B8"/>
</svg>
