<svg width="37" height="37" viewBox="0 0 37 37" fill="none" xmlns="http://www.w3.org/2000/svg">
<path d="M12.2312 24.9539V15.1927H9.97412V12.6917H15.3438V24.955H12.2312V24.9539Z" fill="#B8B8B8"/>
<path d="M27.0469 15.8578C27.0469 16.9245 26.4693 17.8698 25.5076 18.3939C26.8544 18.954 27.6946 20.1258 27.6946 21.4901C27.6946 23.6946 25.7351 25.0939 22.674 25.0939C19.6128 25.0939 17.6533 23.7121 17.6533 21.5426C17.6533 20.1422 18.5636 18.9529 19.9804 18.3939C18.9487 17.8162 18.2835 16.837 18.2835 15.7703C18.2835 13.8108 19.9979 12.5691 22.6565 12.5691C25.35 12.5691 27.0469 13.8459 27.0469 15.8578ZM20.592 21.2286C20.592 22.2603 21.3272 22.8379 22.674 22.8379C24.0208 22.8379 24.7735 22.2778 24.7735 21.2286C24.7735 20.2144 24.0208 19.6367 22.674 19.6367C21.3261 19.6356 20.592 20.2133 20.592 21.2286ZM20.9071 16.0318C20.9071 16.907 21.5372 17.3961 22.674 17.3961C23.8107 17.3961 24.4409 16.907 24.4409 16.0318C24.4409 15.1226 23.8118 14.615 22.674 14.615C21.5372 14.615 20.9071 15.1226 20.9071 16.0318Z" fill="#B8B8B8"/>
<path d="M32.8763 14.0756C33.3938 15.604 33.6564 17.2013 33.6564 18.8315C33.6564 27.0041 27.0078 33.6527 18.8341 33.6527C10.6614 33.6527 4.01281 27.0041 4.01281 18.8315C4.01281 10.6578 10.6614 4.00915 18.8341 4.00915C20.4642 4.00915 22.0626 4.27172 23.5899 4.78921V1.49062C22.0473 1.06831 20.4533 0.852783 18.8341 0.852783C8.92186 0.852783 0.856445 8.91711 0.856445 18.8304C0.856445 28.7426 8.92077 36.808 18.8341 36.808C28.7473 36.808 36.8117 28.7437 36.8117 18.8304C36.8117 17.2112 36.5972 15.6182 36.1738 14.0745H32.8763V14.0756Z" fill="#B8B8B8"/>
<path d="M31.979 5.67639V2.229H29.4998V5.67639H26.0732V8.15553H29.4998V11.6029H31.979V8.15553H35.4264V5.67639H31.979Z" fill="#B8B8B8"/>
</svg>
