<svg width="160" height="22" viewBox="0 0 160 22" fill="none" xmlns="http://www.w3.org/2000/svg">
<path d="M0.306396 7.58228H4.88817C6.92972 7.58228 7.66218 7.64461 8.26997 7.87838C9.40762 8.42383 10.0777 9.49914 10.0777 10.7771C10.0777 11.977 9.7193 12.5848 8.50373 13.1926C9.76606 13.6134 10.6076 14.8134 10.4985 16.138C10.4985 18.1328 8.9245 19.4575 6.6492 19.4575H0.321981V17.525H1.22587V9.51473H0.321981L0.306396 7.58228ZM3.68818 9.51473V12.4134H6.04141C6.88296 12.4757 7.66218 11.868 7.72452 11.0264C7.72452 10.9641 7.72452 10.9017 7.72452 10.9017C7.72452 10.1225 6.9453 9.51473 5.8544 9.51473H3.68818ZM3.68818 14.2835V17.5406H6.21284C7.17906 17.603 8.02061 16.9328 8.08295 15.9666C8.08295 15.9666 8.08295 15.9666 8.08295 15.9043C8.08295 14.8757 7.2414 14.2212 5.97907 14.2212L3.68818 14.2835Z" fill="#B8B8B8"/>
<path d="M20.4879 16.5121C20.0671 18.5069 18.4463 19.7069 16.2645 19.7069C13.7399 19.7069 11.8698 17.7121 11.8698 14.9536C11.8698 12.1796 13.7399 10.2004 16.2645 10.2004C17.6515 10.2004 18.9762 10.8706 19.7554 12.0706C20.3632 13.0991 20.7216 14.2368 20.6593 15.4523H14.1451C14.3788 17.8056 15.8905 17.9302 16.3113 17.9302C17.1528 17.9926 17.932 17.3848 18.1814 16.6056L20.4879 16.5121ZM18.197 13.8627C18.197 12.8342 17.3554 12.055 16.3892 12.055H16.3269C15.2983 12.055 14.4567 12.8342 14.2853 13.8004L18.197 13.8627Z" fill="#B8B8B8"/>
<path d="M28.0307 13.5511H32.1917V19.4575H30.867V17.5874C30.6333 18.0082 30.3216 18.3666 29.9632 18.7251C29.1839 19.3952 28.2177 19.7536 27.2515 19.7536C24.4775 19.7536 22.3113 17.042 22.3113 13.5511C22.3113 10.0602 24.4775 7.2862 27.1892 7.2862C28.7008 7.22387 30.0255 8.06542 30.7424 9.32774V7.45763H32.0047V11.2602H30.68C30.5554 10.7147 30.3216 10.2316 30.0099 9.81086C29.4021 9.03164 28.4359 8.54853 27.4853 8.48619C26.0359 8.48619 23.8697 9.74852 23.8697 13.4264C23.8697 16.3251 25.4437 18.429 27.4853 18.429C29.106 18.3666 30.4307 17.1666 30.7424 15.5926C30.8047 15.2965 30.8047 14.9225 30.8047 14.6264H27.9684L28.0307 13.5511Z" fill="#B8B8B8"/>
<path d="M42.3059 19.5196H39.7189V17.8989C39.1111 19.0365 37.9111 19.7066 36.6488 19.7066C35.1371 19.8313 33.8125 18.6157 33.7034 17.1197C33.7034 17.0573 33.7034 16.995 33.7034 16.9326C33.7034 15.1872 35.215 14.3457 38.8306 13.9872L39.6722 13.9249V13.021C39.6722 11.9924 38.8929 11.3379 37.6306 11.3379C36.3683 11.3379 35.6982 11.7587 35.4644 12.9587H34.0462C34.1709 12.2418 34.5293 11.5717 35.0748 11.0885C35.7449 10.5431 36.6488 10.3093 37.4904 10.3093C39.3605 10.3093 40.9189 11.1509 40.9189 13.4418V18.4287H42.1812L42.3059 19.5196ZM39.7189 14.8132L38.8774 14.9379C36.1033 15.2963 35.1995 15.7794 35.1995 16.9326C35.2618 17.9612 36.1033 18.6781 37.0696 18.6781C38.3942 18.6157 39.5475 17.6495 39.7189 16.3249V14.8132Z" fill="#B8B8B8"/>
<path d="M46.1086 12.1017C46.5294 11.4939 47.3086 10.2316 49.0073 10.2316C50.2073 10.2316 50.8774 10.8394 51.1112 12.1017C51.345 11.6809 51.5943 11.3225 51.9527 10.964C52.4982 10.4809 53.1527 10.1848 53.8852 10.1848C55.2722 10.1848 56.0514 11.0887 56.0514 12.6627V18.3821H57.3137V19.473H54.7891V13.1302C54.7891 11.8679 54.3683 11.2601 53.4644 11.2601C51.8904 11.2601 51.0489 13.1302 51.0489 13.7848V18.3666H52.3735V19.4575H49.7242V12.9432C49.7242 11.8056 49.3034 11.3225 48.3995 11.3225C47.0125 11.3225 45.984 13.0679 45.984 13.9095V18.4289H47.3086V19.5198H43.397V18.4289H44.7216V11.4316H43.397V10.3407H46.0463L46.1086 12.1017Z" fill="#B8B8B8"/>
<path d="M58.7008 7.05249H61.2254V12.2888C61.5839 11.6187 62.6124 10.294 64.1708 10.294C66.2124 10.294 67.7864 12.3979 67.7864 15.0472C67.7864 17.5251 66.1033 19.629 64.1708 19.629C62.5501 19.629 61.7553 18.5381 61.2254 17.8212V19.5199H58.6384V18.429H59.9008V8.1278H58.7008V7.05249ZM61.2254 15.6706C61.2254 17.1823 62.3631 18.3823 63.8124 18.5069C65.3864 18.5069 66.3371 17.1199 66.3371 14.8914C66.3371 12.6628 65.3085 11.3382 63.8124 11.3382C62.4877 11.3382 61.1631 12.7875 61.1631 14.1122L61.2254 15.6706Z" fill="#B8B8B8"/>
<path d="M68.5654 7.05249H71.1524V18.429H72.3524V19.5199H68.5031V18.429H69.8277V8.06547H68.5654V7.05249Z" fill="#B8B8B8"/>
<path d="M81.2199 16.9952C81.0952 17.5406 80.8614 17.9614 80.503 18.3822C79.7861 19.2237 78.7576 19.7069 77.6043 19.7069C75.1264 19.7069 73.381 17.7744 73.381 15.0004C73.381 12.3511 75.1264 10.2939 77.355 10.2939C79.5835 10.2939 81.3913 12.0394 81.3913 15.2342H74.8303C74.955 16.5588 75.2511 17.338 75.8589 17.9458C76.342 18.3666 76.9498 18.616 77.542 18.616C78.5705 18.616 79.2251 18.1328 79.7082 17.0419L81.2199 16.9952ZM79.8952 14.2212C79.8952 13.3796 79.5991 12.6004 78.9913 11.9303C78.5705 11.5719 78.0251 11.3225 77.4796 11.3848C76.342 11.4472 75.3758 12.2264 75.0641 13.3173C75.0017 13.6134 74.8771 13.9251 74.8771 14.2212H79.8952Z" fill="#B8B8B8"/>
<path d="M86.9549 7.58228H89.838L93.1575 17.5874H94.0614V19.5198H91.3497L90.5705 16.9328H86.3472L85.5679 19.5198H82.7939V17.5874H83.6978L86.9549 7.58228ZM88.3887 9.81083L86.8147 15.1095H89.9471L88.3887 9.81083Z" fill="#B8B8B8"/>
<path d="M93.9368 10.4185H97.5524V12.1639H96.6485L97.9108 17.5249L99.4225 10.4185H101.776L103.287 17.4158L104.487 12.1795H103.584V10.434H107.199V12.1795H106.42L104.487 19.4573H102.072L100.56 13.1925L99.1108 19.4573H96.6953L94.7005 12.1639H93.9213L93.9368 10.4185Z" fill="#B8B8B8"/>
<path d="M115.755 17.7744H116.534V19.5198H113.698V18.4289C113.027 19.2705 112.014 19.6913 110.924 19.6913C109.116 19.6913 107.729 18.4913 107.729 16.8549C107.729 14.2056 110.737 13.9095 113.635 13.6602C113.635 12.2731 113.152 11.8524 112.014 11.8524C110.877 11.8524 110.44 12.3978 110.394 13.2394V13.3017L108.227 13.2394C108.352 11.4316 109.801 10.2939 111.968 10.2939C114.492 10.2939 115.817 11.4316 115.817 13.4887L115.755 17.7744ZM113.588 15.2342C111.485 15.4212 110.098 15.5926 110.098 16.8549C110.098 17.5718 110.705 18.0549 111.609 18.0549C112.7 18.0549 113.604 17.2134 113.651 16.1225V16.0913V15.2497H113.588V15.2342Z" fill="#B8B8B8"/>
<path d="M120.804 11.8678C121.412 10.7302 122.067 10.2471 123.095 10.2471C123.454 10.2471 123.765 10.3094 124.124 10.3717V12.4756C123.765 12.4133 123.407 12.3509 123.033 12.3509C121.895 12.2886 120.929 13.1302 120.867 14.2211V17.7119H121.957V19.4574H117.734V17.7119H118.638V12.1639H117.734V10.4185H120.804V11.8678Z" fill="#B8B8B8"/>
<path d="M133.225 16.5121C132.804 18.5069 131.183 19.7069 129.001 19.7069C126.477 19.7069 124.606 17.7121 124.606 14.9536C124.606 12.1796 126.477 10.2004 129.001 10.2004C130.388 10.2004 131.713 10.8706 132.492 12.0706C133.1 13.0991 133.458 14.2368 133.396 15.4523H126.882C127.116 17.8056 128.627 17.9302 129.048 17.9302C129.89 17.9926 130.669 17.3848 130.918 16.6056L133.225 16.5121ZM130.871 13.8627C130.871 12.8342 130.03 12.055 129.064 12.055H129.001C127.973 12.055 127.131 12.8342 126.96 13.8004L130.871 13.8627Z" fill="#B8B8B8"/>
<path d="M156.352 2.22119C156.648 2.22119 156.866 2.29911 157.037 2.43937C157.193 2.57963 157.287 2.78223 157.287 3.01599C157.287 3.203 157.24 3.35885 157.162 3.4991C157.084 3.63936 156.944 3.73287 156.757 3.77962V3.7952C156.85 3.81079 156.913 3.84196 156.975 3.87313C157.037 3.91988 157.069 3.96663 157.1 4.01338C157.131 4.07572 157.162 4.13806 157.178 4.2004C157.193 4.26273 157.209 4.34065 157.209 4.41858C157.209 4.4965 157.224 4.57442 157.224 4.65234C157.224 4.73026 157.24 4.80818 157.24 4.8861C157.256 4.96403 157.271 5.02636 157.287 5.10428C157.302 5.16662 157.333 5.22896 157.38 5.27571H156.928C156.897 5.24454 156.882 5.19779 156.866 5.15103C156.85 5.10428 156.85 5.04195 156.85 4.96403C156.85 4.90169 156.85 4.82377 156.835 4.74585C156.835 4.66793 156.819 4.59 156.804 4.51208C156.788 4.43416 156.772 4.37182 156.757 4.2939C156.741 4.23156 156.71 4.16923 156.679 4.12248C156.648 4.07572 156.601 4.02897 156.539 3.9978C156.476 3.96663 156.398 3.95105 156.305 3.95105H155.308V5.24454H154.902V2.22119H156.352ZM156.445 3.60819C156.523 3.59261 156.601 3.56144 156.663 3.53027C156.726 3.48352 156.772 3.43676 156.819 3.35884C156.85 3.2965 156.882 3.203 156.882 3.09391C156.882 2.93807 156.835 2.8134 156.757 2.71989C156.679 2.62638 156.539 2.57963 156.336 2.57963H155.323V3.63936H156.165C156.274 3.62378 156.352 3.62378 156.445 3.60819Z" fill="#B8B8B8"/>
<path d="M156.056 6.80297C154.435 6.80297 153.11 5.4783 153.11 3.85754C153.11 2.23677 154.435 0.912109 156.056 0.912109C157.676 0.912109 159.001 2.23677 159.001 3.85754C159.017 5.4783 157.692 6.80297 156.056 6.80297ZM156.056 1.37964C154.7 1.37964 153.578 2.48612 153.578 3.85754C153.578 5.22895 154.684 6.33544 156.056 6.33544C157.412 6.33544 158.534 5.22895 158.534 3.85754C158.534 2.48612 157.427 1.37964 156.056 1.37964Z" fill="#B8B8B8"/>
<path d="M134.487 18.3196H135.61V19.4267H134.487V18.3196Z" fill="#B8B8B8"/>
<path d="M136.622 16.1534C136.622 14.1742 137.838 12.8027 139.615 12.8027C141.344 12.8027 142.607 14.2209 142.607 16.1534C142.607 18.1793 141.376 19.5663 139.599 19.5663C137.822 19.5663 136.622 18.1949 136.622 16.1534ZM139.568 18.7559C140.799 18.7559 141.547 17.7585 141.547 16.1222C141.547 14.5793 140.768 13.5975 139.568 13.5975C138.399 13.5975 137.667 14.5793 137.667 16.1689C137.667 17.8053 138.383 18.7559 139.568 18.7559Z" fill="#B8B8B8"/>
<path d="M145.147 14.4081C145.458 13.7224 145.63 13.5198 145.926 13.2393C146.269 12.9432 146.69 12.7874 147.11 12.7874C147.266 12.7874 147.484 12.8185 147.812 12.8653V13.8159C147.484 13.7536 147.297 13.738 147.126 13.738C145.365 13.738 145.147 15.5614 145.147 15.6704V18.6782H146.253V19.4418H143.277V18.6782H144.212V13.6912H143.246V12.912H145.147V14.4081Z" fill="#B8B8B8"/>
<path d="M152.908 17.8365C152.316 18.678 151.661 18.9429 150.944 18.9429C149.386 18.9429 148.31 17.665 148.31 15.8105C148.31 14.0495 149.37 12.8027 150.835 12.8027C152.035 12.8027 152.565 13.5664 152.908 14.0651V12.8962H154.747V13.6755H153.843V19.0209C153.843 20.5949 152.846 21.4832 151.069 21.4832C149.994 21.4832 149.074 21.0157 148.638 20.252C148.56 20.0962 148.482 19.9403 148.373 19.6131H149.433C149.822 20.3923 150.274 20.6884 151.147 20.6884C152.253 20.6884 152.908 20.1118 152.908 19.1767V17.8365ZM152.908 15.3118C152.908 14.5949 152.035 13.5819 151.038 13.5819C149.978 13.5819 149.323 14.4547 149.323 15.8728C149.323 17.3066 149.994 18.1793 151.1 18.1793C152.051 18.1793 152.908 17.2443 152.908 16.4806V15.3118Z" fill="#B8B8B8"/>
</svg>
