<svg width="200" height="27" viewBox="0 0 200 27" fill="none" xmlns="http://www.w3.org/2000/svg">
<path d="M0.35498 9.1499H6.1104C8.67489 9.1499 9.59498 9.22821 10.3585 9.52185C11.7875 10.207 12.6293 11.5578 12.6293 13.163C12.6293 14.6704 12.179 15.4339 10.6521 16.1974C12.2378 16.7259 13.2949 18.2333 13.1579 19.8973C13.1579 22.403 11.1807 24.067 8.32252 24.067H0.374556V21.6396H1.50998V11.5774H0.374556L0.35498 9.1499ZM4.60303 11.5774V15.2185H7.55904C8.61616 15.2968 9.59498 14.5334 9.67328 13.4763C9.67328 13.398 9.67328 13.3196 9.67328 13.3196C9.67328 12.3408 8.69447 11.5774 7.32413 11.5774H4.60303V11.5774ZM4.60303 17.5677V21.6591H7.77438C8.98811 21.7374 10.0452 20.8957 10.1235 19.6819C10.1235 19.6819 10.1235 19.6819 10.1235 19.6036C10.1235 18.3116 9.06642 17.4894 7.48074 17.4894L4.60303 17.5677Z" fill="#B8B8B8"/>
<path d="M25.706 20.3671C25.1775 22.8729 23.1416 24.3802 20.4009 24.3802C17.2295 24.3802 14.8804 21.8745 14.8804 18.4095C14.8804 14.9249 17.2295 12.4387 20.4009 12.4387C22.1432 12.4387 23.8071 13.2805 24.786 14.7879C25.5494 16.0799 25.9997 17.509 25.9214 19.0359H17.7385C18.0322 21.9919 19.931 22.1485 20.4596 22.1485C21.5167 22.2268 22.4955 21.4634 22.8088 20.4846L25.706 20.3671ZM22.8283 17.0391C22.8283 15.7471 21.7712 14.7683 20.5575 14.7683H20.4792C19.1871 14.7683 18.13 15.7471 17.9147 16.9608L22.8283 17.0391Z" fill="#B8B8B8"/>
<path d="M35.1811 16.6477H40.4079V24.0671H38.7439V21.7179C38.4503 22.2465 38.0588 22.6967 37.6085 23.147C36.6297 23.9888 35.416 24.439 34.2023 24.439C30.7177 24.439 27.9966 21.0327 27.9966 16.6477C27.9966 12.2626 30.7177 8.778 34.124 8.778C36.0228 8.6997 37.6868 9.75682 38.5873 11.3425V8.99334H40.173V13.7699H38.509C38.3524 13.0848 38.0588 12.4779 37.6673 11.9494C36.9038 10.9705 35.6901 10.3637 34.4959 10.2854C32.6753 10.2854 29.9542 11.871 29.9542 16.491C29.9542 20.1322 31.9314 22.775 34.4959 22.775C36.5318 22.6967 38.1958 21.1893 38.5873 19.2121C38.6656 18.8402 38.6656 18.3704 38.6656 17.9984H35.1028L35.1811 16.6477Z" fill="#B8B8B8"/>
<path d="M53.1127 24.1453H49.8631V22.1093C49.0996 23.5384 47.5922 24.3802 46.0066 24.3802C44.1077 24.5368 42.4437 23.0098 42.3066 21.1305C42.3066 21.0522 42.3066 20.9739 42.3066 20.8956C42.3066 18.7031 44.2055 17.6459 48.7472 17.1957L49.8044 17.1174V15.982C49.8044 14.6899 48.8255 13.8677 47.2399 13.8677C45.6542 13.8677 44.8124 14.3963 44.5188 15.9036H42.7373C42.8939 15.0031 43.3442 14.1614 44.0294 13.5545C44.8711 12.8693 46.0066 12.5757 47.0637 12.5757C49.4128 12.5757 51.3705 13.6328 51.3705 16.5105V22.7749H52.9561L53.1127 24.1453ZM49.8631 18.2332L48.806 18.3898C45.3214 18.8401 44.186 19.447 44.186 20.8956C44.2643 22.1876 45.3214 23.0881 46.5351 23.0881C48.1991 23.0098 49.6477 21.7961 49.8631 20.1321V18.2332Z" fill="#B8B8B8"/>
<path d="M57.8897 14.8271C58.4182 14.0636 59.397 12.4779 61.5309 12.4779C63.0382 12.4779 63.88 13.2414 64.1736 14.8271C64.4673 14.2985 64.7805 13.8483 65.2308 13.398C65.9159 12.7911 66.7381 12.4192 67.6582 12.4192C69.4005 12.4192 70.3793 13.5546 70.3793 15.5318V22.7163H71.965V24.0866H68.7936V16.1191C68.7936 14.5334 68.2651 13.77 67.1297 13.77C65.1525 13.77 64.0953 16.1191 64.0953 16.9413V22.6967H65.7593V24.0671H62.4314V15.8842C62.4314 14.4551 61.9028 13.8483 60.7674 13.8483C59.0251 13.8483 57.7331 16.0408 57.7331 17.0979V22.775H59.397V24.1454H54.4834V22.775H56.1474V13.9853H54.4834V12.615H57.8114L57.8897 14.8271Z" fill="#B8B8B8"/>
<path d="M73.7072 8.48438H76.8786V15.062C77.3288 14.2202 78.6209 12.5562 80.5785 12.5562C83.143 12.5562 85.1202 15.199 85.1202 18.527C85.1202 21.6396 83.0059 24.2824 80.5785 24.2824C78.5425 24.2824 77.5442 22.9121 76.8786 22.0116V24.1454H73.6289V22.775H75.2146V9.83514H73.7072V8.48438ZM76.8786 19.31C76.8786 21.2089 78.3076 22.7163 80.1282 22.8729C82.1054 22.8729 83.2996 21.1306 83.2996 18.3312C83.2996 15.5318 82.0075 13.8678 80.1282 13.8678C78.4642 13.8678 76.8003 15.6884 76.8003 17.3524L76.8786 19.31Z" fill="#B8B8B8"/>
<path d="M86.0988 8.48438H89.3485V22.775H90.8558V24.1454H86.0205V22.775H87.6845V9.75683H86.0988V8.48438Z" fill="#B8B8B8"/>
<path d="M101.995 20.9739C101.838 21.6591 101.545 22.1877 101.094 22.7162C100.194 23.7734 98.9018 24.3802 97.4531 24.3802C94.3405 24.3802 92.1479 21.9528 92.1479 18.4682C92.1479 15.1402 94.3405 12.5562 97.1399 12.5562C99.9393 12.5562 102.21 14.7487 102.21 18.7618H93.9685C94.1251 20.4258 94.4971 21.4046 95.2606 22.1681C95.8674 22.6967 96.6309 23.0099 97.3748 23.0099C98.6668 23.0099 99.489 22.403 100.096 21.0327L101.995 20.9739ZM100.331 17.4894C100.331 16.4323 99.9589 15.4534 99.1954 14.6117C98.6668 14.1614 97.9817 13.8482 97.2965 13.9265C95.8674 14.0048 94.6537 14.9836 94.2622 16.354C94.1839 16.7259 94.0273 17.1174 94.0273 17.4894H100.331Z" fill="#B8B8B8"/>
<path d="M109.199 9.1499H112.821L116.99 21.7179H118.126V24.1453H114.72L113.741 20.8957H108.436L107.457 24.1453H103.972V21.7179H105.108L109.199 9.1499ZM111 11.9493L109.023 18.6052H112.958L111 11.9493Z" fill="#B8B8B8"/>
<path d="M117.969 12.7126H122.511V14.9052H121.376L122.961 21.6394L124.86 12.7126H127.816L129.715 21.5024L131.222 14.9248H130.087V12.7322H134.629V14.9248H133.65L131.222 24.0669H128.188L126.289 16.1972L124.469 24.0669H121.434L118.929 14.9052H117.95L117.969 12.7126Z" fill="#B8B8B8"/>
<path d="M145.376 21.9528H146.355V24.1453H142.792V22.775C141.95 23.8321 140.677 24.3606 139.307 24.3606C137.036 24.3606 135.294 22.8533 135.294 20.7978C135.294 17.4698 139.072 17.0978 142.713 16.7846C142.713 15.0423 142.106 14.5138 140.677 14.5138C139.248 14.5138 138.7 15.199 138.641 16.2561V16.3344L135.92 16.2561C136.077 13.9852 137.898 12.5562 140.619 12.5562C143.79 12.5562 145.454 13.9852 145.454 16.5693L145.376 21.9528ZM142.655 18.7618C140.012 18.9967 138.27 19.2121 138.27 20.7978C138.27 21.6983 139.033 22.3051 140.168 22.3051C141.539 22.3051 142.674 21.248 142.733 19.8777V19.8385V18.7814H142.655V18.7618Z" fill="#B8B8B8"/>
<path d="M151.719 14.5332C152.482 13.1042 153.305 12.4973 154.597 12.4973C155.047 12.4973 155.438 12.5756 155.889 12.6539V15.2967C155.438 15.2184 154.988 15.1401 154.518 15.1401C153.089 15.0618 151.875 16.1189 151.797 17.4893V21.8743H153.167V24.0669H147.862V21.8743H148.998V14.9052H147.862V12.7127H151.719V14.5332Z" fill="#B8B8B8"/>
<path d="M167.321 20.3671C166.792 22.8729 164.756 24.3802 162.016 24.3802C158.844 24.3802 156.495 21.8745 156.495 18.4095C156.495 14.9249 158.844 12.4387 162.016 12.4387C163.758 12.4387 165.422 13.2805 166.401 14.7879C167.164 16.0799 167.614 17.509 167.536 19.0359H159.353C159.647 21.9919 161.546 22.1485 162.074 22.1485C163.131 22.2268 164.11 21.4634 164.424 20.4846L167.321 20.3671ZM164.365 17.0391C164.365 15.7471 163.308 14.7683 162.094 14.7683H162.016C160.724 14.7683 159.666 15.7471 159.451 16.9608L164.365 17.0391Z" fill="#B8B8B8"/>
<path d="M196.372 2.41553C196.744 2.41553 197.018 2.51341 197.233 2.68959C197.429 2.86578 197.546 3.12027 197.546 3.41392C197.546 3.64883 197.488 3.8446 197.39 4.02078C197.292 4.19697 197.116 4.31442 196.881 4.37315V4.39273C196.998 4.41231 197.077 4.45146 197.155 4.49061C197.233 4.54934 197.272 4.60807 197.312 4.6668C197.351 4.7451 197.39 4.82341 197.409 4.90171C197.429 4.98002 197.449 5.0779 197.449 5.17578C197.449 5.27366 197.468 5.37154 197.468 5.46943C197.468 5.56731 197.488 5.66519 197.488 5.76307C197.507 5.86095 197.527 5.93925 197.546 6.03714C197.566 6.11544 197.605 6.19375 197.664 6.25248H197.096C197.057 6.21332 197.037 6.15459 197.018 6.09586C196.998 6.03713 196.998 5.95883 196.998 5.86095C196.998 5.78265 196.998 5.68477 196.979 5.58688C196.979 5.489 196.959 5.39112 196.94 5.29324C196.92 5.19536 196.9 5.11705 196.881 5.01917C196.861 4.94086 196.822 4.86256 196.783 4.80383C196.744 4.7451 196.685 4.68637 196.607 4.64722C196.528 4.60807 196.431 4.58849 196.313 4.58849H195.06V6.21332H194.551V2.41553H196.372ZM196.489 4.15781C196.587 4.13824 196.685 4.09908 196.763 4.05993C196.842 4.0012 196.9 3.94247 196.959 3.84459C196.998 3.76629 197.037 3.64883 197.037 3.5118C197.037 3.31604 196.979 3.15943 196.881 3.04197C196.783 2.92451 196.607 2.86578 196.352 2.86578H195.08V4.19697H196.137C196.274 4.17739 196.372 4.17739 196.489 4.15781Z" fill="#B8B8B8"/>
<path d="M196 8.17106C193.964 8.17106 192.3 6.50708 192.3 4.47115C192.3 2.43522 193.964 0.77124 196 0.77124C198.036 0.77124 199.7 2.43522 199.7 4.47115C199.72 6.50708 198.056 8.17106 196 8.17106ZM196 1.35853C194.297 1.35853 192.888 2.74844 192.888 4.47115C192.888 6.19386 194.278 7.58378 196 7.58378C197.703 7.58378 199.113 6.19386 199.113 4.47115C199.113 2.74844 197.723 1.35853 196 1.35853Z" fill="#B8B8B8"/>
<path d="M168.907 22.6377H170.317V24.0285H168.907V22.6377Z" fill="#B8B8B8"/>
<path d="M171.589 19.9167C171.589 17.4305 173.116 15.7078 175.348 15.7078C177.52 15.7078 179.106 17.4892 179.106 19.9167C179.106 22.4616 177.56 24.2039 175.328 24.2039C173.096 24.2039 171.589 22.4811 171.589 19.9167ZM175.289 23.1859C176.835 23.1859 177.775 21.933 177.775 19.8775C177.775 17.9395 176.796 16.7062 175.289 16.7062C173.821 16.7062 172.9 17.9395 172.9 19.9362C172.9 21.9917 173.801 23.1859 175.289 23.1859Z" fill="#B8B8B8"/>
<path d="M182.297 17.7242C182.689 16.8628 182.904 16.6083 183.276 16.2559C183.707 15.884 184.235 15.6882 184.764 15.6882C184.959 15.6882 185.233 15.7274 185.645 15.7861V16.9803C185.233 16.902 184.999 16.8824 184.783 16.8824C182.571 16.8824 182.297 19.1728 182.297 19.3098V23.0881H183.687V24.0473H179.948V23.0881H181.122V16.8237H179.909V15.8448H182.297V17.7242V17.7242Z" fill="#B8B8B8"/>
<path d="M192.046 22.0309C191.302 23.088 190.48 23.4208 189.579 23.4208C187.622 23.4208 186.271 21.8156 186.271 19.486C186.271 17.2739 187.602 15.7078 189.442 15.7078C190.95 15.7078 191.615 16.667 192.046 17.2934V15.8252H194.356V16.804H193.221V23.5187C193.221 25.4959 191.968 26.6117 189.736 26.6117C188.385 26.6117 187.23 26.0245 186.682 25.0652C186.584 24.8695 186.486 24.6737 186.349 24.2626H187.681C188.17 25.2414 188.738 25.6134 189.834 25.6134C191.224 25.6134 192.046 24.889 192.046 23.7145V22.0309ZM192.046 18.8595C192.046 17.959 190.95 16.6866 189.697 16.6866C188.366 16.6866 187.543 17.7828 187.543 19.5643C187.543 21.3653 188.385 22.4616 189.775 22.4616C190.969 22.4616 192.046 21.287 192.046 20.3278V18.8595Z" fill="#B8B8B8"/>
</svg>
