<svg width="186" height="33" viewBox="0 0 186 33" fill="none" xmlns="http://www.w3.org/2000/svg">
<path fill-rule="evenodd" clip-rule="evenodd" d="M22.3456 2.61811H92.8079V31.3736H22.3456C20.2967 32.4233 17.9597 32.9958 15.5267 32.9958C6.94699 32.9958 0 25.8388 0 16.9958C0 8.1529 6.94699 0.99585 15.5267 0.99585C17.9597 0.99585 20.2967 1.60022 22.3456 2.61811ZM186 16.2324C186 17.8865 185.52 19.1589 184.527 20.0495C183.535 20.9402 182.126 21.3855 180.27 21.3855H177.292V11.302H180.59C182.286 11.302 183.631 11.7473 184.559 12.6062C185.52 13.465 186 14.6738 186 16.2324ZM183.695 16.296C183.695 14.133 182.703 13.0515 180.718 13.0515H179.533V19.6042H180.494C182.607 19.6042 183.695 18.4909 183.695 16.296ZM175.115 21.3537H169.097V11.302H175.115V13.0515H171.306V15.2782H174.859V17.0277H171.306V19.636H175.115V21.3537ZM164.647 21.3537H162.438V13.0515H159.589V11.302H167.496V13.0833H164.647V21.3537ZM155.715 12.9243C154.883 12.9243 154.242 13.2106 153.762 13.8149C153.314 14.4193 153.09 15.2463 153.09 16.3279C153.09 18.5863 153.954 19.6996 155.715 19.6996C156.451 19.6996 157.348 19.5088 158.372 19.1589V20.9402C157.508 21.2901 156.547 21.4491 155.491 21.4491C153.954 21.4491 152.802 21.0038 152.001 20.1131C151.201 19.2225 150.785 17.9501 150.785 16.296C150.785 15.2463 150.977 14.3239 151.393 13.5605C151.777 12.7652 152.354 12.1609 153.09 11.7473C153.826 11.3338 154.691 11.1112 155.715 11.1112C156.739 11.1112 157.764 11.3338 158.788 11.811L158.084 13.5605C157.7 13.3696 157.316 13.2424 156.899 13.0833C156.483 12.9879 156.099 12.9243 155.715 12.9243ZM149.088 21.3537H143.07V11.302H149.088V13.0515H145.278V15.2782H148.832V17.0277H145.278V19.636H149.088V21.3537ZM138.62 21.3537H136.411V13.0515H133.561V11.302H141.469V13.0833H138.62V21.3537ZM132.409 16.3279C132.409 17.9819 131.993 19.2861 131.128 20.1768C130.264 21.0674 129.048 21.5127 127.447 21.5127C125.846 21.5127 124.598 21.0674 123.765 20.1768C122.901 19.2861 122.485 17.9819 122.485 16.3279C122.485 14.642 122.901 13.3696 123.765 12.4789C124.63 11.5883 125.846 11.143 127.479 11.143C129.112 11.143 130.328 11.5883 131.16 12.4789C131.961 13.3696 132.409 14.642 132.409 16.3279ZM124.758 16.3279C124.758 17.4412 124.982 18.3 125.43 18.8726C125.878 19.4452 126.55 19.7314 127.415 19.7314C129.176 19.7314 130.072 18.5863 130.072 16.3279C130.072 14.0694 129.208 12.9243 127.415 12.9243C126.518 12.9243 125.878 13.2106 125.43 13.7831C124.982 14.3557 124.758 15.1827 124.758 16.3279ZM115.442 15.7553H116.146C116.85 15.7553 117.362 15.6281 117.683 15.4054C118.003 15.1827 118.195 14.8328 118.195 14.3557C118.195 13.8786 118.035 13.5286 117.683 13.3378C117.33 13.1469 116.818 13.0197 116.082 13.0197H115.41V15.7553H115.442ZM115.442 17.5048V21.3855H113.233V11.302H116.274C117.683 11.302 118.739 11.5565 119.443 12.0654C120.116 12.5744 120.468 13.306 120.468 14.3239C120.468 14.9283 120.308 15.4372 119.956 15.9143C119.603 16.3597 119.155 16.7414 118.515 16.9958C120.084 19.2543 121.108 20.7175 121.588 21.3855H119.123L116.626 17.5048H115.442ZM106.222 16.0416H106.958C107.63 16.0416 108.143 15.9143 108.495 15.6599C108.847 15.4054 109.007 15.0237 109.007 14.5147C109.007 14.0058 108.879 13.6559 108.591 13.4014C108.303 13.1788 107.854 13.0515 107.246 13.0515H106.222V16.0416ZM111.248 14.4511C111.248 15.5326 110.896 16.3597 110.191 16.9322C109.487 17.5048 108.495 17.7911 107.182 17.7911H106.222V21.3855H104.013V11.302H107.374C108.655 11.302 109.615 11.5565 110.287 12.0972C110.928 12.6062 111.248 13.4014 111.248 14.4511ZM10.1804 14.1012C9.86024 14.1012 9.57212 14.3557 9.57212 14.7056V24.7891C9.57212 25.1072 9.82823 25.3935 10.1804 25.3935H20.1687C20.4888 25.3935 20.7769 25.139 20.7769 24.7891V14.7056C20.7769 14.3875 20.5208 14.1012 20.1687 14.1012H10.1804ZM15.2065 8.63004C13.8299 8.63004 12.5814 9.5207 11.7491 10.9839C11.3649 11.6201 11.0768 12.3835 10.8527 13.2106H12.4534C12.6134 12.6698 12.8375 12.1927 13.0936 11.7791C13.6699 10.7931 14.4382 10.1887 15.2386 10.1887C16.0389 10.1887 16.8072 10.7931 17.3835 11.7791C17.6396 12.1927 17.8317 12.7016 18.0238 13.2106H19.6244C19.4003 12.3835 19.1122 11.6201 18.7281 10.9839C17.7997 9.5207 16.5831 8.63004 15.2065 8.63004ZM15.0465 17.1549C14.2781 17.1549 13.6699 17.7593 13.6699 18.5227C13.6699 19.0634 13.99 19.5406 14.4702 19.7632L14.4062 20.0177L13.7339 22.308H15.0785H16.4231L15.7508 20.0177L15.6867 19.7632C16.167 19.5406 16.4871 19.0634 16.4871 18.5227C16.4551 17.7911 15.8148 17.1549 15.0465 17.1549ZM15.5267 1.60022C7.26713 1.60022 0.576248 8.5028 0.576248 16.9958C0.576248 25.4889 7.26713 32.3915 15.5267 32.3915C23.7862 32.3915 30.4771 25.4889 30.4771 16.9958C30.4771 8.5028 23.7862 1.60022 15.5267 1.60022ZM48.0527 16.2324C48.0527 14.6738 47.5725 13.465 46.6441 12.6062C45.6836 11.7473 44.3711 11.302 42.6743 11.302H39.3769V21.3855H42.3542C44.211 21.3855 45.6196 20.9402 46.612 20.0495C47.5725 19.1589 48.0527 17.8865 48.0527 16.2324ZM45.7477 16.296C45.7477 14.133 44.7552 13.0515 42.7704 13.0515H41.5859V19.6042H42.5463C44.6912 19.6042 45.7477 18.4909 45.7477 16.296ZM54.6795 21.3537H56.7284L59.4175 13.465H59.4816C59.4175 14.7374 59.3855 15.5008 59.3855 15.8189C59.3855 16.1052 59.3855 16.3597 59.3855 16.5823V21.3537H61.4664V11.302H58.3931L55.768 18.9998H55.736L53.2709 11.302H50.2616V21.3855H52.2465V16.7096C52.2465 16.1688 52.2145 15.0873 52.1184 13.4968H52.1824L54.6795 21.3537ZM68.5095 12.9243C68.8936 12.9243 69.2778 12.9879 69.662 13.1151C70.0461 13.2424 70.4623 13.4014 70.8465 13.5923L71.5508 11.8428C70.5263 11.3656 69.5019 11.143 68.4774 11.143C67.485 11.143 66.6207 11.3656 65.8523 11.7791C65.116 12.1927 64.5398 12.797 64.1556 13.5923C63.7714 14.3875 63.5473 15.31 63.5473 16.3279C63.5473 17.9819 63.9635 19.2543 64.7638 20.145C65.5642 21.0356 66.7487 21.4809 68.2533 21.4809C69.3098 21.4809 70.2702 21.3219 71.1346 20.972V19.1907C70.0781 19.5406 69.2138 19.7314 68.4774 19.7314C66.7167 19.7314 65.8523 18.6181 65.8523 16.3597C65.8523 15.2782 66.0764 14.4511 66.5246 13.8467C67.0048 13.2424 67.6771 12.9243 68.5095 12.9243ZM79.8103 21.3537H82.2113L78.4978 11.2384H75.7766L72.095 21.3537H74.496L75.2644 18.968H79.074L79.8103 21.3537ZM78.5298 17.1867C77.8255 15.0237 77.4413 13.7831 77.3453 13.4968C77.2492 13.2106 77.1852 12.9879 77.1532 12.8288C76.9931 13.4014 76.5449 14.8646 75.8086 17.1867H78.5298Z" fill="#B8B8B8"/>
</svg>
