<svg width="200" height="34" viewBox="0 0 200 34" fill="none" xmlns="http://www.w3.org/2000/svg">
<path fill-rule="evenodd" clip-rule="evenodd" d="M24.0275 1.72365H99.7935V32.2763H24.0275C21.8244 33.3916 19.3115 34 16.6954 34C7.46988 34 0 26.3956 0 17C0 7.60437 7.46988 0 16.6954 0C19.3115 0 21.8244 0.642144 24.0275 1.72365ZM200 16.1889C200 17.9463 199.484 19.2982 198.417 20.2445C197.349 21.1909 195.835 21.664 193.838 21.664H190.637V10.9503H194.182C196.007 10.9503 197.453 11.4235 198.451 12.336C199.484 13.2485 200 14.5328 200 16.1889ZM197.522 16.2565C197.522 13.9582 196.454 12.8091 194.32 12.8091H193.046V19.7714H194.079C196.351 19.7714 197.522 18.5885 197.522 16.2565ZM188.296 21.6302H181.824V10.9503H188.296V12.8091H184.2V15.1749H188.021V17.0338H184.2V19.8052H188.296V21.6302ZM177.04 21.6302H174.664V12.8091H171.601V10.9503H180.103V12.8429H177.04V21.6302V21.6302ZM167.435 12.674C166.54 12.674 165.852 12.9781 165.336 13.6203C164.854 14.2624 164.613 15.1412 164.613 16.2903C164.613 18.6899 165.542 19.8728 167.435 19.8728C168.227 19.8728 169.191 19.67 170.293 19.2982V21.1909C169.363 21.5626 168.33 21.7316 167.194 21.7316C165.542 21.7316 164.303 21.2584 163.442 20.3121C162.582 19.3658 162.134 18.0139 162.134 16.2565C162.134 15.1411 162.341 14.161 162.788 13.3499C163.201 12.505 163.821 11.8628 164.613 11.4235C165.404 10.9841 166.334 10.7475 167.435 10.7475C168.537 10.7475 169.639 10.9841 170.74 11.4911L169.983 13.3499C169.57 13.1471 169.157 13.0119 168.709 12.8429C168.262 12.7415 167.849 12.674 167.435 12.674ZM160.31 21.6302H153.838V10.9503H160.31V12.8091H156.213V15.1749H160.034V17.0338H156.213V19.8052H160.31V21.6302ZM149.053 21.6302H146.678V12.8091H143.614V10.9503H152.117V12.8429H149.053V21.6302V21.6302ZM142.375 16.2903C142.375 18.0477 141.928 19.4334 140.998 20.3797C140.069 21.326 138.761 21.7992 137.04 21.7992C135.318 21.7992 133.976 21.326 133.081 20.3797C132.151 19.4334 131.704 18.0477 131.704 16.2903C131.704 14.499 132.151 13.1471 133.081 12.2008C134.01 11.2545 135.318 10.7813 137.074 10.7813C138.83 10.7813 140.138 11.2545 141.033 12.2008C141.893 13.1471 142.375 14.499 142.375 16.2903ZM134.148 16.2903C134.148 17.4732 134.389 18.3857 134.871 18.994C135.353 19.6024 136.076 19.9066 137.005 19.9066C138.898 19.9066 139.862 18.6899 139.862 16.2903C139.862 13.8907 138.933 12.674 137.005 12.674C136.041 12.674 135.353 12.9781 134.871 13.5865C134.389 14.1948 134.148 15.0736 134.148 16.2903ZM124.131 15.6819H124.888C125.645 15.6819 126.196 15.5467 126.54 15.3101C126.885 15.0736 127.091 14.7018 127.091 14.1948C127.091 13.6879 126.919 13.3161 126.54 13.1133C126.162 12.9105 125.611 12.7753 124.819 12.7753H124.096V15.6819H124.131ZM124.131 17.5408V21.664H121.756V10.9503H125.026C126.54 10.9503 127.676 11.2207 128.434 11.7614C129.157 12.3022 129.535 13.0795 129.535 14.161C129.535 14.8032 129.363 15.3439 128.985 15.8509C128.606 16.3241 128.124 16.7296 127.435 17C129.122 19.3996 130.224 20.9543 130.74 21.664H128.09L125.404 17.5408H124.131V17.5408ZM114.217 15.9861H115.009C115.731 15.9861 116.282 15.8509 116.661 15.5805C117.04 15.3101 117.212 14.9046 117.212 14.3638C117.212 13.8231 117.074 13.4513 116.764 13.1809C116.454 12.9443 115.972 12.8091 115.318 12.8091H114.217V15.9861V15.9861ZM119.621 14.2962C119.621 15.4453 119.243 16.3241 118.485 16.9324C117.728 17.5408 116.661 17.8449 115.25 17.8449H114.217V21.664H111.842V10.9503H115.456C116.833 10.9503 117.866 11.2207 118.589 11.7952C119.277 12.336 119.621 13.1809 119.621 14.2962ZM10.9466 13.9245C10.6024 13.9245 10.2926 14.1948 10.2926 14.5666V25.2803C10.2926 25.6183 10.568 25.9225 10.9466 25.9225H21.6867C22.031 25.9225 22.3408 25.6521 22.3408 25.2803V14.5666C22.3408 14.2286 22.0654 13.9245 21.6867 13.9245H10.9466V13.9245ZM16.3511 8.11133C14.8709 8.11133 13.5284 9.05765 12.6334 10.6123C12.2203 11.2883 11.9105 12.0994 11.6695 12.9781H13.3907C13.5628 12.4036 13.8038 11.8966 14.0792 11.4573C14.6988 10.4095 15.525 9.76739 16.3855 9.76739C17.2461 9.76739 18.0723 10.4095 18.6919 11.4573C18.9673 11.8966 19.1738 12.4374 19.3804 12.9781H21.1016C20.8606 12.0994 20.5508 11.2883 20.1377 10.6123C19.1394 9.05765 17.8313 8.11133 16.3511 8.11133ZM16.179 17.169C15.3528 17.169 14.6988 17.8111 14.6988 18.6223C14.6988 19.1968 15.043 19.7038 15.5594 19.9404L15.4905 20.2107L14.7676 22.6441H16.2134H17.6592L16.9363 20.2107L16.8675 19.9404C17.3838 19.7038 17.7281 19.1968 17.7281 18.6223C17.6936 17.8449 17.0052 17.169 16.179 17.169ZM16.6954 0.642145C7.81411 0.642145 0.619621 7.97614 0.619621 17C0.619621 26.0239 7.81411 33.3578 16.6954 33.3578C25.5766 33.3578 32.7711 26.0239 32.7711 17C32.7711 7.97614 25.5766 0.642145 16.6954 0.642145ZM51.6695 16.1889C51.6695 14.5328 51.1532 13.2485 50.1549 12.336C49.1222 11.4235 47.7108 10.9503 45.8864 10.9503H42.3408V21.664H45.5422C47.5387 21.664 49.0534 21.1909 50.1205 20.2445C51.1532 19.2982 51.6695 17.9463 51.6695 16.1889ZM49.191 16.2565C49.191 13.9582 48.1239 12.8091 45.9897 12.8091H44.716V19.7714H45.7487C48.0551 19.7714 49.191 18.5885 49.191 16.2565ZM58.7952 21.6302H60.9983L63.8898 13.2485H63.9587C63.8898 14.6004 63.8554 15.4115 63.8554 15.7495C63.8554 16.0537 63.8554 16.3241 63.8554 16.5606V21.6302H66.0929V10.9503H62.7883L59.9656 19.1292H59.9312L57.2805 10.9503H54.0448V21.664H56.179V16.6958C56.179 16.1213 56.1446 14.9722 56.0413 13.2823H56.1102L58.7952 21.6302ZM73.6661 12.674C74.0792 12.674 74.4923 12.7415 74.9053 12.8767C75.3184 13.0119 75.7659 13.1809 76.179 13.3837L76.9363 11.5248C75.8348 11.0179 74.7332 10.7813 73.6317 10.7813C72.5645 10.7813 71.6351 11.0179 70.8089 11.4573C70.0172 11.8966 69.3976 12.5388 68.9845 13.3837C68.5714 14.2286 68.3305 15.2087 68.3305 16.2903C68.3305 18.0477 68.778 19.3996 69.6386 20.3459C70.4991 21.2922 71.7728 21.7654 73.3907 21.7654C74.5267 21.7654 75.5594 21.5964 76.4888 21.2246V19.332C75.3528 19.7038 74.4234 19.9066 73.6317 19.9066C71.7384 19.9066 70.8089 18.7237 70.8089 16.324C70.8089 15.1749 71.0499 14.2962 71.5318 13.6541C72.0482 13.0119 72.7711 12.674 73.6661 12.674ZM85.8176 21.6302H88.3993L84.4062 10.8827H81.4802L77.5215 21.6302H80.1033L80.9294 19.0954H85.0258L85.8176 21.6302ZM84.4406 17.2028C83.6833 14.9046 83.2702 13.5865 83.167 13.2823C83.0637 12.9781 82.9948 12.7415 82.9604 12.5726C82.7883 13.1809 82.3064 14.7356 81.5146 17.2028H84.4406Z" fill="#B8B8B8"/>
</svg>
