<svg width="120" height="35" viewBox="0 0 120 35" fill="none" xmlns="http://www.w3.org/2000/svg">
<path fill-rule="evenodd" clip-rule="evenodd" d="M0 22.0827L11.811 35L30.0124 29.7374L20.5139 20.7986L34.8363 0L16.7344 18.1799L9.07584 19.9424L2.53626 16.3166L5.47037 20.7734L0 22.0827ZM6.29093 22.0324L12.8305 31.9784L19.6187 22.1331L27.1529 29.2338L12.4575 33.4389L2.78491 22.8633L6.29093 22.0324ZM14.9689 19.9676L12.8802 22.0827L10.8413 20.9496L14.9689 19.9676ZM58.3589 21.3525C57.8616 23.3669 56.8918 24.9532 55.4497 26.1619C53.9826 27.3705 52.242 27.9748 50.2528 27.9748C47.9652 27.9748 46.2744 27.1943 45.1554 25.6331C44.0365 24.0719 43.7132 22.0072 44.1359 19.4137C44.3846 17.8525 44.9316 16.4424 45.7273 15.1583C46.523 13.8741 47.5922 12.8417 48.8852 12.0612C50.2031 11.2806 51.6453 10.8777 53.2366 10.8777C54.9523 10.8777 56.3448 11.3561 57.4637 12.313C58.5827 13.2698 59.1049 14.6547 59.0551 16.4425H56.2453C56.2205 15.4604 55.8972 14.705 55.2756 14.1259C54.654 13.5719 53.8334 13.295 52.7891 13.295C51.7199 13.295 50.7501 13.5971 49.9047 14.2014C49.0593 14.8058 48.4128 15.5612 47.9403 16.4676C47.4927 17.3741 47.1695 18.3309 46.9954 19.3885C46.8711 20.1942 46.8214 20.9245 46.896 21.6295C46.9706 22.3345 47.1198 22.9892 47.3933 23.5683C47.6668 24.1475 48.0647 24.6259 48.6366 24.9784C49.2085 25.3309 49.9047 25.5072 50.7252 25.5072C53.1372 25.5072 54.7286 24.1223 55.5491 21.3273H58.3589V21.3525ZM40.4807 15.6115C41.3759 16.0899 41.9229 16.8202 42.1716 17.7266C42.4202 18.6583 42.4948 19.6151 42.3954 20.6475C42.3705 20.7986 42.3456 20.9245 42.3456 21.0504C42.3208 21.1763 42.3208 21.3273 42.2959 21.4532L42.2462 21.705H33.3195C33.046 23.3166 33.2201 24.5252 33.8417 25.3561C34.4633 26.1871 35.2342 26.6151 36.1293 26.6906C36.1542 26.6906 36.2039 26.6906 36.2288 26.6906C36.2536 26.6906 36.3034 26.6906 36.3282 26.6906C36.3531 26.6906 36.3531 26.6906 36.378 26.6906C36.4028 26.6906 36.4028 26.6906 36.4277 26.6906C37.1985 26.6655 37.9445 26.4137 38.6904 25.8849C39.4364 25.3813 39.9834 24.6511 40.3315 23.7446H41.6991C41.3013 25.0288 40.6051 26.0108 39.6104 26.6906C38.591 27.3705 37.472 27.723 36.2288 27.7482L35.9552 27.7734C34.1401 27.7482 32.9217 27.0935 32.3498 25.7842C31.7779 24.4748 31.6038 22.9892 31.9022 21.3022C31.9022 21.277 31.9271 21.2266 31.9271 21.1763C31.9271 21.1259 31.9519 21.0755 31.9768 21.0252C31.9768 20.9748 32.0017 20.9245 32.0017 20.8741C32.0017 20.8237 32.0265 20.7734 32.0265 20.7482C32.0514 20.6223 32.0763 20.4964 32.126 20.3705C32.1757 20.2446 32.2006 20.0935 32.2503 19.9676C32.5238 19.0863 32.9465 18.2554 33.5184 17.4496C34.0903 16.6439 34.8363 16.0396 35.7315 15.6367C36.1293 15.4353 36.5271 15.3094 36.9499 15.2086C37.3726 15.1331 37.7953 15.0827 38.1931 15.0827C38.3423 15.0827 38.4666 15.0827 38.6158 15.1079C38.7402 15.1079 38.8894 15.1331 39.0137 15.1583C39.2872 15.2086 39.5359 15.2842 39.8094 15.3345C40.0332 15.4101 40.2569 15.5108 40.4807 15.6115ZM33.4687 20.6223H40.978C41.0775 19.4892 40.9532 18.482 40.5802 17.6259C40.2072 16.7698 39.3867 16.3417 38.0688 16.3166H37.9196C36.7012 16.3166 35.7066 16.7446 34.9358 17.6259C34.1898 18.482 33.6925 19.4389 33.4936 20.4712C33.4936 20.4964 33.4936 20.5468 33.4687 20.5719C33.4687 20.5971 33.4687 20.6223 33.4687 20.6223ZM68.6531 10.8525C70.9407 10.8525 72.6564 11.6331 73.8251 13.2194C74.9938 14.8058 75.3668 16.8705 74.9192 19.3885C74.4965 21.9317 73.4273 23.9964 71.7364 25.5576C70.0456 27.1439 68.0315 27.9245 65.7439 27.9245C63.4314 27.9245 61.6908 27.1439 60.5222 25.5576C59.3535 23.9712 58.9805 21.9065 59.4281 19.3633C59.8508 16.8957 60.8952 14.8309 62.5611 13.2194C64.2271 11.6583 66.2412 10.8525 68.6531 10.8525ZM68.2056 13.2446C66.7136 13.2446 65.4455 13.7986 64.3763 14.9065C63.3071 16.0144 62.6109 17.5 62.2876 19.3381C61.9644 21.2266 62.1633 22.7374 62.8595 23.8453C63.5557 24.9532 64.6747 25.5072 66.1915 25.5072C67.6585 25.5072 68.9267 24.9532 69.9959 23.8201C71.0651 22.6871 71.7613 21.2014 72.0597 19.3381C72.3829 17.4748 72.184 15.9892 71.4878 14.8813C70.7916 13.7986 69.6975 13.2446 68.2056 13.2446ZM90.7833 18.8345L89.3162 27.5719H87.501L87.4016 25.6331C85.8599 27.1943 84.0448 27.9748 81.9809 27.9748C79.7182 27.9748 78.0025 27.1943 76.8587 25.6331C75.7149 24.0719 75.3419 22.0324 75.7646 19.5396C76.1873 17.0719 77.2317 15.0324 78.9225 13.3705C80.6133 11.7338 82.6772 10.9029 85.0891 10.9029C86.8297 10.9029 88.2967 11.4065 89.4157 12.3885C90.5595 13.3705 91.0816 14.7302 90.9573 16.4425H88.2221C88.2221 15.4604 87.8989 14.705 87.2524 14.1259C86.6059 13.5719 85.7356 13.295 84.6415 13.295C83.075 13.295 81.782 13.8489 80.6879 14.9568C79.6187 16.0648 78.9225 17.5755 78.5993 19.464C78.276 21.4029 78.4749 22.8885 79.196 23.9964C79.9171 25.0791 81.0609 25.6331 82.6772 25.6331C84.0696 25.6331 85.2383 25.1799 86.1583 24.2986C87.0783 23.4173 87.6254 22.3094 87.8492 21.0252H83.4977L83.8707 18.8345H90.7833ZM94.1401 11.2302H101.774C103.365 11.2302 104.608 11.5827 105.504 12.313C106.399 13.0432 106.697 14.2014 106.448 15.7626C106.274 16.7446 105.901 17.5755 105.329 18.2806C104.733 18.9856 104.012 19.4892 103.116 19.7914C103.489 19.8921 103.813 20.018 104.061 20.1942C104.31 20.3705 104.509 20.5719 104.633 20.7986C104.758 21.0252 104.832 21.277 104.882 21.6295C104.932 21.9568 104.956 22.259 104.956 22.5108C104.956 22.7626 104.932 23.0899 104.882 23.518C104.882 23.6187 104.857 23.8202 104.832 24.1475C104.807 24.4496 104.782 24.6511 104.782 24.7518C104.782 24.8525 104.758 25.0288 104.733 25.2554C104.708 25.5072 104.708 25.6835 104.708 25.759C104.708 25.8597 104.708 26.0108 104.708 26.1871C104.708 26.3885 104.733 26.5144 104.733 26.6151C104.758 26.7158 104.758 26.8417 104.782 26.9676C104.807 27.0935 104.832 27.2194 104.882 27.295C104.932 27.3957 104.981 27.4712 105.031 27.5468H101.998C101.973 27.4964 101.923 27.4209 101.898 27.3201C101.873 27.2446 101.848 27.1439 101.848 27.0432C101.823 26.9425 101.823 26.8417 101.823 26.7662C101.823 26.6907 101.823 26.5648 101.823 26.4137C101.823 26.2626 101.823 26.1619 101.848 26.0612C101.848 25.9604 101.873 25.8345 101.873 25.6583C101.898 25.482 101.898 25.3309 101.898 25.2554C101.898 25.1547 101.923 25.0036 101.948 24.777C101.973 24.5504 101.998 24.3993 101.998 24.2986C102.147 22.964 102.022 22.0576 101.625 21.554C101.227 21.0504 100.381 20.7986 99.0385 20.7986H95.2839L94.1649 27.5468H91.3552L94.1401 11.2302ZM96.552 13.5719L95.7066 18.6835H99.4364C99.9834 18.6835 100.456 18.6583 100.829 18.5827C101.227 18.5324 101.625 18.4065 102.022 18.2554C102.445 18.1043 102.768 17.8273 103.042 17.4748C103.315 17.0971 103.489 16.6439 103.589 16.0648C103.663 15.536 103.663 15.1079 103.539 14.7806C103.415 14.4281 103.191 14.1763 102.893 14C102.569 13.8237 102.246 13.723 101.898 13.6475C101.55 13.5971 101.127 13.5468 100.655 13.5468H96.552V13.5719ZM116.519 11.205L120 27.5468H116.966L116.146 23.2158H109.78L107.468 27.5468H104.534L113.51 11.205H116.519V11.205ZM115.773 21.0755L114.53 14.2014L110.874 21.0755H115.773Z" fill="#B8B8B8"/>
</svg>
