<svg width="112" height="34" viewBox="0 0 112 34" fill="none" xmlns="http://www.w3.org/2000/svg">
<path fill-rule="evenodd" clip-rule="evenodd" d="M0 21.8167L11.0236 33.9958L28.0116 29.034L19.1463 20.6059L32.5139 0.99585L15.6187 18.1369L8.47078 19.7987L2.36718 16.38L5.10568 20.5822L0 21.8167ZM5.87153 21.7692L11.9751 31.1469L18.3108 21.8642L25.3427 28.5592L11.627 32.5239L2.59925 22.5527L5.87153 21.7692ZM13.971 19.8225L12.0216 21.8167L10.1185 20.7484L13.971 19.8225ZM54.4683 21.1282C54.0042 23.0275 53.0991 24.5232 51.753 25.6628C50.3838 26.8023 48.7592 27.3721 46.9026 27.3721C44.7675 27.3721 43.1894 26.6361 42.1451 25.1642C41.1007 23.6923 40.799 21.7455 41.1935 19.3002C41.4256 17.8282 41.9362 16.4987 42.6788 15.2879C43.4215 14.0771 44.4194 13.1038 45.6262 12.3678C46.8562 11.6318 48.2022 11.252 49.6875 11.252C51.2889 11.252 52.5885 11.703 53.6328 12.6052C54.6772 13.5074 55.1645 14.8131 55.1181 16.4987H52.4957C52.4724 15.5728 52.1707 14.8606 51.5906 14.3146C51.0104 13.7923 50.2445 13.5311 49.2698 13.5311C48.2719 13.5311 47.3668 13.816 46.5777 14.3858C45.7887 14.9556 45.1852 15.6678 44.7443 16.5225C44.3266 17.3771 44.0249 18.2793 43.8624 19.2764C43.7464 20.0361 43.7 20.7246 43.7696 21.3894C43.8392 22.0541 43.9785 22.6714 44.2337 23.2174C44.489 23.7635 44.8603 24.2146 45.3941 24.5469C45.9279 24.8793 46.5777 25.0455 47.3436 25.0455C49.5947 25.0455 51.08 23.7397 51.8458 21.1045H54.4683V21.1282ZM37.782 15.7153C38.6175 16.1664 39.1281 16.8548 39.3601 17.7095C39.5922 18.5879 39.6618 19.4901 39.569 20.4635C39.5458 20.6059 39.5226 20.7246 39.5226 20.8433C39.4994 20.962 39.4994 21.1045 39.4762 21.2232L39.4298 21.4606H31.0982C30.8429 22.98 31.0054 24.1196 31.5856 24.903C32.1658 25.6865 32.8852 26.0901 33.7207 26.1613C33.7439 26.1613 33.7903 26.1613 33.8135 26.1613C33.8367 26.1613 33.8831 26.1613 33.9063 26.1613C33.9296 26.1613 33.9296 26.1613 33.9528 26.1613C33.976 26.1613 33.976 26.1613 33.9992 26.1613C34.7186 26.1376 35.4148 25.9002 36.1111 25.4016C36.8073 24.9268 37.3179 24.2383 37.6428 23.3836H38.9192C38.5479 24.5944 37.8981 25.5203 36.9697 26.1613C36.0182 26.8023 34.9739 27.1347 33.8135 27.1584L33.5582 27.1822C31.8641 27.1584 30.7269 26.5412 30.1931 25.3066C29.6593 24.0721 29.4969 22.6714 29.7754 21.0807C29.7754 21.057 29.7986 21.0095 29.7986 20.962C29.7986 20.9146 29.8218 20.8671 29.845 20.8196C29.845 20.7721 29.8682 20.7246 29.8682 20.6772C29.8682 20.6297 29.8914 20.5822 29.8914 20.5584C29.9146 20.4397 29.9378 20.321 29.9843 20.2023C30.0307 20.0836 30.0539 19.9412 30.1003 19.8225C30.3556 18.9915 30.7501 18.2081 31.2839 17.4484C31.8177 16.6887 32.5139 16.1189 33.3494 15.739C33.7207 15.5491 34.092 15.4304 34.4865 15.3354C34.8811 15.2642 35.2756 15.2167 35.6469 15.2167C35.7862 15.2167 35.9022 15.2167 36.0414 15.2405C36.1575 15.2405 36.2967 15.2642 36.4128 15.2879C36.668 15.3354 36.9001 15.4066 37.1554 15.4541C37.3643 15.5254 37.5732 15.6203 37.782 15.7153ZM31.2375 20.4397H38.2462C38.339 19.3714 38.223 18.4217 37.8748 17.6146C37.5267 16.8074 36.7609 16.4038 35.5309 16.38H35.3916C34.2545 16.38 33.3262 16.7836 32.6067 17.6146C31.9105 18.4217 31.4463 19.3239 31.2607 20.2973C31.2607 20.321 31.2607 20.3685 31.2375 20.3923C31.2375 20.416 31.2375 20.4397 31.2375 20.4397ZM64.0763 11.2282C66.2114 11.2282 67.8127 11.9642 68.9034 13.4599C69.9942 14.9556 70.3423 16.9023 69.9246 19.2764C69.53 21.6743 68.5321 23.621 66.954 25.093C65.3759 26.5887 63.4961 27.3246 61.361 27.3246C59.2027 27.3246 57.5781 26.5887 56.4874 25.093C55.3966 23.5973 55.0485 21.6505 55.4662 19.2527C55.8608 16.9261 56.8355 14.9793 58.3904 13.4599C59.9453 11.9879 61.8251 11.2282 64.0763 11.2282ZM63.6585 13.4836C62.2661 13.4836 61.0825 14.0059 60.0845 15.0505C59.0866 16.0951 58.4368 17.4959 58.1351 19.2289C57.8334 21.0095 58.0191 22.434 58.6689 23.4786C59.3187 24.5232 60.363 25.0455 61.7787 25.0455C63.148 25.0455 64.3315 24.5232 65.3295 23.4548C66.3274 22.3865 66.9772 20.9858 67.2557 19.2289C67.5574 17.4721 67.3717 16.0714 66.7219 15.0268C66.0721 14.0059 65.051 13.4836 63.6585 13.4836ZM84.731 18.7541L83.3618 26.9923H81.6676L81.5748 25.1642C80.1359 26.6361 78.4418 27.3721 76.5155 27.3721C74.4037 27.3721 72.8023 26.6361 71.7348 25.1642C70.6672 23.6923 70.3191 21.7692 70.7136 19.4189C71.1082 17.0923 72.0829 15.1692 73.661 13.6023C75.2391 12.0592 77.1654 11.2757 79.4165 11.2757C81.041 11.2757 82.4103 11.7505 83.4546 12.6764C84.5222 13.6023 85.0095 14.8843 84.8935 16.4987H82.3407C82.3407 15.5728 82.039 14.8606 81.4356 14.3146C80.8322 13.7923 80.0199 13.5311 78.9988 13.5311C77.5367 13.5311 76.3299 14.0534 75.3088 15.098C74.3108 16.1426 73.661 17.5671 73.3593 19.3477C73.0576 21.1757 73.2433 22.5764 73.9163 23.621C74.5893 24.6419 75.6569 25.1642 77.1654 25.1642C78.465 25.1642 79.5557 24.7369 80.4144 23.9059C81.2731 23.075 81.7837 22.0304 81.9925 20.8196H77.9312L78.2793 18.7541H84.731ZM87.8641 11.5843H94.9888C96.4741 11.5843 97.6345 11.9167 98.47 12.6052C99.3054 13.2937 99.5839 14.3858 99.3519 15.8577C99.1894 16.7836 98.8413 17.5671 98.3075 18.2318C97.7505 18.8966 97.0775 19.3714 96.242 19.6563C96.5901 19.7512 96.8918 19.87 97.1239 20.0361C97.356 20.2023 97.5417 20.3923 97.6577 20.6059C97.7737 20.8196 97.8434 21.057 97.8898 21.3894C97.9362 21.698 97.9594 21.9829 97.9594 22.2203C97.9594 22.4577 97.9362 22.7664 97.8898 23.17C97.8898 23.2649 97.8666 23.4548 97.8434 23.7635C97.8202 24.0484 97.7969 24.2383 97.7969 24.3333C97.7969 24.4282 97.7737 24.5944 97.7505 24.8081C97.7273 25.0455 97.7273 25.2117 97.7273 25.2829C97.7273 25.3779 97.7273 25.5203 97.7273 25.6865C97.7273 25.8764 97.7505 25.9951 97.7505 26.0901C97.7737 26.1851 97.7737 26.3038 97.7969 26.4225C97.8201 26.5412 97.8434 26.6599 97.8898 26.7311C97.9362 26.8261 97.9826 26.8973 98.029 26.9685H95.1977C95.1745 26.921 95.1281 26.8498 95.1049 26.7548C95.0816 26.6836 95.0584 26.5887 95.0584 26.4937C95.0352 26.3987 95.0352 26.3038 95.0352 26.2325C95.0352 26.1613 95.0352 26.0426 95.0352 25.9002C95.0352 25.7577 95.0352 25.6628 95.0584 25.5678C95.0584 25.4728 95.0816 25.3541 95.0816 25.1879C95.1049 25.0218 95.1049 24.8793 95.1049 24.8081C95.1049 24.7131 95.1281 24.5707 95.1513 24.357C95.1745 24.1433 95.1977 24.0009 95.1977 23.9059C95.3369 22.6476 95.2209 21.793 94.8496 21.3182C94.4783 20.8433 93.6892 20.6059 92.436 20.6059H88.9316L87.8873 26.9685H85.2648L87.8641 11.5843ZM90.1152 13.7923L89.3262 18.6117H92.8073C93.3179 18.6117 93.7588 18.5879 94.1069 18.5167C94.4782 18.4692 94.8496 18.3505 95.2209 18.2081C95.6154 18.0656 95.9171 17.8045 96.1724 17.4721C96.4277 17.116 96.5901 16.6887 96.683 16.1426C96.7526 15.6441 96.7526 15.2405 96.6366 14.9318C96.5205 14.5994 96.3117 14.362 96.0332 14.1959C95.7315 14.0297 95.4298 13.9347 95.1049 13.8635C94.7799 13.816 94.3854 13.7685 93.9445 13.7685H90.1152V13.7923ZM108.751 11.5606L112 26.9685H109.169L108.403 22.8851H102.462L100.303 26.9685H97.5649L105.943 11.5606H108.751ZM108.055 20.8671L106.894 14.3858L103.483 20.8671H108.055Z" fill="#B8B8B8"/>
</svg>
