<svg width="109" height="32" viewBox="0 0 109 32" fill="none" xmlns="http://www.w3.org/2000/svg">
<path d="M41.2922 12.6088C41.3693 12.8601 41.273 13.0093 41.0611 13.0764L38.9839 13.6521C38.7335 13.7242 38.5986 13.6521 38.5216 13.4188C38.2005 12.4286 37.5028 11.8889 36.2325 11.8889C34.2708 11.8889 33.617 12.9683 33.617 14.4261V17.7743C33.617 19.2322 34.2708 20.3115 36.2325 20.3115C37.8484 20.3115 38.6939 19.6107 38.6939 18.0797V17.6482H36.5407C36.3673 17.6482 36.2517 17.5581 36.2517 17.3598V15.5065C36.2474 15.4691 36.2517 15.4314 36.2644 15.3958C36.2771 15.3601 36.2979 15.3275 36.3253 15.3001C36.3528 15.2727 36.3862 15.2512 36.4234 15.2371C36.4606 15.2229 36.5006 15.2164 36.5407 15.2181H41.2345C41.4271 15.2181 41.5427 15.3082 41.5427 15.4885V18.2599C41.5427 20.9053 39.4644 22.9038 36.2325 22.9038C32.4045 22.9038 30.6162 20.7801 30.6162 17.8645V14.336C30.6162 11.4203 32.4045 9.29663 36.2325 9.29663C39.3295 9.29663 40.7347 10.9527 41.2922 12.6088V12.6088ZM51.8313 15.92V22.4172C51.8336 22.4532 51.8278 22.4892 51.8142 22.5229C51.8005 22.5567 51.7794 22.5873 51.7522 22.6128C51.725 22.6384 51.6924 22.6582 51.6564 22.6711C51.6204 22.684 51.5819 22.6896 51.5434 22.6875H49.4266C49.3868 22.6915 49.3466 22.6873 49.3086 22.6754C49.2707 22.6634 49.236 22.6439 49.2068 22.6183C49.1776 22.5926 49.1547 22.5613 49.1397 22.5266C49.1246 22.4919 49.1177 22.4546 49.1195 22.4172V21.3559C48.8193 21.8296 48.3908 22.2209 47.8772 22.4903C47.3637 22.7596 46.7833 22.8974 46.1947 22.8898C44.1945 22.8898 42.9061 21.6833 42.9061 19.8299C42.9061 18.0277 44.1175 16.9503 47.0797 16.752C47.7204 16.7009 48.3644 16.6949 49.006 16.734V16.0141C49.006 15.0419 48.471 14.6644 47.5442 14.6644C46.6014 14.6644 46.3317 15.0239 46.0823 15.5826C45.986 15.7978 45.909 15.8339 45.6971 15.7828L43.5813 15.2822C43.3673 15.2281 43.3502 15.12 43.3887 14.9758C43.6777 13.554 45.1202 12.5107 47.6598 12.5107C50.3309 12.5007 51.8313 13.6882 51.8313 15.92V15.92ZM49.0039 19.3243V18.3841C48.4389 18.3652 47.8732 18.3832 47.3109 18.4382C46.2332 18.5643 45.6564 18.8697 45.6564 19.6397C45.6564 20.3406 46.1562 20.7201 46.9834 20.7201C47.9262 20.7261 48.6572 20.2394 49.0039 19.3223V19.3243ZM59.4712 12.5007C60.8175 12.5007 61.7026 13.2386 62.106 14.303C62.8947 13.2236 63.8568 12.5007 65.2031 12.5007C67.0695 12.5007 68.1279 13.8864 68.1279 15.956V22.4172C68.1279 22.5794 67.9738 22.6875 67.7811 22.6875H65.5691C65.3765 22.6875 65.2224 22.5794 65.2224 22.4172V16.4236C65.2224 15.5225 64.7996 14.9838 64.0452 14.9838C63.2564 14.9838 62.6796 15.5966 62.3907 16.5318V22.4172C62.3935 22.4519 62.3886 22.4867 62.3763 22.5195C62.364 22.5523 62.3445 22.5823 62.3192 22.6077C62.2939 22.6331 62.2632 22.6533 62.229 22.6671C62.1949 22.6808 62.1581 22.6878 62.121 22.6875H59.7356C59.5633 22.6875 59.4862 22.5794 59.4862 22.4172V16.4236C59.4862 15.5225 59.0582 14.9838 58.309 14.9838C57.5011 14.9838 56.9242 15.6326 56.6546 16.5498V22.4172C56.6586 22.4535 56.6539 22.4903 56.6408 22.5247C56.6278 22.5591 56.6067 22.5904 56.5792 22.6163C56.5516 22.6422 56.5183 22.662 56.4815 22.6743C56.4448 22.6866 56.4055 22.6911 56.3667 22.6875H54.0273C53.9883 22.6913 53.949 22.6869 53.9121 22.6747C53.8752 22.6624 53.8417 22.6426 53.814 22.6167C53.7864 22.5908 53.7652 22.5595 53.7521 22.525C53.739 22.4904 53.7343 22.4536 53.7383 22.4172V12.9683C53.7381 12.9336 53.7455 12.8992 53.7602 12.8673C53.7749 12.8354 53.7965 12.8068 53.8237 12.7831C53.8509 12.7595 53.883 12.7414 53.9181 12.73C53.9531 12.7186 53.9903 12.7142 54.0273 12.717H56.2746C56.3116 12.7142 56.3487 12.7186 56.3837 12.73C56.4187 12.7414 56.4508 12.7595 56.4779 12.7832C56.5049 12.8068 56.5265 12.8355 56.541 12.8674C56.5556 12.8992 56.5629 12.9336 56.5625 12.9683V14.1027C57.2014 13.2777 58.1239 12.5007 59.4712 12.5007V12.5007ZM80.2326 12.717C80.2904 12.9502 80.2133 13.1305 79.9832 13.1845L77.9435 13.7422C77.6931 13.8143 77.5593 13.7242 77.4822 13.5079C77.1933 12.6068 76.6935 11.8889 75.2702 11.8889C73.5194 11.8889 72.9608 12.9683 72.9608 14.4261V17.7743C72.9608 19.2322 73.5964 20.3115 75.2702 20.3115C76.7684 20.3115 77.3474 19.5195 77.5785 18.5303C77.6363 18.314 77.7926 18.2059 78.0398 18.296L80.0785 18.9078C80.3096 18.9799 80.3867 19.1421 80.3289 19.3754C79.8484 21.3198 78.348 22.9038 75.2317 22.9038C71.7301 22.9038 69.96 20.7801 69.96 17.8645V14.336C69.96 11.4203 71.7686 9.29663 75.2317 9.29663C78.2709 9.29663 79.6943 10.8085 80.2326 12.717V12.717ZM90.473 15.92V22.4172C90.4754 22.4532 90.4695 22.4892 90.4559 22.5229C90.4423 22.5567 90.4212 22.5873 90.394 22.6128C90.3668 22.6384 90.3341 22.6582 90.2981 22.6711C90.2621 22.684 90.2236 22.6896 90.1852 22.6875H88.0684C88.0286 22.6915 87.9883 22.6873 87.9504 22.6754C87.9124 22.6634 87.8777 22.6439 87.8485 22.6183C87.8194 22.5926 87.7965 22.5613 87.7814 22.5266C87.7664 22.4919 87.7595 22.4546 87.7612 22.4172V21.3559C87.4612 21.8298 87.0327 22.2212 86.5192 22.4905C86.0056 22.7599 85.4251 22.8976 84.8365 22.8898C82.8363 22.8898 81.5478 21.6833 81.5478 19.8299C81.5478 18.0277 82.7593 16.9503 85.7215 16.752C86.3622 16.7009 87.0061 16.6949 87.6478 16.734V16.0141C87.6478 15.0419 87.1127 14.6644 86.1859 14.6644C85.2431 14.6644 84.9734 15.0239 84.7241 15.5826C84.6278 15.7978 84.5507 15.8339 84.3388 15.7828L82.2231 15.2822C82.0091 15.2281 81.9919 15.12 82.0305 14.9758C82.3194 13.554 83.762 12.5107 86.3015 12.5107C88.9727 12.5007 90.473 13.6882 90.473 15.92ZM87.6457 19.3243V18.3841C87.0807 18.3652 86.5149 18.3832 85.9526 18.4382C84.875 18.5643 84.2982 18.8697 84.2982 19.6397C84.2982 20.3406 84.799 20.7201 85.6252 20.7201C86.568 20.7261 87.2989 20.2394 87.6457 19.3223V19.3243ZM98.7102 12.8962V14.8226C98.7102 15.0559 98.6138 15.146 98.3634 15.146H98.0552C96.5163 15.146 95.6131 15.7938 95.3049 16.8742V22.4172C95.3084 22.4509 95.3045 22.4848 95.2935 22.5171C95.2825 22.5493 95.2646 22.579 95.2408 22.6046C95.2171 22.6301 95.188 22.6507 95.1554 22.6654C95.1228 22.68 95.0874 22.6882 95.0512 22.6895H92.6305C92.5949 22.6878 92.56 22.6793 92.528 22.6647C92.496 22.65 92.4675 22.6294 92.4442 22.6041C92.4209 22.5789 92.4033 22.5495 92.3925 22.5177C92.3816 22.4859 92.3778 22.4524 92.3812 22.4192V12.9683C92.3792 12.9332 92.3854 12.8981 92.3994 12.8656C92.4135 12.833 92.435 12.8037 92.4624 12.7798C92.4899 12.7558 92.5226 12.7378 92.5583 12.7269C92.594 12.7161 92.6318 12.7127 92.669 12.717H94.8618C95.093 12.717 95.1508 12.8601 95.1508 13.0043V14.336C95.6505 13.4549 96.5934 12.5908 98.2478 12.5908C98.6331 12.5908 98.7102 12.6449 98.7102 12.8962V12.8962ZM102.49 18.5303V18.9078C102.49 19.9521 103.068 20.69 104.433 20.69C105.76 20.69 106.126 20.2214 106.472 19.6277C106.645 19.3573 106.723 19.3273 107.03 19.4474L108.55 20.1674C108.858 20.3115 108.877 20.4557 108.742 20.7261C108.088 22.1118 106.453 22.9038 104.414 22.9038C101.336 22.9038 99.7204 21.1937 99.7204 18.8537V16.5508C99.7204 14.2829 101.24 12.5017 104.395 12.5017C107.391 12.5017 108.858 14.2829 108.858 16.4967V18.0837C108.858 18.3541 108.761 18.5343 108.358 18.5343L102.49 18.5303ZM102.49 16.4276V16.7701H106.204V16.4276C106.204 15.4564 105.626 14.7005 104.356 14.7005C103.087 14.7005 102.49 15.4524 102.49 16.4236V16.4276Z" fill="#B8B8B8"/>
<path d="M13.5225 0.451904H0.397146C0.291905 0.452187 0.191056 0.49343 0.116639 0.566622C0.0422214 0.639813 0.000287202 0.739001 4.8009e-08 0.842509V19.6193C-0.000142848 21.2121 0.318705 22.7893 0.938337 24.2609C1.55797 25.7324 2.46625 27.0695 3.61131 28.1958C4.75638 29.3221 6.11579 30.2156 7.61194 30.8251C9.10809 31.4347 10.7117 31.7484 12.3311 31.7484H13.528C16.7976 31.747 19.9329 30.4685 22.2443 28.1939C24.5556 25.9194 25.8539 22.8352 25.8536 19.6193V12.5799C25.8536 10.9872 25.5347 9.41016 24.915 7.93872C24.2953 6.46728 23.387 5.1303 22.2419 4.00411C21.0969 2.87792 19.7375 1.98458 18.2415 1.37509C16.7454 0.765604 15.1419 0.451904 13.5225 0.451904V0.451904ZM21.8942 19.8216C21.8942 24.3879 18.4831 27.836 13.1776 27.836C6.89184 27.836 3.95514 24.1707 3.95514 19.1378V13.0497C3.95514 8.02 6.89293 4.35153 13.1776 4.35153C18.2622 4.35153 20.5678 7.2099 21.484 10.0672C21.6102 10.5027 21.4524 10.751 21.1053 10.8752L17.6942 11.8693C17.2829 11.9935 17.062 11.8693 16.9326 11.4659C16.395 9.75364 15.258 8.82475 13.1744 8.82475C9.95258 8.82475 8.87866 10.689 8.87866 13.2049V18.9837C8.87866 21.4996 9.95258 23.3638 13.1744 23.3638C15.8271 23.3638 17.2165 22.1524 17.2165 19.5113V18.7622H13.6825C13.3985 18.7622 13.2092 18.607 13.2092 18.2656V15.0659C13.2092 14.7544 13.3985 14.5682 13.6825 14.5682H21.3893C21.7048 14.5682 21.8942 14.7234 21.8942 15.0348V19.8216Z" fill="#B8B8B8"/>
</svg>
