<svg width="87" height="26" viewBox="0 0 87 26" fill="none" xmlns="http://www.w3.org/2000/svg">
<path d="M32.872 10.1319C32.9334 10.332 32.8567 10.4507 32.688 10.5041L31.0344 10.9624C30.835 11.0198 30.7277 10.9624 30.6663 10.7767C30.4108 9.98841 29.8553 9.55878 28.844 9.55878C27.2824 9.55878 26.7619 10.418 26.7619 11.5786V14.2441C26.7619 15.4046 27.2824 16.2639 28.844 16.2639C30.1305 16.2639 30.8035 15.7059 30.8035 14.4872V14.1436H29.0894C28.9514 14.1436 28.8594 14.0719 28.8594 13.9141V12.4387C28.8559 12.4089 28.8593 12.3789 28.8695 12.3505C28.8796 12.3222 28.8961 12.2962 28.918 12.2744C28.9398 12.2526 28.9665 12.2355 28.9961 12.2242C29.0256 12.2129 29.0575 12.2078 29.0894 12.2091H32.826C32.9794 12.2091 33.0714 12.2808 33.0714 12.4243V14.6306C33.0714 16.7365 31.4169 18.3275 28.844 18.3275C25.7966 18.3275 24.373 16.6369 24.373 14.3158V11.5069C24.373 9.18574 25.7966 7.49512 28.844 7.49512C31.3096 7.49512 32.4282 8.8135 32.872 10.1319ZM41.262 12.7678V17.9401C41.2638 17.9688 41.2592 17.9975 41.2483 18.0243C41.2375 18.0512 41.2207 18.0756 41.199 18.0959C41.1774 18.1162 41.1514 18.132 41.1227 18.1423C41.0941 18.1525 41.0634 18.157 41.0328 18.1554H39.3476C39.316 18.1585 39.2839 18.1552 39.2537 18.1457C39.2235 18.1361 39.1959 18.1206 39.1727 18.1002C39.1494 18.0798 39.1312 18.0549 39.1192 18.0273C39.1072 17.9997 39.1017 17.9699 39.1031 17.9401V17.0952C38.8641 17.4724 38.523 17.7839 38.1142 17.9983C37.7054 18.2127 37.2434 18.3224 36.7748 18.3164C35.1825 18.3164 34.1568 17.3559 34.1568 15.8805C34.1568 14.4457 35.1212 13.5881 37.4793 13.4302C37.9894 13.3895 38.502 13.3847 39.0128 13.4159V12.8428C39.0128 12.0688 38.5869 11.7683 37.8491 11.7683C37.0985 11.7683 36.8838 12.0545 36.6853 12.4992C36.6087 12.6706 36.5473 12.6993 36.3786 12.6586L34.6943 12.2601C34.5239 12.2171 34.5103 12.131 34.541 12.0162C34.771 10.8843 35.9194 10.0538 37.9411 10.0538C40.0675 10.0458 41.262 10.9911 41.262 12.7678ZM39.0111 15.4779V14.7295C38.5613 14.7144 38.111 14.7288 37.6634 14.7725C36.8054 14.873 36.3463 15.1161 36.3463 15.729C36.3463 16.287 36.7441 16.5891 37.4027 16.5891C38.1532 16.5939 38.7351 16.2065 39.0111 15.4764V15.4779ZM47.344 10.0458C48.4157 10.0458 49.1203 10.6332 49.4415 11.4806C50.0693 10.6213 50.8352 10.0458 51.907 10.0458C53.3928 10.0458 54.2353 11.149 54.2353 12.7965V17.9401C54.2353 18.0693 54.1127 18.1554 53.9593 18.1554H52.1984C52.045 18.1554 51.9223 18.0693 51.9223 17.9401V13.1688C51.9223 12.4514 51.5858 12.0226 50.9852 12.0226C50.3573 12.0226 49.8981 12.5104 49.6681 13.2549V17.9401C49.6703 17.9677 49.6664 17.9955 49.6566 18.0216C49.6468 18.0477 49.6314 18.0716 49.6112 18.0918C49.591 18.112 49.5666 18.1281 49.5394 18.1391C49.5123 18.15 49.483 18.1556 49.4534 18.1554H47.5544C47.4172 18.1554 47.3559 18.0693 47.3559 17.9401V13.1688C47.3559 12.4514 47.0151 12.0226 46.4188 12.0226C45.7756 12.0226 45.3164 12.5391 45.1017 13.2692V17.9401C45.1049 17.9691 45.1011 17.9983 45.0907 18.0257C45.0804 18.0531 45.0636 18.078 45.0417 18.0986C45.0197 18.1192 44.9932 18.135 44.9639 18.1448C44.9346 18.1546 44.9034 18.1582 44.8725 18.1554H43.0101C42.9792 18.1584 42.9478 18.1549 42.9185 18.1451C42.8891 18.1353 42.8624 18.1196 42.8404 18.099C42.8184 18.0784 42.8015 18.0534 42.7911 18.0259C42.7807 17.9985 42.7769 17.9691 42.7801 17.9401V10.418C42.7799 10.3904 42.7858 10.363 42.7975 10.3377C42.8092 10.3123 42.8265 10.2895 42.8481 10.2707C42.8697 10.2518 42.8953 10.2374 42.9232 10.2284C42.9511 10.2193 42.9807 10.2158 43.0101 10.218H44.7992C44.8286 10.2157 44.8582 10.2193 44.8861 10.2284C44.9139 10.2374 44.9394 10.2519 44.961 10.2707C44.9826 10.2895 44.9997 10.3123 45.0113 10.3377C45.0229 10.3631 45.0287 10.3904 45.0284 10.418V11.3211C45.537 10.6643 46.2714 10.0458 47.344 10.0458ZM63.8717 10.218C63.9177 10.4037 63.8563 10.5472 63.6732 10.5902L62.0494 11.0342C61.85 11.0916 61.7435 11.0198 61.6822 10.8477C61.4522 10.1303 61.0543 9.55878 59.9212 9.55878C58.5274 9.55878 58.0827 10.418 58.0827 11.5786V14.2441C58.0827 15.4046 58.5888 16.2639 59.9212 16.2639C61.1139 16.2639 61.5748 15.6334 61.7589 14.8459C61.8049 14.6737 61.9292 14.5876 62.126 14.6593L63.749 15.1464C63.933 15.2037 63.9944 15.3329 63.9483 15.5186C63.5658 17.0665 62.3714 18.3275 59.8905 18.3275C57.103 18.3275 55.6939 16.6369 55.6939 14.3158V11.5069C55.6939 9.18574 57.1337 7.49512 59.8905 7.49512C62.3101 7.49512 63.4431 8.69872 63.8717 10.218ZM72.0239 12.7678V17.9401C72.0258 17.9688 72.0211 17.9975 72.0103 18.0243C71.9994 18.0512 71.9826 18.0756 71.961 18.0959C71.9393 18.1162 71.9133 18.132 71.8847 18.1423C71.856 18.1525 71.8254 18.157 71.7947 18.1554H70.1096C70.0779 18.1585 70.0459 18.1552 70.0157 18.1457C69.9855 18.1361 69.9578 18.1206 69.9346 18.1002C69.9114 18.0798 69.8932 18.0549 69.8812 18.0273C69.8692 17.9997 69.8637 17.9699 69.8651 17.9401V17.0952C69.6262 17.4725 69.2851 17.7841 68.8763 17.9985C68.4675 18.213 68.0054 18.3226 67.5367 18.3164C65.9444 18.3164 64.9187 17.3559 64.9187 15.8805C64.9187 14.4457 65.8831 13.5881 68.2413 13.4302C68.7514 13.3895 69.264 13.3847 69.7748 13.4159V12.8428C69.7748 12.0688 69.3488 11.7683 68.611 11.7683C67.8605 11.7683 67.6458 12.0545 67.4473 12.4992C67.3706 12.6706 67.3093 12.6993 67.1406 12.6586L65.4563 12.2601C65.2859 12.2171 65.2723 12.131 65.3029 12.0162C65.533 10.8843 66.6814 10.0538 68.703 10.0538C70.8295 10.0458 72.0239 10.9911 72.0239 12.7678ZM69.7731 15.4779V14.7295C69.3233 14.7144 68.8729 14.7288 68.4253 14.7725C67.5674 14.873 67.1082 15.1161 67.1082 15.729C67.1082 16.287 67.5069 16.5891 68.1646 16.5891C68.9152 16.5939 69.4971 16.2065 69.7731 15.4764V15.4779ZM78.5813 10.3606V11.8942C78.5813 12.08 78.5046 12.1517 78.3053 12.1517H78.0599C76.8348 12.1517 76.1158 12.6674 75.8704 13.5275V17.9401C75.8732 17.9669 75.8702 17.994 75.8614 18.0196C75.8526 18.0453 75.8384 18.069 75.8195 18.0893C75.8005 18.1096 75.7774 18.1261 75.7515 18.1377C75.7255 18.1493 75.6973 18.1559 75.6685 18.157H73.7414C73.7131 18.1556 73.6853 18.1488 73.6598 18.1371C73.6344 18.1255 73.6117 18.1091 73.5931 18.089C73.5746 18.0689 73.5606 18.0455 73.5519 18.0202C73.5433 17.9949 73.5402 17.9682 73.5429 17.9417V10.418C73.5413 10.3901 73.5463 10.3622 73.5575 10.3363C73.5687 10.3104 73.5858 10.287 73.6076 10.268C73.6295 10.2489 73.6555 10.2345 73.6839 10.2259C73.7123 10.2173 73.7424 10.2145 73.7721 10.218H75.5177C75.7017 10.218 75.7478 10.332 75.7478 10.4467V11.5069C76.1456 10.8054 76.8962 10.1175 78.2133 10.1175C78.52 10.1175 78.5813 10.1606 78.5813 10.3606ZM81.5904 14.8459V15.1464C81.5904 15.9777 82.0504 16.5652 83.1375 16.5652C84.1939 16.5652 84.4853 16.1921 84.7605 15.7195C84.8985 15.5042 84.9598 15.4803 85.2043 15.576L86.4149 16.1491C86.6594 16.2639 86.6748 16.3787 86.5674 16.5939C86.0469 17.697 84.7451 18.3275 83.1222 18.3275C80.672 18.3275 79.3855 16.9661 79.3855 15.1033V13.27C79.3855 11.4646 80.5953 10.0466 83.1068 10.0466C85.4923 10.0466 86.6594 11.4646 86.6594 13.227V14.4904C86.6594 14.7056 86.5828 14.849 86.2616 14.849L81.5904 14.8459ZM81.5904 13.172V13.4446H84.5466V13.172C84.5466 12.3988 84.0866 11.797 83.0762 11.797C82.0658 11.797 81.5904 12.3956 81.5904 13.1688V13.172Z" fill="#B8B8B8"/>
<path d="M10.765 0.454102H0.31616C0.23238 0.454326 0.152096 0.48716 0.0928537 0.545426C0.0336117 0.603692 0.000228636 0.682654 3.8219e-08 0.765054V15.7129C-0.000113718 16.9809 0.253715 18.2365 0.746992 19.408C1.24027 20.5794 1.96333 21.6439 2.8749 22.5405C3.78646 23.4371 4.86867 24.1484 6.05972 24.6336C7.25078 25.1189 8.52735 25.3687 9.81655 25.3687H10.7694C13.3723 25.3675 15.8682 24.3497 17.7082 22.539C19.5483 20.7283 20.5818 18.273 20.5816 15.7129V10.109C20.5816 8.84107 20.3277 7.58559 19.8343 6.41421C19.341 5.24283 18.6179 4.17848 17.7064 3.28195C16.7948 2.38541 15.7127 1.67424 14.5217 1.18903C13.3307 0.703832 12.0542 0.454102 10.765 0.454102V0.454102ZM17.4295 15.8739C17.4295 19.5091 14.714 22.254 10.4904 22.254C5.48646 22.254 3.14861 19.3362 3.14861 15.3296V10.483C3.14861 6.47892 5.48733 3.55852 10.4904 3.55852C14.5382 3.55852 16.3736 5.83401 17.103 8.10865C17.2034 8.45538 17.0778 8.65303 16.8015 8.75185L14.086 9.54329C13.7586 9.64211 13.5828 9.54329 13.4797 9.22211C13.0518 7.85903 12.1466 7.11956 10.4879 7.11956C7.92306 7.11956 7.06813 8.60362 7.06813 10.6065V15.2069C7.06813 17.2098 7.92306 18.6938 10.4879 18.6938C12.5996 18.6938 13.7058 17.7294 13.7058 15.6269V15.0305H10.8924C10.6663 15.0305 10.5156 14.907 10.5156 14.6352V12.088C10.5156 11.8401 10.6663 11.6918 10.8924 11.6918H17.0276C17.2788 11.6918 17.4295 11.8154 17.4295 12.0633V15.8739Z" fill="#B8B8B8"/>
</svg>
