<svg width="36" height="36" viewBox="0 0 36 36" fill="none" xmlns="http://www.w3.org/2000/svg">
<path fill-rule="evenodd" clip-rule="evenodd" d="M18 36C27.9411 36 36 27.9411 36 18C36 8.05887 27.9411 0 18 0C8.05887 0 0 8.05887 0 18C0 27.9411 8.05887 36 18 36ZM27.1997 15.7859C27.1997 15.0074 27.8264 14.3748 28.5977 14.3748C29.3689 14.3748 29.9956 15.0074 30 15.7859C30 16.3035 29.7195 16.7547 29.3032 16.998V20.391C29.3032 21.5279 28.3873 22.448 27.2654 22.448H26.7965V25.6198C26.7965 26.3807 26.183 27 25.4293 27H10.3673C9.61352 27 9 26.3807 9 25.6198V12.2558C9 11.495 9.61352 10.8756 10.3673 10.8756H11.4672C11.4672 9.8405 14.3464 9 17.8917 9C21.437 9 24.3118 9.8405 24.3118 10.8756H25.4205C26.1742 10.8756 26.7878 11.495 26.7878 12.2558V21.0369H27.2567C27.6116 21.0369 27.8965 20.7493 27.8965 20.391V16.998C27.4802 16.7547 27.1997 16.3079 27.1997 15.7859ZM21.8226 12.7513C21.5553 12.7513 21.3406 12.9681 21.3406 13.2379H21.3362V19.4178C21.3362 19.6876 21.5509 19.9044 21.8182 19.9044H24.9954C25.2627 19.9044 25.4775 19.6876 25.4775 19.4178V13.2379C25.4775 12.9681 25.2627 12.7513 24.9954 12.7513H21.8226ZM16.3097 12.7513C16.0424 12.7513 15.8276 12.9681 15.8276 13.2379V19.4178C15.8276 19.6876 16.0424 19.9044 16.3097 19.9044H19.4825C19.7498 19.9044 19.9645 19.6876 19.9645 19.4178V13.2379C19.9645 12.9681 19.7498 12.7513 19.4825 12.7513H16.3097ZM10.3191 13.2379V19.4178C10.3191 19.6876 10.5338 19.9044 10.8011 19.9044H13.9739C14.2412 19.9044 14.456 19.6876 14.456 19.4178V13.2379C14.456 12.9681 14.2412 12.7513 13.9739 12.7513H10.8011C10.5338 12.7513 10.3191 12.9681 10.3191 13.2379Z" fill="white"/>
</svg>
