<svg width="36" height="36" viewBox="0 0 36 36" fill="none" xmlns="http://www.w3.org/2000/svg">
<path fill-rule="evenodd" clip-rule="evenodd" d="M18 36C27.9411 36 36 27.9411 36 18C36 8.05887 27.9411 0 18 0C8.05887 0 0 8.05887 0 18C0 27.9411 8.05887 36 18 36ZM7.00605 17.635C7.19568 11.8701 11.8701 7.1862 17.635 7.00605C23.9876 6.79745 29.2025 12.0124 28.994 18.365C28.8138 24.1299 24.1299 28.8043 18.365 28.994C12.0123 29.2025 6.79745 23.9877 7.00605 17.635ZM9.75572 12.0787L8.88341 13.5484L10.3531 14.4207L11.2254 12.951L9.75572 12.0787ZM18.8865 7.84991H17.1798V9.55661H18.8865V7.84991ZM26.4434 12.2589L24.9548 13.1027L25.7986 14.5819L27.2873 13.738L26.4434 12.2589ZM26.3106 23.9213L27.183 22.4516L25.7133 21.5793L24.841 23.049L26.3106 23.9213ZM17.1798 28.1406H18.8865V26.4339H17.1798V28.1406ZM18.365 25.6754C22.3094 25.4952 25.4952 22.2999 25.6754 18.365C25.884 13.8423 22.1577 10.116 17.635 10.3246C13.6906 10.5048 10.5048 13.7001 10.3246 17.6444C10.116 22.1577 13.8423 25.884 18.365 25.6754ZM9.62298 23.7411L11.1116 22.8973L10.2677 21.4086L8.77911 22.2525L9.62298 23.7411ZM23.5136 17.635C23.7222 20.963 20.9725 23.7222 17.635 23.5136C14.8853 23.3334 12.6571 21.1147 12.4769 18.3556C12.2684 15.0275 15.018 12.2684 18.3556 12.477C21.1147 12.6571 23.3429 14.8853 23.5136 17.635Z" fill="white"/>
</svg>
