<svg width="11" height="11" viewBox="0 0 11 11" fill="none" xmlns="http://www.w3.org/2000/svg">
<path opacity="0.6" d="M0.4 5.5C0.4 4.31791 0.400595 3.46482 0.474975 2.80505C0.548446 2.15334 0.689648 1.73994 0.937281 1.41722C1.0756 1.23696 1.23696 1.0756 1.41722 0.937281C1.73994 0.689648 2.15334 0.548446 2.80505 0.474975C3.46482 0.400595 4.31791 0.4 5.5 0.4C6.68209 0.4 7.53518 0.400595 8.19495 0.474975C8.84666 0.548446 9.26006 0.689648 9.58278 0.937281C9.76304 1.0756 9.9244 1.23696 10.0627 1.41722C10.3104 1.73994 10.4516 2.15334 10.525 2.80505C10.5994 3.46482 10.6 4.31791 10.6 5.5C10.6 6.68209 10.5994 7.53518 10.525 8.19495C10.4516 8.84666 10.3104 9.26006 10.0627 9.58278C9.9244 9.76304 9.76304 9.9244 9.58278 10.0627C9.26006 10.3104 8.84666 10.4516 8.19495 10.525C7.53518 10.5994 6.68209 10.6 5.5 10.6C4.31791 10.6 3.46482 10.5994 2.80505 10.525C2.15334 10.4516 1.73994 10.3104 1.41722 10.0627C1.23696 9.9244 1.0756 9.76304 0.937281 9.58278C0.689648 9.26006 0.548446 8.84666 0.474975 8.19495C0.400595 7.53518 0.4 6.68209 0.4 5.5Z" stroke="#FFBF60" stroke-width="0.8"/>
<path opacity="0.6" d="M5.5 2V6.5L2 5" stroke="#FFBF60" stroke-width="0.8" stroke-linecap="round" stroke-linejoin="round"/>
</svg>
