<svg width="38" height="47" viewBox="0 0 38 47" fill="none" xmlns="http://www.w3.org/2000/svg">
<path fill-rule="evenodd" clip-rule="evenodd" d="M38.0001 12.9207V16.9465C38.0001 17.8025 37.307 18.4964 36.4523 18.4964H1.9033C1.04842 18.4964 0.355469 17.8024 0.355469 16.9465V12.9207C0.355469 12.0646 1.04851 11.3707 1.9033 11.3707H7.51891C7.02992 10.2624 7.00619 8.99468 7.47838 7.85294C8.0509 6.46923 9.2684 5.46855 10.7354 5.17638C11.0143 5.12085 11.2946 5.09272 11.5731 5.09041C11.5754 4.81167 11.6035 4.53098 11.6589 4.25171C11.9507 2.78265 12.95 1.5634 14.3318 0.990175C15.7136 0.416949 17.2813 0.571543 18.5249 1.40366C18.7613 1.5618 18.9793 1.74041 19.1779 1.93585C19.3764 1.74041 19.5944 1.5618 19.8308 1.40366C21.0745 0.571543 22.6421 0.417044 24.024 0.990092C25.4059 1.5634 26.4052 2.78265 26.6969 4.25171C26.7523 4.53089 26.7804 4.81159 26.7828 5.09032C27.0612 5.09263 27.3415 5.12075 27.6204 5.17628C29.0874 5.46855 30.3051 6.46914 30.8774 7.85294C31.3496 8.99468 31.3258 10.2624 30.8368 11.3707H36.4523C37.3071 11.3707 38.0001 12.0647 38.0001 12.9207ZM28.5357 9.29379C28.3686 8.3604 27.623 7.74419 26.6777 7.757C26.2312 7.76305 25.8071 7.95519 25.4914 8.2714L22.3964 11.3707H26.7485C27.5122 11.3707 28.1734 10.9159 28.4597 10.1515C28.5619 9.87866 28.5871 9.58062 28.5357 9.29379ZM23.0035 3.4567C22.3051 3.16721 21.5297 3.32758 20.9741 3.90889C20.6695 4.2275 20.5109 4.65886 20.5109 5.09993V9.48264L23.5884 6.40097C24.0214 5.96746 24.2013 5.37378 24.0819 4.77243C23.9623 4.1709 23.5692 3.69139 23.0035 3.4567ZM15.352 3.4568C14.7862 3.69139 14.3932 4.17099 14.2738 4.77243C14.1543 5.37386 14.3341 5.96746 14.7672 6.40105L17.8447 9.48273V5.09958C17.8447 4.65851 17.6859 4.22705 17.3812 3.90854C16.8254 3.32758 16.0499 3.16711 15.352 3.4568ZM10.181 8.45037C9.69437 9.11651 9.68032 9.92735 10.1081 10.5684C10.4484 11.0782 10.9947 11.3707 11.6069 11.3706H15.9591L12.8817 8.28893C12.3365 7.74321 11.5381 7.59886 10.7898 7.94905C10.5485 8.06199 10.3382 8.23509 10.181 8.45037Z" fill="white"/>
<path d="M34.9257 20.8244H3.42984C2.58047 20.8244 1.89198 21.534 1.89198 22.409V44.8478C1.89198 45.723 2.58055 46.4324 3.42984 46.4324H34.9257C35.7751 46.4324 36.4636 45.7229 36.4636 44.8478V22.409C36.4636 21.5339 35.775 20.8244 34.9257 20.8244Z" fill="white"/>
<path d="M10.5225 38H8.69043V32.1348C8.69043 31.4967 8.72233 30.763 8.78613 29.9336C8.75423 29.9792 8.63574 30.1182 8.43066 30.3506C8.23014 30.583 7.83594 31 7.24805 31.6016L6.20898 30.4668L8.86816 28.0059H10.5225V38ZM17.9941 33.0029C17.9941 34.8122 17.7754 36.1201 17.3379 36.9268C16.9049 37.7334 16.2054 38.1367 15.2393 38.1367C14.2731 38.1367 13.5781 37.7311 13.1543 36.9199C12.735 36.1087 12.5254 34.8031 12.5254 33.0029C12.5254 31.1982 12.7464 29.888 13.1885 29.0723C13.6305 28.2565 14.3232 27.8486 15.2666 27.8486C16.2282 27.8486 16.9232 28.2474 17.3516 29.0449C17.7799 29.8424 17.9941 31.1618 17.9941 33.0029ZM14.3848 33.0029C14.3848 34.402 14.444 35.3454 14.5625 35.833C14.6855 36.3161 14.9157 36.5576 15.2529 36.5576C15.4808 36.5576 15.6562 36.4528 15.7793 36.2432C15.9069 36.0335 15.998 35.6872 16.0527 35.2041C16.1074 34.7165 16.1348 33.9827 16.1348 33.0029C16.1348 31.6266 16.071 30.6878 15.9434 30.1865C15.8158 29.6852 15.5856 29.4346 15.2529 29.4346C14.9157 29.4346 14.6855 29.6852 14.5625 30.1865C14.444 30.6833 14.3848 31.6221 14.3848 33.0029ZM24.4746 33.0029C24.4746 34.8122 24.2559 36.1201 23.8184 36.9268C23.3854 37.7334 22.6859 38.1367 21.7197 38.1367C20.7536 38.1367 20.0586 37.7311 19.6348 36.9199C19.2155 36.1087 19.0059 34.8031 19.0059 33.0029C19.0059 31.1982 19.2269 29.888 19.6689 29.0723C20.111 28.2565 20.8037 27.8486 21.7471 27.8486C22.7087 27.8486 23.4036 28.2474 23.832 29.0449C24.2604 29.8424 24.4746 31.1618 24.4746 33.0029ZM20.8652 33.0029C20.8652 34.402 20.9245 35.3454 21.043 35.833C21.166 36.3161 21.3962 36.5576 21.7334 36.5576C21.9613 36.5576 22.1367 36.4528 22.2598 36.2432C22.3874 36.0335 22.4785 35.6872 22.5332 35.2041C22.5879 34.7165 22.6152 33.9827 22.6152 33.0029C22.6152 31.6266 22.5514 30.6878 22.4238 30.1865C22.2962 29.6852 22.0661 29.4346 21.7334 29.4346C21.3962 29.4346 21.166 29.6852 21.043 30.1865C20.9245 30.6833 20.8652 31.6221 20.8652 33.0029ZM29.0684 27.8623C29.7839 27.8623 30.4287 28.0264 31.0029 28.3545L30.4287 29.7969C30.0094 29.5553 29.5924 29.4346 29.1777 29.4346C28.6582 29.4346 28.3984 29.8584 28.3984 30.7061V32.1621H30.0459V33.5498H28.3984V34.459C28.3984 34.8737 28.3278 35.236 28.1865 35.5459C28.0498 35.8512 27.8219 36.1178 27.5029 36.3457H31.1533V38H25.5V36.4346C25.9193 36.2113 26.2018 35.9652 26.3477 35.6963C26.498 35.4229 26.5732 35.0651 26.5732 34.623V33.5498H25.5137V32.1621H26.5732V30.665C26.5732 29.7581 26.7852 29.0654 27.209 28.5869C27.6374 28.1038 28.2572 27.8623 29.0684 27.8623Z" fill="#0B112A"/>
</svg>
