<svg width="22" height="20" viewBox="0 0 22 20" fill="none" xmlns="http://www.w3.org/2000/svg">
<path d="M11.7024 2.19583C13.9437 -0.0652771 17.5758 -0.0652771 19.8172 2.19583M11.7024 2.19583H19.8172M11.7024 2.19583L11.3473 1.84383L19.8172 2.19583M11.7024 2.19583L11.5682 2.33122C11.2552 2.64697 10.7448 2.64697 10.4318 2.33122L10.2976 2.19583C8.05631 -0.0652744 4.42419 -0.0652789 2.18283 2.19583C-0.0609486 4.45942 -0.0609411 8.13121 2.18283 10.3947L1.82773 10.7467L2.18283 10.3947L11 19.2898L19.8172 10.3947L20.1723 10.7467L19.8172 10.3947C22.0609 8.13116 22.0609 4.45942 19.8172 2.19583" stroke="#FF9900"/>
</svg>
