<svg width="22" height="20" viewBox="0 0 22 20" fill="none" xmlns="http://www.w3.org/2000/svg">
<path d="M19.8172 2.19583C17.5758 -0.0652771 13.9437 -0.0652772 11.7024 2.19583L11.5682 2.33122C11.2552 2.64697 10.7448 2.64697 10.4318 2.33122L10.2976 2.19583C8.05631 -0.0652744 4.42419 -0.0652789 2.18283 2.19583L1.83112 1.8472L19.8172 2.19583ZM19.8172 2.19583C22.0609 4.45942 22.0609 8.13116 19.8172 10.3947L20.1723 10.7467M19.8172 2.19583L20.1723 10.7467M20.1723 10.7467L19.8172 10.3947L11 19.2898M20.1723 10.7467L11 19.2898M11 19.2898L2.18283 10.3947L1.82773 10.7467L11 19.2898Z" stroke="#FF9900"/>
</svg>
