<svg width="15" height="10" viewBox="0 0 15 10" fill="none" xmlns="http://www.w3.org/2000/svg">
<path d="M13.5603 3.0824C13.3706 3.19601 12.7986 3.53343 11.8444 4.09449C10.8901 4.65556 10.1591 5.08756 9.65127 5.39053C9.59548 5.42374 9.47694 5.49593 9.29561 5.6072C9.11425 5.71854 8.96355 5.80852 8.84364 5.87716C8.72364 5.94577 8.57857 6.02273 8.40829 6.10793C8.23807 6.19306 8.07761 6.25709 7.92695 6.29948C7.77625 6.34222 7.63675 6.36339 7.50843 6.36339H7.49157C7.36324 6.36339 7.22369 6.3422 7.07299 6.29948C6.92239 6.25709 6.76178 6.19299 6.59171 6.10793C6.42154 6.02263 6.27648 5.94574 6.15648 5.87716C6.03648 5.80852 5.8859 5.71854 5.70448 5.6072C5.52317 5.49583 5.40449 5.42374 5.3487 5.39053C4.8354 5.08756 3.52947 4.31811 1.43134 3.08225C1.024 2.84088 0.683671 2.54962 0.410278 2.20869C0.136681 1.86791 2.79375e-05 1.51042 2.79375e-05 1.1364C2.79375e-05 0.823854 0.132634 0.556309 0.39773 0.333791C0.662796 0.111222 0.976736 0 1.33934 0H13.6608C14.0904 0 14.4211 0.123088 14.6527 0.369264C14.8842 0.61549 15 0.92326 15 1.29255C15 1.59084 14.8465 1.91408 14.5396 2.26208C14.2328 2.6101 13.9062 2.88356 13.5603 3.0824Z" fill="#828282"/>
<path d="M0.837183 3.84226C2.66734 4.89331 4.05703 5.71015 5.00556 6.2926C5.32363 6.49139 5.58166 6.64657 5.77983 6.75776C5.97799 6.86904 6.24153 6.98267 6.57083 7.09862C6.90002 7.21474 7.2068 7.27263 7.49145 7.27263H7.5084C7.79299 7.27263 8.09995 7.21474 8.42914 7.09862C8.75832 6.98267 9.02204 6.86904 9.22014 6.75776C9.41819 6.64657 9.67631 6.49139 9.99435 6.2926C10.7477 5.82388 12.1344 5.00699 14.1545 3.84226C14.4727 3.66245 14.7545 3.45635 15 3.22438V8.86347C15 9.17617 14.8689 9.44357 14.6066 9.66611C14.3444 9.88873 14.029 10 13.6607 10H1.33923C0.970991 10 0.655673 9.88873 0.393392 9.66611C0.131023 9.44349 0 9.1762 0 8.86347V3.22438C0.239999 3.45155 0.518933 3.65765 0.837183 3.84226Z" fill="#828282"/>
</svg>
