<svg width="13" height="12" viewBox="0 0 13 12" fill="none" xmlns="http://www.w3.org/2000/svg">
<path d="M6.37783 1.07578C6.40664 1.00651 6.50477 1.00651 6.53358 1.07578L7.7878 4.09127C7.88841 4.33319 8.11592 4.49848 8.37709 4.51942L11.6326 4.78041C11.7074 4.7864 11.7377 4.87973 11.6807 4.92854L9.20037 7.05321C9.00138 7.22366 8.91448 7.49111 8.97528 7.74596L9.73306 10.9228C9.75047 10.9957 9.67108 11.0534 9.60705 11.0143L6.81991 9.31193C6.59631 9.17536 6.3151 9.17536 6.0915 9.31193L3.30436 11.0143C3.24033 11.0534 3.16094 10.9957 3.17835 10.9228L3.93613 7.74596C3.99692 7.49111 3.91003 7.22366 3.71104 7.05321L1.23071 4.92854C1.17373 4.87973 1.20406 4.7864 1.27884 4.78041L4.53432 4.51942C4.79549 4.49848 5.02299 4.33319 5.12361 4.09127L6.37783 1.07578Z" fill="#FFBF60" stroke="#FF9900" stroke-width="0.614362"/>
</svg>
