<svg width="36" height="36" viewBox="0 0 36 36" fill="none" xmlns="http://www.w3.org/2000/svg">
<path fill-rule="evenodd" clip-rule="evenodd" d="M18 36C27.9411 36 36 27.9411 36 18C36 8.05887 27.9411 0 18 0C8.05887 0 0 8.05887 0 18C0 27.9411 8.05887 36 18 36ZM21.4708 13.4023C21.4708 15.8349 19.8457 17.5474 17.8451 17.5474C15.8446 17.5474 14.2194 15.8349 14.2194 13.4023C14.2194 10.9697 14.7543 9 17.8451 9C20.936 9 21.4708 10.9697 21.4708 13.4023ZM24.68 24.0891C24.6183 20.0571 24.1091 18.7714 20.4063 17.9949C20.0874 17.928 19.7583 17.9949 19.4909 18.1749C19.1771 18.3909 18.6423 18.6377 17.8451 18.6377C17.0429 18.6377 16.508 18.3857 16.1994 18.1749C15.932 17.9897 15.6029 17.928 15.284 17.9949C11.6223 18.7612 11.0874 20.0263 11.0103 23.9503C11.0051 24.2846 11 24.3051 11 24.264V24.3823C11 24.6343 11.0977 24.8812 11.2777 25.056C11.864 25.6423 13.5457 26.7429 17.8451 26.7429C22.124 26.7429 23.8057 25.6526 24.4023 25.0663C24.5874 24.8863 24.6903 24.6395 24.6903 24.3823C24.6903 24.408 24.6851 24.3617 24.68 24.0891Z" fill="white"/>
</svg>
