<svg width="160" height="114" viewBox="0 0 160 114" fill="none" xmlns="http://www.w3.org/2000/svg">
<path fill-rule="evenodd" clip-rule="evenodd" d="M24.0388 24.1135H55.188C55.545 24.1135 55.8127 24.3785 55.8127 24.7318V67.5701C55.8127 67.9235 55.545 68.1884 55.188 68.1884H24.0388C23.6818 68.1884 23.4141 67.9235 23.4141 67.5701V24.7318C23.4141 24.3785 23.7116 24.1135 24.0388 24.1135ZM29.1262 57.0299C30.0783 57.9131 31.5658 58.7375 33.6186 59.5324C35.2846 60.1507 36.9209 60.4746 38.5275 60.4746V64.9792H42.0678V60.2685C43.7636 59.8563 45.1917 59.2675 46.4115 58.502C47.6015 57.707 48.5238 56.706 49.1485 55.4694C49.7733 54.2328 50.1006 52.7607 50.1006 51.0531C50.1006 49.4043 49.7436 48.0794 48.9998 47.0195C48.256 45.989 47.3337 45.1647 46.2032 44.5758C45.0727 43.987 43.6149 43.3981 41.8001 42.7799C40.6398 42.3677 39.7473 41.9849 39.063 41.5727C38.4085 41.1605 38.0515 40.5717 38.0515 39.8356C38.0515 39.129 38.349 38.5991 38.9738 38.2458C39.5985 37.8925 40.372 37.7158 41.2943 37.7158C42.9901 37.7158 44.6264 38.3341 46.1735 39.5707L48.9998 34.0944C47.1255 32.8873 44.8049 32.1512 42.0381 31.9157V27.3227H38.4977V31.8863C37.0102 31.9746 35.6417 32.4457 34.4516 33.2995C33.2616 34.1239 32.3393 35.2132 31.6848 36.5381C31.0303 37.863 30.703 39.2762 30.703 40.7483C30.703 42.1616 30.9708 43.3687 31.536 44.3403C32.0716 45.3119 32.7856 46.0774 33.6186 46.6368C34.4814 47.1962 35.4929 47.6967 36.6829 48.1383C37.9325 48.5505 38.9737 48.8744 39.8365 49.1688C40.6993 49.4632 41.3836 49.7871 41.8893 50.1698C42.3951 50.5526 42.6629 51.0825 42.6629 51.7008C42.6629 52.5546 42.2761 53.2318 41.5323 53.7323C40.7886 54.2034 39.9555 54.4684 39.063 54.4684C37.9325 54.4684 36.7424 54.174 35.4929 53.5557C34.2434 52.9374 33.1426 52.2013 32.1608 51.2886L29.1262 57.0299Z" fill="url(#paint0_linear_537_3093)"/>
<path fill-rule="evenodd" clip-rule="evenodd" d="M64.4104 24.1135H95.5595C95.9165 24.1135 96.1843 24.3785 96.1843 24.7318V67.5701C96.1843 67.9235 95.9165 68.1884 95.5595 68.1884H64.4104C64.0534 68.1884 63.7856 67.9235 63.7856 67.5701V24.7318C63.8154 24.3785 64.0832 24.1135 64.4104 24.1135ZM69.4978 57.0299C70.4498 57.9131 71.9374 58.7375 73.9902 59.5324C75.6562 60.1507 77.2925 60.4746 78.8991 60.4746V64.9792H82.4394V60.2685C84.1352 59.8563 85.5632 59.2675 86.783 58.502C87.9731 57.707 88.8953 56.706 89.5201 55.4694C90.1449 54.2328 90.4721 52.7607 90.4721 51.0531C90.4721 49.4043 90.1151 48.0794 89.3713 47.0195C88.6276 45.989 87.7053 45.1647 86.5748 44.5758C85.4442 43.987 83.9865 43.3981 82.1717 42.7799C81.0114 42.3677 80.1188 41.9849 79.4346 41.5727C78.7801 41.1605 78.423 40.5717 78.423 39.8356C78.423 39.129 78.7206 38.5991 79.3453 38.2458C79.9701 37.8925 80.7436 37.7158 81.6659 37.7158C83.3617 37.7158 84.998 38.3341 86.545 39.5707L89.3713 34.0944C87.497 32.8873 85.1765 32.1512 82.4097 31.9157V27.3227H78.8693V31.8863C77.3818 31.9746 76.0132 32.4457 74.8232 33.2995C73.6332 34.1239 72.7109 35.2132 72.0564 36.5381C71.4019 37.863 71.0746 39.2762 71.0746 40.7483C71.0746 42.1616 71.3424 43.3687 71.9076 44.3403C72.4431 45.3119 73.1572 46.0774 73.9902 46.6368C74.8529 47.1962 75.8645 47.6967 77.0545 48.1383C78.304 48.5505 79.3453 48.8744 80.2081 49.1688C81.0709 49.4632 81.7551 49.7871 82.2609 50.1698C82.7667 50.5526 83.0344 51.0825 83.0344 51.7008C83.0344 52.5546 82.6477 53.2318 81.9039 53.7323C81.1601 54.2034 80.3271 54.4684 79.4346 54.4684C78.304 54.4684 77.114 54.174 75.8645 53.5557C74.6149 52.9374 73.5142 52.2013 72.5324 51.2886L69.4978 57.0299Z" fill="url(#paint1_linear_537_3093)"/>
<path fill-rule="evenodd" clip-rule="evenodd" d="M104.812 24.1135H135.961C136.318 24.1135 136.586 24.3785 136.586 24.7318V67.5701C136.586 67.9235 136.318 68.1884 135.961 68.1884H104.812C104.455 68.1884 104.188 67.9235 104.188 67.5701V24.7318C104.188 24.3785 104.455 24.1135 104.812 24.1135ZM109.9 57.0299C110.852 57.9131 112.339 58.7375 114.392 59.5324C116.058 60.1507 117.694 60.4746 119.301 60.4746V64.9792H122.871V60.2685C124.567 59.8563 125.995 59.2675 127.215 58.502C128.405 57.707 129.327 56.706 129.952 55.4694C130.576 54.2328 130.904 52.7607 130.904 51.0531C130.904 49.4043 130.547 48.0794 129.803 47.0195C129.059 45.989 128.137 45.1647 127.006 44.5758C125.876 43.987 124.418 43.3981 122.603 42.7799C121.443 42.3677 120.55 41.9849 119.866 41.5727C119.212 41.1605 118.855 40.5717 118.855 39.8356C118.855 39.129 119.152 38.5991 119.777 38.2458C120.402 37.8925 121.175 37.7158 122.098 37.7158C123.793 37.7158 125.43 38.3341 126.977 39.5707L129.803 34.0944C127.929 32.8873 125.608 32.1512 122.841 31.9157V27.3227H119.301V31.8863C117.813 31.9746 116.445 32.4457 115.255 33.2995C114.065 34.1239 113.143 35.2132 112.488 36.5381C111.833 37.863 111.506 39.2762 111.506 40.7483C111.506 42.1616 111.774 43.3687 112.339 44.3403C112.875 45.3119 113.589 46.0774 114.422 46.6368C115.285 47.1962 116.296 47.6967 117.486 48.1383C118.736 48.5505 119.777 48.8744 120.64 49.1688C121.502 49.4632 122.187 49.7871 122.693 50.1698C123.198 50.5526 123.466 51.0825 123.466 51.7008C123.466 52.5546 123.079 53.2318 122.336 53.7323C121.592 54.2034 120.759 54.4684 119.866 54.4684C118.736 54.4684 117.546 54.174 116.296 53.5557C115.047 52.9374 113.946 52.2013 112.964 51.2886L109.9 57.0299Z" fill="url(#paint2_linear_537_3093)"/>
<path fill-rule="evenodd" clip-rule="evenodd" d="M63.8157 21.0806V13.6023C63.8157 13.514 63.8752 13.4551 63.9645 13.4551H96.0656C96.1549 13.4551 96.2144 13.514 96.2144 13.6023V21.0806C96.2144 21.1689 96.1549 21.2278 96.0656 21.2278H63.9645C63.8752 21.2278 63.8157 21.1689 63.8157 21.0806ZM64.4108 24.1132H95.5599C95.9169 24.1132 96.1846 24.3781 96.1846 24.7314V67.5698C96.1846 67.9231 95.9169 68.1881 95.5599 68.1881H64.4108C64.0537 68.1881 63.786 67.9231 63.786 67.5698V24.7314C63.8157 24.3781 64.0835 24.1132 64.4108 24.1132ZM104.188 67.5403V24.7314C104.188 24.3781 104.455 24.1132 104.812 24.1132H135.962C136.319 24.1132 136.586 24.3781 136.586 24.7314V67.5698C136.586 67.9231 136.319 68.1881 135.962 68.1881H104.812C104.455 68.1586 104.188 67.8936 104.188 67.5403ZM104.336 71.0439H136.438C136.527 71.0439 136.586 71.1028 136.586 71.1912V78.6695C136.586 78.7578 136.527 78.8167 136.438 78.8167H104.336C104.247 78.8167 104.188 78.7578 104.188 78.6695V71.1912C104.188 71.1028 104.247 71.0439 104.336 71.0439ZM104.188 21.0806V13.6023C104.188 13.514 104.247 13.4551 104.336 13.4551H136.438C136.527 13.4551 136.586 13.514 136.586 13.6023V21.0806C136.586 21.1689 136.527 21.2278 136.438 21.2278H104.336C104.247 21.2278 104.188 21.1689 104.188 21.0806ZM63.9645 71.0439H96.0656C96.1549 71.0439 96.2144 71.1028 96.2144 71.1912V78.6695C96.2144 78.7578 96.1549 78.8167 96.0656 78.8167H63.9645C63.8752 78.8167 63.8157 78.7578 63.8157 78.6695V71.1912C63.8157 71.1028 63.8752 71.0439 63.9645 71.0439ZM140.513 6.91895H19.487C18.416 6.91895 17.5234 7.80221 17.5234 8.86213V83.4096C17.5234 84.4696 18.416 85.3528 19.487 85.3528H140.513C141.584 85.3528 142.477 84.4696 142.477 83.4096V8.86213C142.477 7.80221 141.584 6.91895 140.513 6.91895ZM55.664 13.4551C55.7533 13.4551 55.8128 13.514 55.8128 13.6023V21.0806C55.8128 21.1689 55.7533 21.2278 55.664 21.2278H23.5629C23.4736 21.2278 23.4141 21.1689 23.4141 21.0806V13.6023C23.4141 13.514 23.4736 13.4551 23.5629 13.4551H55.664ZM24.0389 24.1132H55.188C55.545 24.1132 55.8128 24.3781 55.8128 24.7314V67.5698C55.8128 67.9231 55.545 68.1881 55.188 68.1881H24.0389C23.6819 68.1881 23.4141 67.9231 23.4141 67.5698V24.7314C23.4141 24.3781 23.7116 24.1132 24.0389 24.1132ZM23.5629 71.0439H55.664C55.7533 71.0439 55.8128 71.1028 55.8128 71.1912V78.6695C55.8128 78.7578 55.7533 78.8167 55.664 78.8167H23.5629C23.4736 78.8167 23.4141 78.7578 23.4141 78.6695V71.1912C23.4141 71.1028 23.5034 71.0439 23.5629 71.0439Z" fill="url(#paint3_linear_537_3093)"/>
<path fill-rule="evenodd" clip-rule="evenodd" d="M105.215 78.9346H132.953C133.005 78.9346 133.058 78.8758 133.084 78.8169H105.084C105.11 78.8758 105.136 78.9346 105.215 78.9346Z" fill="url(#paint4_linear_537_3093)"/>
<path d="M144.054 114C143.221 114 142.507 113.941 141.941 113.823C141.376 113.706 140.751 113.499 140.127 113.205L139.948 113.117V109.525L140.394 109.731C140.989 110.025 141.644 110.29 142.328 110.467C142.983 110.644 143.607 110.732 144.143 110.732C144.678 110.732 144.916 110.614 145.065 110.526C145.214 110.408 145.303 110.29 145.303 110.114C145.303 109.996 145.273 109.937 145.214 109.849C145.154 109.76 145.035 109.643 144.857 109.554C144.738 109.466 144.351 109.26 143.25 108.789C142.417 108.406 141.793 108.053 141.376 107.699C140.93 107.317 140.603 106.904 140.394 106.433C140.186 105.962 140.067 105.403 140.067 104.755C140.067 103.548 140.513 102.576 141.406 101.899C142.269 101.222 143.488 100.898 145.006 100.898C146.315 100.898 147.683 101.193 149.022 101.811L149.29 101.929L148.04 105.02L147.743 104.902C146.642 104.402 145.66 104.137 144.887 104.137C144.44 104.137 144.232 104.225 144.113 104.314C143.994 104.402 143.935 104.52 143.935 104.637C143.935 104.696 143.935 104.843 144.202 105.05C144.351 105.167 144.827 105.432 146.166 106.051C147.267 106.551 148.04 107.081 148.487 107.67C148.933 108.259 149.171 109.024 149.171 109.908C149.171 110.732 148.963 111.439 148.546 112.086C148.13 112.705 147.535 113.205 146.731 113.558C145.987 113.823 145.095 114 144.054 114ZM140.573 112.763C141.079 112.999 141.584 113.176 142.06 113.264C142.596 113.382 143.28 113.441 144.054 113.441C144.976 113.441 145.809 113.293 146.493 112.97C147.178 112.675 147.683 112.263 148.04 111.703C148.397 111.174 148.576 110.555 148.576 109.849C148.576 109.083 148.397 108.465 148.011 107.994C147.624 107.493 146.91 107.022 145.928 106.551C144.797 106.051 144.113 105.697 143.845 105.491C143.429 105.197 143.34 104.843 143.34 104.608C143.34 104.284 143.488 104.019 143.756 103.813C143.994 103.607 144.381 103.519 144.887 103.519C145.69 103.519 146.612 103.754 147.713 104.196L148.516 102.223C147.326 101.723 146.136 101.487 145.006 101.487C143.637 101.487 142.536 101.782 141.793 102.37C141.049 102.959 140.662 103.725 140.662 104.755C140.662 105.315 140.751 105.786 140.93 106.198C141.108 106.581 141.376 106.934 141.733 107.258C142.12 107.582 142.685 107.905 143.459 108.259C144.381 108.671 144.916 108.936 145.125 109.054C145.363 109.201 145.541 109.348 145.66 109.495C145.779 109.672 145.868 109.878 145.868 110.114C145.868 110.467 145.72 110.791 145.392 110.997C145.095 111.203 144.678 111.321 144.143 111.321C143.548 111.321 142.893 111.232 142.179 111.026C141.614 110.879 141.079 110.702 140.573 110.467V112.763V112.763ZM122.425 114C120.432 114 118.855 113.441 117.754 112.292C116.683 111.174 116.118 109.525 116.118 107.405C116.118 105.315 116.653 103.666 117.724 102.547C118.795 101.428 120.372 100.839 122.395 100.839C124.418 100.839 125.995 101.399 127.066 102.518C128.137 103.636 128.672 105.256 128.672 107.405C128.672 109.525 128.137 111.174 127.066 112.292C126.054 113.441 124.478 114 122.425 114ZM122.455 101.458C120.58 101.458 119.152 101.958 118.2 102.959C117.248 103.96 116.742 105.462 116.742 107.405C116.742 109.378 117.248 110.879 118.2 111.88C119.182 112.881 120.58 113.411 122.425 113.411C124.299 113.411 125.727 112.911 126.679 111.91C127.631 110.909 128.107 109.407 128.107 107.434C128.107 105.462 127.631 103.96 126.679 102.959C125.757 101.958 124.329 101.458 122.455 101.458ZM100.141 114C99.3084 114 98.5944 113.941 98.0291 113.823C97.4639 113.706 96.8391 113.499 96.2143 113.205L96.0358 113.117V109.525L96.4821 109.731C97.0771 110.025 97.7316 110.29 98.4159 110.467C99.0704 110.644 99.6952 110.732 100.231 110.732C100.766 110.732 101.004 110.614 101.153 110.526C101.302 110.408 101.391 110.29 101.391 110.114C101.391 109.996 101.361 109.937 101.302 109.849C101.242 109.76 101.123 109.643 100.945 109.554C100.826 109.466 100.439 109.26 99.3382 108.789C98.5051 108.406 97.8804 108.053 97.4639 107.699C97.0176 107.317 96.6903 106.904 96.4821 106.433C96.2738 105.962 96.1548 105.403 96.1548 104.755C96.1548 103.548 96.6011 102.576 97.4936 101.899C98.3564 101.222 99.5762 100.898 101.093 100.898C102.403 100.898 103.771 101.193 105.11 101.811L105.378 101.929L104.128 105.02L103.831 104.902C102.73 104.402 101.748 104.137 100.974 104.137C100.528 104.137 100.32 104.225 100.201 104.314C100.082 104.402 100.022 104.52 100.022 104.637C100.022 104.696 100.022 104.843 100.29 105.05C100.439 105.167 100.915 105.432 102.254 106.051C103.355 106.551 104.128 107.081 104.574 107.67C105.021 108.259 105.259 109.024 105.259 109.908C105.259 110.732 105.05 111.439 104.634 112.086C104.217 112.705 103.622 113.205 102.819 113.558C102.046 113.823 101.153 114 100.141 114ZM96.6308 112.763C97.1366 112.999 97.6424 113.176 98.1184 113.264C98.6539 113.382 99.3382 113.441 100.112 113.441C101.034 113.441 101.867 113.293 102.551 112.97C103.236 112.675 103.741 112.263 104.098 111.703C104.455 111.174 104.634 110.555 104.634 109.849C104.634 109.083 104.455 108.465 104.069 107.994C103.682 107.493 102.968 107.022 101.986 106.551C100.855 106.051 100.171 105.697 99.9034 105.491C99.4869 105.197 99.3977 104.843 99.3977 104.608C99.3977 104.284 99.5464 104.019 99.8142 103.813C100.052 103.607 100.439 103.519 100.945 103.519C101.748 103.519 102.67 103.754 103.771 104.196L104.574 102.223C103.384 101.723 102.194 101.487 101.064 101.487C99.6952 101.487 98.5944 101.782 97.8506 102.37C97.1069 102.959 96.7201 103.725 96.7201 104.755C96.7201 105.315 96.8093 105.786 96.9879 106.198C97.1664 106.581 97.4341 106.934 97.7911 107.258C98.1779 107.582 98.7432 107.905 99.5167 108.259C100.439 108.671 100.974 108.936 101.183 109.054C101.421 109.201 101.599 109.348 101.718 109.495C101.837 109.672 101.926 109.878 101.926 110.114C101.926 110.467 101.778 110.791 101.45 110.997C101.153 111.203 100.736 111.321 100.201 111.321C99.6059 111.321 98.9514 111.232 98.2374 111.026C97.6721 110.879 97.1366 110.702 96.6308 110.467V112.763V112.763ZM74.9127 114C72.9194 114 71.3426 113.441 70.2419 112.292C69.1708 111.174 68.6056 109.525 68.6056 107.405C68.6056 105.315 69.1411 103.666 70.2121 102.547C71.2831 101.428 72.8599 100.839 74.883 100.839C76.906 100.839 78.4828 101.399 79.5539 102.518C80.6249 103.636 81.1604 105.256 81.1604 107.405C81.1604 109.525 80.6249 111.174 79.5539 112.292C78.5423 113.441 76.9655 114 74.9127 114ZM74.9425 101.458C73.0682 101.458 71.6401 101.958 70.6881 102.959C69.7361 103.96 69.2303 105.462 69.2303 107.405C69.2303 109.378 69.7361 110.879 70.6881 111.88C71.6699 112.881 73.0682 113.411 74.9127 113.411C76.787 113.411 78.2151 112.911 79.1671 111.91C80.1191 110.909 80.5951 109.407 80.5951 107.434C80.5951 105.462 80.1191 103.96 79.1671 102.959C78.2151 101.958 76.787 101.458 74.9425 101.458ZM44.8346 114C42.8413 114 41.2645 113.441 40.1638 112.292C39.0927 111.174 38.5275 109.525 38.5275 107.405C38.5275 105.315 39.063 103.666 40.134 102.547C41.205 101.428 42.7818 100.839 44.8049 100.839C46.8279 100.839 48.4047 101.399 49.4758 102.518C50.5468 103.636 51.0823 105.256 51.0823 107.405C51.0823 109.525 50.5468 111.174 49.4758 112.292C48.4642 113.441 46.8874 114 44.8346 114ZM44.8644 101.458C42.9901 101.458 41.562 101.958 40.61 102.959C39.658 103.96 39.1522 105.462 39.1522 107.405C39.1522 109.378 39.658 110.879 40.61 111.88C41.5918 112.881 42.9901 113.411 44.8346 113.411C46.7089 113.411 48.137 112.911 49.089 111.91C50.041 110.909 50.517 109.407 50.517 107.434C50.517 105.462 50.041 103.96 49.089 102.959C48.137 101.958 46.7387 101.458 44.8644 101.458ZM31.0898 114C29.0964 114 27.5197 113.441 26.4189 112.292C25.3478 111.174 24.7826 109.525 24.7826 107.405C24.7826 105.315 25.3181 103.666 26.3891 102.547C27.4601 101.428 29.0369 100.839 31.06 100.839C33.0831 100.839 34.6599 101.399 35.7309 102.518C36.8019 103.636 37.3374 105.256 37.3374 107.405C37.3374 109.525 36.8019 111.174 35.7309 112.292C34.7194 113.441 33.1426 114 31.0898 114ZM31.1195 101.458C29.2452 101.458 27.8172 101.958 26.8651 102.959C25.9131 103.96 25.4073 105.462 25.4073 107.405C25.4073 109.378 25.9131 110.879 26.8651 111.88C27.8469 112.881 29.2452 113.411 31.0898 113.411C32.9641 113.411 34.3921 112.911 35.3441 111.91C36.2961 110.909 36.7722 109.407 36.7722 107.434C36.7722 105.462 36.2961 103.96 35.3441 102.959C34.4218 101.958 32.9938 101.458 31.1195 101.458ZM136.378 113.823H132.451V104.343H129.446V101.045H139.383V104.343H136.378V113.823V113.823ZM133.046 113.234H135.783V103.754H138.788V101.634H130.041V103.754H133.046V113.234V113.234ZM115.225 113.823H106.568V101.045H110.495V110.585H115.225V113.823V113.823ZM107.163 113.234H114.63V111.174H109.9V101.634H107.163V113.234V113.234ZM86.6941 113.823H82.8265V101.045H90.7104V104.284H86.6941V106.021H90.3832V109.26H86.6941V113.823ZM83.4215 113.234H86.099V108.671H89.7881V106.61H86.099V103.695H90.1154V101.634H83.4215V113.234ZM64.0834 113.823H59.6506L57.2705 109.289L56.7052 109.613V113.823H52.7781V101.045H56.7052V105.58C56.854 105.373 57.0027 105.138 57.1812 104.902L59.8588 101.045H64.2322L60.0968 106.816L64.0834 113.823ZM60.0076 113.234H63.0719L59.4125 106.787L63.0719 101.634H60.1563L57.6572 105.256C57.1515 105.962 56.8242 106.463 56.6457 106.787L56.0805 107.876V101.634H53.3434V113.234H56.0805V109.289L57.4787 108.465L60.0076 113.234ZM18.7432 113.823H13.6558V101.045H18.2374C19.9927 101.045 21.2422 101.31 22.105 101.84C22.9975 102.4 23.4735 103.254 23.4735 104.402C23.4735 105.138 23.2653 105.786 22.8785 106.316C22.6405 106.639 22.343 106.904 21.986 107.111C22.4918 107.317 22.8785 107.611 23.1463 107.994C23.533 108.524 23.7115 109.171 23.7115 109.996C23.7115 111.203 23.2355 112.145 22.343 112.852C21.4505 113.499 20.2604 113.823 18.7432 113.823ZM14.2508 113.234H18.7432C20.1117 113.234 21.2125 112.94 21.986 112.351C22.7595 111.762 23.1165 110.997 23.1165 109.966C23.1165 109.289 22.9678 108.73 22.6703 108.318C22.3728 107.905 21.867 107.611 21.1827 107.434L20.9745 107.376V106.846L21.2125 106.787C21.7182 106.669 22.1348 106.404 22.4323 105.962C22.7595 105.521 22.9083 105.02 22.9083 104.372C22.9083 103.43 22.5513 102.753 21.8372 102.341C21.0935 101.87 19.8737 101.634 18.2671 101.634H14.2508V113.234ZM18.4456 111.291H16.9581V108.141H18.3564C18.9514 108.141 19.4274 108.259 19.7547 108.524C20.1117 108.789 20.2902 109.201 20.2902 109.701C20.2902 110.29 20.0522 111.291 18.4456 111.291ZM17.5531 110.702H18.4456C19.5762 110.702 19.6952 110.173 19.6952 109.701C19.6952 109.378 19.6059 109.171 19.3977 108.995C19.1894 108.818 18.8324 108.73 18.3861 108.73H17.5531V110.702ZM122.425 111.262C121.146 111.262 119.658 110.585 119.658 107.434C119.658 104.255 121.175 103.577 122.455 103.577C123.377 103.577 124.091 103.901 124.537 104.579C124.983 105.226 125.221 106.139 125.221 107.434C125.221 108.73 125.013 109.643 124.567 110.29C124.091 110.909 123.377 111.262 122.425 111.262ZM122.455 104.166C120.967 104.166 120.253 105.226 120.253 107.434C120.253 109.613 120.967 110.673 122.425 110.673C123.169 110.673 123.704 110.437 124.061 109.937C124.418 109.407 124.626 108.583 124.626 107.434C124.626 106.286 124.448 105.432 124.061 104.902C123.704 104.402 123.169 104.166 122.455 104.166ZM74.9127 111.262C73.6334 111.262 72.1459 110.585 72.1459 107.434C72.1459 104.255 73.6632 103.577 74.9425 103.577C75.8648 103.577 76.5788 103.901 77.025 104.579C77.4713 105.226 77.7093 106.139 77.7093 107.434C77.7093 108.73 77.5011 109.643 77.0548 110.29C76.5788 110.909 75.8648 111.262 74.9127 111.262ZM74.9425 104.166C73.4549 104.166 72.7409 105.226 72.7409 107.434C72.7409 109.613 73.4549 110.673 74.9127 110.673C75.6565 110.673 76.192 110.437 76.549 109.937C76.906 109.407 77.1143 108.583 77.1143 107.434C77.1143 106.286 76.9358 105.432 76.549 104.902C76.192 104.402 75.6565 104.166 74.9425 104.166ZM44.8346 111.262C43.5554 111.262 42.0678 110.585 42.0678 107.434C42.0678 104.255 43.5851 103.577 44.8644 103.577C45.7867 103.577 46.5007 103.901 46.9469 104.579C47.3932 105.226 47.6312 106.139 47.6312 107.434C47.6312 108.73 47.423 109.643 46.9767 110.29C46.5007 110.909 45.7867 111.262 44.8346 111.262ZM44.8644 104.166C43.3768 104.166 42.6628 105.226 42.6628 107.434C42.6628 109.613 43.3768 110.673 44.8346 110.673C45.5784 110.673 46.1139 110.437 46.4709 109.937C46.8279 109.407 47.0362 108.583 47.0362 107.434C47.0362 106.286 46.8577 105.432 46.4709 104.902C46.1139 104.402 45.5784 104.166 44.8644 104.166ZM31.0898 111.262C29.8105 111.262 28.3229 110.585 28.3229 107.434C28.3229 104.255 29.8402 103.577 31.1195 103.577C32.0418 103.577 32.7558 103.901 33.2021 104.579C33.6483 105.226 33.8863 106.139 33.8863 107.434C33.8863 108.73 33.6781 109.643 33.2318 110.29C32.7558 110.909 32.0418 111.262 31.0898 111.262ZM31.1195 104.166C29.632 104.166 28.9179 105.226 28.9179 107.434C28.9179 109.613 29.632 110.673 31.0898 110.673C31.8335 110.673 32.369 110.437 32.726 109.937C33.0831 109.407 33.2913 108.583 33.2913 107.434C33.2913 106.286 33.1128 105.432 32.726 104.902C32.369 104.402 31.8335 104.166 31.1195 104.166ZM18.2671 106.316H16.9581V103.548H18.1779C19.7249 103.548 20.0522 104.255 20.0522 104.873C20.0522 105.344 19.8737 105.727 19.5464 105.962C19.2489 106.198 18.8027 106.316 18.2671 106.316ZM17.5531 105.727H18.2671C18.6837 105.727 18.9812 105.638 19.1894 105.491C19.3679 105.344 19.4572 105.138 19.4572 104.873C19.4572 104.667 19.4572 104.137 18.1779 104.137H17.5531V105.727Z" fill="url(#paint5_linear_537_3093)"/>
<path fill-rule="evenodd" clip-rule="evenodd" d="M13.9531 101.34H18.2372C19.9033 101.34 21.1528 101.575 21.9561 102.076C22.7594 102.576 23.1759 103.342 23.1759 104.372C23.1759 105.05 22.9974 105.638 22.6404 106.139C22.2834 106.61 21.8073 106.934 21.2421 107.081V107.169C22.0156 107.376 22.5511 107.699 22.9081 108.17C23.2651 108.642 23.4139 109.23 23.4139 109.996C23.4139 111.115 22.9974 111.968 22.1644 112.616C21.3313 113.264 20.171 113.558 18.743 113.558H13.9531V101.34ZM17.2555 106.021H18.267C18.743 106.021 19.1298 105.933 19.3678 105.727C19.6355 105.521 19.7545 105.256 19.7545 104.873C19.7545 104.196 19.219 103.842 18.1777 103.842H17.2555V106.021ZM17.2555 108.435V110.997H18.4455C19.4868 110.997 19.9925 110.555 19.9925 109.701C19.9925 109.289 19.8438 108.995 19.576 108.759C19.3083 108.553 18.8918 108.435 18.3562 108.435H17.2555ZM37.0993 107.434C37.0993 109.495 36.5935 111.056 35.582 112.116C34.5705 113.176 33.0829 113.706 31.1194 113.706C29.1856 113.706 27.698 113.176 26.6865 112.086C25.6452 111.026 25.1394 109.466 25.1394 107.405C25.1394 105.373 25.6452 103.813 26.6865 102.753C27.698 101.693 29.1856 101.163 31.1491 101.163C33.1127 101.163 34.6002 101.693 35.6117 102.753C36.5935 103.813 37.0993 105.373 37.0993 107.434ZM28.6203 107.434C28.6203 109.79 29.4533 110.967 31.0896 110.967C31.9226 110.967 32.5474 110.673 32.9639 110.114C33.3804 109.554 33.5887 108.642 33.5887 107.434C33.5887 106.227 33.3804 105.315 32.9639 104.726C32.5474 104.137 31.9226 103.842 31.1194 103.842C29.4533 103.872 28.6203 105.05 28.6203 107.434ZM50.8442 107.434C50.8442 109.495 50.3384 111.056 49.3269 112.116C48.3153 113.176 46.8278 113.706 44.8642 113.706C42.9304 113.706 41.4429 113.176 40.4314 112.086C39.3901 111.026 38.8843 109.466 38.8843 107.405C38.8843 105.373 39.3901 103.813 40.4314 102.753C41.4429 101.693 42.9304 101.163 44.894 101.163C46.8575 101.163 48.3451 101.693 49.3566 102.753C50.3384 103.813 50.8442 105.373 50.8442 107.434ZM42.3652 107.434C42.3652 109.79 43.1982 110.967 44.8345 110.967C45.6675 110.967 46.2923 110.673 46.7088 110.114C47.1253 109.554 47.3336 108.642 47.3336 107.434C47.3336 106.227 47.1253 105.315 46.7088 104.726C46.2923 104.137 45.6675 103.842 44.8642 103.842C43.1982 103.872 42.3652 105.05 42.3652 107.434ZM63.5775 113.529H59.8289L57.3893 108.877L56.4076 109.466V113.529H53.0755V101.34H56.4076V106.639C56.5861 106.316 56.9133 105.786 57.4191 105.079L60.0074 101.34H63.637L59.7694 106.787L63.5775 113.529ZM80.9223 107.434C80.9223 109.495 80.4165 111.056 79.405 112.116C78.3934 113.176 76.9059 113.706 74.9423 113.706C73.0085 113.706 71.521 113.176 70.5095 112.086C69.4682 111.026 68.9624 109.466 68.9624 107.405C68.9624 105.373 69.4682 103.813 70.5095 102.753C71.521 101.693 73.0085 101.163 74.9721 101.163C76.9356 101.163 78.4232 101.693 79.4347 102.753C80.4165 103.813 80.9223 105.373 80.9223 107.434ZM72.4433 107.434C72.4433 109.79 73.2763 110.967 74.9126 110.967C75.7456 110.967 76.3704 110.673 76.7869 110.114C77.2034 109.554 77.4117 108.642 77.4117 107.434C77.4117 106.227 77.2034 105.315 76.7869 104.726C76.3704 104.137 75.7456 103.842 74.9423 103.842C73.2763 103.872 72.4433 105.05 72.4433 107.434ZM86.3964 113.529H83.1238V101.34H90.4128V103.99H86.3964V106.316H90.0855V108.965H86.3964V113.529ZM104.961 109.849C104.961 110.614 104.782 111.291 104.366 111.851C103.979 112.44 103.414 112.881 102.7 113.205C101.956 113.529 101.123 113.706 100.141 113.706C99.3083 113.706 98.624 113.647 98.0885 113.529C97.5232 113.411 96.958 113.205 96.3629 112.94V109.996C96.9877 110.32 97.6422 110.555 98.3265 110.761C99.0108 110.938 99.6355 111.026 100.201 111.026C100.707 111.026 101.064 110.938 101.302 110.761C101.54 110.585 101.659 110.379 101.659 110.114C101.659 109.937 101.599 109.79 101.51 109.672C101.421 109.554 101.272 109.407 101.064 109.289C100.855 109.171 100.32 108.907 99.4273 108.494C98.624 108.141 98.029 107.788 97.6125 107.434C97.2257 107.111 96.9282 106.698 96.72 106.257C96.5415 105.815 96.4224 105.285 96.4224 104.696C96.4224 103.577 96.839 102.694 97.672 102.076C98.505 101.458 99.6355 101.134 101.064 101.134C102.343 101.134 103.622 101.428 104.961 102.017L103.949 104.549C102.789 104.019 101.807 103.754 100.974 103.754C100.558 103.754 100.231 103.842 100.022 103.99C99.814 104.137 99.7248 104.314 99.7248 104.549C99.7248 104.785 99.8438 104.991 100.112 105.197C100.35 105.373 101.034 105.727 102.135 106.227C103.206 106.698 103.92 107.199 104.336 107.758C104.753 108.347 104.961 109.024 104.961 109.849ZM106.865 113.529V101.34H110.197V110.879H114.927V113.529H106.865ZM128.434 107.434C128.434 109.495 127.929 111.056 126.917 112.116C125.906 113.176 124.418 113.706 122.454 113.706C120.521 113.706 119.033 113.176 118.022 112.086C116.98 111.026 116.475 109.466 116.475 107.405C116.475 105.373 116.98 103.813 118.022 102.753C119.033 101.693 120.521 101.163 122.484 101.163C124.448 101.163 125.935 101.693 126.947 102.753C127.929 103.813 128.434 105.373 128.434 107.434ZM119.955 107.434C119.955 109.79 120.788 110.967 122.425 110.967C123.258 110.967 123.882 110.673 124.299 110.114C124.715 109.554 124.924 108.642 124.924 107.434C124.924 106.227 124.715 105.315 124.299 104.726C123.882 104.137 123.258 103.842 122.454 103.842C120.788 103.872 119.955 105.05 119.955 107.434ZM136.08 113.529H132.748V104.049H129.743V101.34H139.085V104.049H136.08V113.529ZM148.873 109.849C148.873 110.614 148.695 111.291 148.278 111.851C147.891 112.44 147.326 112.881 146.612 113.205C145.868 113.529 145.035 113.706 144.054 113.706C143.221 113.706 142.536 113.647 142.001 113.529C141.435 113.411 140.87 113.205 140.275 112.94V109.996C140.9 110.32 141.554 110.555 142.239 110.761C142.923 110.938 143.548 111.026 144.113 111.026C144.619 111.026 144.976 110.938 145.214 110.761C145.452 110.585 145.571 110.379 145.571 110.114C145.571 109.937 145.511 109.79 145.422 109.672C145.333 109.554 145.184 109.407 144.976 109.289C144.768 109.171 144.232 108.907 143.34 108.494C142.536 108.141 141.941 107.788 141.525 107.434C141.138 107.111 140.84 106.698 140.632 106.257C140.454 105.815 140.335 105.285 140.335 104.696C140.335 103.577 140.751 102.694 141.584 102.076C142.417 101.458 143.548 101.134 144.976 101.134C146.255 101.134 147.534 101.428 148.873 102.017L147.862 104.549C146.701 104.019 145.72 103.754 144.887 103.754C144.47 103.754 144.143 103.842 143.935 103.99C143.726 104.137 143.637 104.314 143.637 104.549C143.637 104.785 143.756 104.991 144.024 105.197C144.262 105.373 144.946 105.727 146.047 106.227C147.118 106.698 147.832 107.199 148.248 107.758C148.695 108.347 148.873 109.024 148.873 109.849Z" fill="url(#paint6_linear_537_3093)"/>
<path fill-rule="evenodd" clip-rule="evenodd" d="M24.5443 78.9346H56.0802C56.1694 78.9346 56.2289 78.8757 56.2289 78.7874V71.4563C56.2289 71.368 56.1694 71.3091 56.0802 71.3091H55.8124V78.6696C55.8124 78.7579 55.7529 78.8168 55.6636 78.8168H24.3955C24.4253 78.8757 24.4848 78.9346 24.5443 78.9346Z" fill="url(#paint7_linear_537_3093)"/>
<path fill-rule="evenodd" clip-rule="evenodd" d="M140.513 6.91895H19.487C18.416 6.91895 17.5234 7.80221 17.5234 8.86213V83.4096C17.5234 84.4696 18.416 85.3528 19.487 85.3528H20.5283C19.4572 85.3528 18.5945 84.499 18.5945 83.4391V10.2754C18.5945 9.21543 19.4572 8.36161 20.5283 8.36161H139.472C140.543 8.36161 141.406 9.21543 141.406 10.2754V83.4391C141.406 84.499 140.543 85.3528 139.472 85.3528H140.513C141.584 85.3528 142.477 84.4696 142.477 83.4096V8.86213C142.477 7.80221 141.584 6.91895 140.513 6.91895Z" fill="url(#paint8_linear_537_3093)"/>
<path fill-rule="evenodd" clip-rule="evenodd" d="M64.7083 68.4825H95.3219C95.5897 68.4825 95.7979 68.3058 95.8872 68.0703C95.7979 68.1292 95.6789 68.1586 95.5897 68.1586H64.4108C64.2918 68.1586 64.2025 68.1292 64.1133 68.0703C64.2025 68.3353 64.4405 68.4825 64.7083 68.4825Z" fill="url(#paint9_linear_537_3093)"/>
<path fill-rule="evenodd" clip-rule="evenodd" d="M64.2323 78.9346H95.7681C95.8276 78.9346 95.8871 78.8758 95.9169 78.8169H64.0835C64.1132 78.8758 64.143 78.9346 64.2323 78.9346Z" fill="url(#paint10_linear_537_3093)"/>
<path fill-rule="evenodd" clip-rule="evenodd" d="M15.6488 0.294434H144.351C146.91 0.294434 148.992 2.35538 148.992 4.88741V42.8678H156.4C158.215 42.8678 159.702 44.3399 159.702 46.1359C159.702 47.9318 158.215 49.4039 156.4 49.4039H148.992V87.3843C148.992 89.9163 146.91 91.9773 144.351 91.9773H15.6488C13.0902 91.9773 11.0077 89.9163 11.0077 87.3843V49.4039H3.59971C1.78491 49.4039 0.297363 47.9318 0.297363 46.1359C0.297363 44.3399 1.78491 42.8678 3.59971 42.8678H11.0077V4.88741C11.0077 2.35538 13.0902 0.294434 15.6488 0.294434ZM19.4867 6.91892C18.4156 6.91892 17.5231 7.80218 17.5231 8.8621V83.4096C17.5231 84.4695 18.4156 85.3528 19.4867 85.3528H140.513C141.584 85.3528 142.477 84.4695 142.477 83.4096V8.8621C142.477 7.80218 141.584 6.91892 140.513 6.91892H19.4867Z" fill="url(#paint11_linear_537_3093)"/>
<path d="M144.351 92.2717H15.6489C12.9119 92.2717 10.7103 90.093 10.7103 87.3843V49.6983H3.59985C1.60655 49.6983 0 48.1085 0 46.1358C0 44.1632 1.60655 42.5733 3.59985 42.5733H10.7103V4.8874C10.7103 2.17872 12.9119 0 15.6489 0H144.351C147.088 0 149.29 2.17872 149.29 4.8874V42.5733H156.4C158.393 42.5733 160 44.1632 160 46.1358C160 48.1085 158.393 49.6983 156.4 49.6983H149.29V87.3843C149.29 90.093 147.088 92.2717 144.351 92.2717ZM3.59985 43.1622C1.9338 43.1622 0.595017 44.4871 0.595017 46.1358C0.595017 47.7846 1.9338 49.1095 3.59985 49.1095H11.3053V87.3843C11.3053 89.7397 13.2391 91.6829 15.6489 91.6829H144.351C146.761 91.6829 148.695 89.7691 148.695 87.3843V49.1095H156.4C158.066 49.1095 159.405 47.7846 159.405 46.1358C159.405 44.4871 158.066 43.1622 156.4 43.1622H148.695V4.8874C148.695 2.50258 146.761 0.588843 144.351 0.588843H15.6489C13.2391 0.588843 11.3053 2.50258 11.3053 4.8874V43.1622H3.59985ZM140.513 85.6472H19.4868C18.2373 85.6472 17.2257 84.6462 17.2257 83.4096V8.86209C17.2257 7.62552 18.2373 6.62448 19.4868 6.62448H140.513C141.763 6.62448 142.774 7.62552 142.774 8.86209V83.4096C142.774 84.6462 141.763 85.6472 140.513 85.6472ZM19.4868 7.21333C18.5645 7.21333 17.8208 7.94938 17.8208 8.86209V83.4096C17.8208 84.3223 18.5645 85.0584 19.4868 85.0584H140.513C141.435 85.0584 142.179 84.3223 142.179 83.4096V8.86209C142.179 7.94938 141.435 7.21333 140.513 7.21333H19.4868Z" fill="url(#paint12_linear_537_3093)"/>
<path fill-rule="evenodd" clip-rule="evenodd" d="M125.043 84.911C125.162 84.9404 125.311 84.9993 125.4 85.0582C125.549 85.0582 125.698 85.0287 125.817 84.911L125.965 84.7638L125.817 84.911C125.698 85.0287 125.668 85.176 125.668 85.3232C125.757 85.4409 125.787 85.5587 125.817 85.6765C125.906 85.7648 126.055 85.8237 126.203 85.8531L127.334 85.912L126.203 85.9709C126.055 85.9709 125.936 86.0298 125.817 86.1475C125.787 86.2653 125.727 86.4125 125.668 86.5008C125.668 86.6481 125.698 86.7953 125.817 86.913L125.965 87.0603L125.817 86.913C125.698 86.7953 125.549 86.7658 125.4 86.7658C125.281 86.8542 125.162 86.8836 125.043 86.913C124.954 87.0014 124.894 87.1486 124.865 87.2958L124.805 88.4146L124.746 87.2958C124.746 87.1486 124.686 87.0308 124.567 86.913C124.448 86.8836 124.299 86.8247 124.21 86.7658C124.061 86.7658 123.913 86.7953 123.794 86.913L123.645 87.0603L123.794 86.913C123.913 86.7953 123.942 86.6481 123.942 86.5008C123.853 86.3831 123.823 86.2653 123.794 86.1475C123.704 86.0592 123.556 86.0003 123.407 85.9709L122.276 85.912L123.407 85.8531C123.556 85.8531 123.675 85.7942 123.794 85.6765C123.823 85.5587 123.883 85.4115 123.942 85.3232C123.942 85.176 123.913 85.0287 123.794 84.911L123.645 84.7638L123.794 84.911C123.913 85.0287 124.061 85.0582 124.21 85.0582C124.329 84.9699 124.448 84.9404 124.567 84.911C124.656 84.8226 124.716 84.6754 124.746 84.5282L124.805 83.4094L124.865 84.5282C124.894 84.6754 124.954 84.8226 125.043 84.911Z" fill="white"/>
<path d="M124.864 89.5043C126.901 89.5043 128.553 87.8698 128.553 85.8535C128.553 83.8372 126.901 82.2026 124.864 82.2026C122.826 82.2026 121.175 83.8372 121.175 85.8535C121.175 87.8698 122.826 89.5043 124.864 89.5043Z" fill="url(#paint13_radial_537_3093)"/>
<path fill-rule="evenodd" clip-rule="evenodd" d="M68.9923 106.698C69.0518 106.698 69.1113 106.728 69.1411 106.757C69.2006 106.757 69.2601 106.728 69.3196 106.698L69.3791 106.639L69.3196 106.698C69.2898 106.757 69.2601 106.816 69.2601 106.875C69.2898 106.934 69.3196 106.963 69.3196 107.022C69.3494 107.052 69.4089 107.081 69.4684 107.081L69.9444 107.111L69.4684 107.14C69.4089 107.14 69.3494 107.169 69.3196 107.199C69.3196 107.258 69.2898 107.317 69.2601 107.346C69.2601 107.405 69.2898 107.464 69.3196 107.523L69.3791 107.582L69.3196 107.523C69.2601 107.493 69.2006 107.464 69.1411 107.464C69.0816 107.493 69.0518 107.523 68.9923 107.523C68.9626 107.552 68.9328 107.611 68.9328 107.67L68.9031 108.141L68.8733 107.67C68.8733 107.611 68.8436 107.552 68.8138 107.523C68.7543 107.523 68.6948 107.493 68.6651 107.464C68.6056 107.464 68.5461 107.493 68.4866 107.523L68.4271 107.582L68.4866 107.523C68.5163 107.464 68.5461 107.405 68.5461 107.346C68.5163 107.287 68.4866 107.258 68.4866 107.199C68.4568 107.169 68.3973 107.14 68.3378 107.14L67.8618 107.111L68.3378 107.081C68.3973 107.081 68.4568 107.052 68.4866 107.022C68.4866 106.963 68.5163 106.904 68.5461 106.875C68.5461 106.816 68.5163 106.757 68.4866 106.698L68.4271 106.639L68.4866 106.698C68.5461 106.728 68.6056 106.757 68.6651 106.757C68.7246 106.728 68.7543 106.698 68.8138 106.698C68.8436 106.669 68.8733 106.61 68.8733 106.551L68.9031 106.08L68.9328 106.551C68.9328 106.61 68.9328 106.669 68.9923 106.698Z" fill="white"/>
<path d="M68.9325 108.848C69.9348 108.848 70.7473 108.043 70.7473 107.052C70.7473 106.06 69.9348 105.256 68.9325 105.256C67.9302 105.256 67.1177 106.06 67.1177 107.052C67.1177 108.043 67.9302 108.848 68.9325 108.848Z" fill="url(#paint14_radial_537_3093)"/>
<path fill-rule="evenodd" clip-rule="evenodd" d="M33.6778 46.6658C34.5406 47.2252 35.5521 47.7257 36.7422 48.1673C37.9917 48.5795 39.033 48.9034 39.8957 49.1978C40.7585 49.4922 41.4428 49.8161 41.9486 50.1988C42.4543 50.5816 42.7221 51.1115 42.7221 51.7298C42.7221 52.5836 42.3353 53.2608 41.5915 53.7613C40.8478 54.2324 40.0147 54.4974 39.1222 54.4974C37.9917 54.4974 36.8017 54.203 35.5521 53.5847C34.3026 52.9664 33.2018 52.2303 32.22 51.3176L29.0962 57.0294C30.0482 57.9127 31.5358 58.7371 33.5886 59.532C35.2546 60.1503 36.8909 60.4741 38.4975 60.4741V64.9788H42.0378V60.268C43.7336 59.8559 45.1616 59.267 46.3814 58.5015C47.5715 57.7066 48.4937 56.7055 49.1185 55.469C49.7433 54.2324 50.0705 52.7603 50.0705 51.0527C50.0705 49.4039 49.7135 48.079 48.9698 47.0191C48.226 45.9886 47.3037 45.1642 46.1732 44.5754C45.0426 43.9865 43.5848 43.3977 41.77 42.7794C40.6098 42.3672 39.7172 41.9845 39.033 41.5723C38.3785 41.1601 38.0214 40.5712 38.0214 39.8352C38.0214 39.1286 38.3189 38.5986 38.9437 38.2453C39.5685 37.892 40.342 37.7154 41.2643 37.7154C42.9601 37.7154 44.5964 38.3336 46.1434 39.5702L48.9698 34.094C47.0955 32.8868 44.7749 32.1508 42.0081 31.9152V27.3223H38.4677V31.8858C36.9802 31.9741 35.6116 32.4452 34.4216 33.299C33.2316 34.1234 32.3093 35.2128 31.6548 36.5377C31.0002 37.8626 30.673 39.2758 30.673 40.7479C30.673 42.1611 30.9407 43.3682 31.506 44.3398C32.1308 45.3409 32.8448 46.1064 33.6778 46.6658Z" fill="url(#paint15_linear_537_3093)"/>
<path opacity="0.4" fill-rule="evenodd" clip-rule="evenodd" d="M42.0973 27.3224L38.557 27.293V31.8565C37.0694 31.9448 35.7009 32.4159 34.5108 33.2697C33.3208 34.0941 32.3985 35.1835 31.744 36.5084C31.2383 37.5683 30.911 38.6576 30.792 39.8059C31.744 35.949 34.6894 32.3276 38.9735 32.3865C38.9735 30.7966 38.9437 29.2656 38.9437 27.6757C39.8362 27.6757 40.699 27.6463 41.5916 27.6463L42.0973 27.3224Z" fill="white"/>
<path fill-rule="evenodd" clip-rule="evenodd" d="M74.0797 46.6658C74.9424 47.2252 75.954 47.7257 77.144 48.1673C78.3935 48.5795 79.4348 48.9034 80.2976 49.1978C81.1604 49.4922 81.8446 49.8161 82.3504 50.1988C82.8562 50.5816 83.1239 51.1115 83.1239 51.7298C83.1239 52.5836 82.7372 53.2608 81.9934 53.7613C81.2496 54.2324 80.4166 54.4974 79.5241 54.4974C78.3935 54.4974 77.2035 54.203 75.954 53.5847C74.7044 52.9664 73.6037 52.2303 72.6219 51.3176L69.498 57.0294C70.4501 57.9127 71.9376 58.7371 73.9904 59.532C75.6565 60.1503 77.2928 60.4741 78.8993 60.4741V64.9788H82.4397V60.268C84.1354 59.8559 85.5635 59.267 86.7833 58.5015C87.9733 57.7066 88.8956 56.7055 89.5203 55.469C90.1451 54.2324 90.4724 52.7603 90.4724 51.0526C90.4724 49.4039 90.1154 48.079 89.3716 47.0191C88.6278 45.9886 87.7055 45.1642 86.575 44.5754C85.4445 43.9865 83.9867 43.3977 82.1719 42.7794C81.0116 42.3672 80.1191 41.9845 79.4348 41.5723C78.7803 41.1601 78.4233 40.5712 78.4233 39.8352C78.4233 39.1286 78.7208 38.5986 79.3456 38.2453C79.9703 37.892 80.7439 37.7154 81.6661 37.7154C83.3619 37.7154 84.9982 38.3336 86.5453 39.5702L89.3716 34.094C87.4973 32.8868 85.1767 32.1508 82.4099 31.9152V27.3223H78.8696V31.8858C77.382 31.9741 76.0135 32.4452 74.8234 33.299C73.6334 34.1234 72.7111 35.2128 72.0566 36.5377C71.4021 37.8626 71.0748 39.2758 71.0748 40.7479C71.0748 42.1611 71.3426 43.3682 71.9079 44.3398C72.5326 45.3409 73.2169 46.1064 74.0797 46.6658Z" fill="url(#paint16_linear_537_3093)"/>
<path opacity="0.4" fill-rule="evenodd" clip-rule="evenodd" d="M82.4694 27.3224L78.929 27.293V31.8565C77.4415 31.9448 76.073 32.4159 74.8829 33.2697C73.6929 34.0941 72.7706 35.1835 72.1161 36.5084C71.6103 37.5683 71.2831 38.6576 71.1641 39.8059C72.1161 35.949 75.0614 32.3276 79.3456 32.3865C79.3456 30.7966 79.3158 29.2656 79.3158 27.6757C80.2083 27.6757 81.0711 27.6463 81.9636 27.6463L82.4694 27.3224Z" fill="white"/>
<path fill-rule="evenodd" clip-rule="evenodd" d="M114.541 46.6658C115.403 47.2252 116.415 47.7257 117.605 48.1673C118.854 48.5795 119.896 48.9034 120.759 49.1978C121.621 49.4922 122.306 49.8161 122.811 50.1988C123.317 50.5816 123.585 51.1115 123.585 51.7298C123.585 52.5836 123.198 53.2608 122.454 53.7613C121.711 54.2324 120.878 54.4974 119.985 54.4974C118.854 54.4974 117.664 54.203 116.415 53.5847C115.165 52.9664 114.065 52.2303 113.083 51.3176L109.959 57.0294C110.911 57.9127 112.399 58.7371 114.451 59.532C116.117 60.1503 117.754 60.4741 119.36 60.4741V64.9788H122.901V60.268C124.596 59.8559 126.024 59.267 127.244 58.5015C128.434 57.7066 129.357 56.7055 129.981 55.469C130.606 54.2324 130.933 52.7603 130.933 51.0526C130.933 49.4039 130.576 48.079 129.833 47.0191C129.089 45.9886 128.166 45.1642 127.036 44.5754C125.905 43.9865 124.448 43.3977 122.633 42.7794C121.473 42.3672 120.58 41.9845 119.896 41.5723C119.241 41.1601 118.884 40.5712 118.884 39.8352C118.884 39.1286 119.182 38.5986 119.807 38.2453C120.431 37.892 121.205 37.7154 122.127 37.7154C123.823 37.7154 125.459 38.3336 127.006 39.5702L129.833 34.094C127.958 32.8868 125.638 32.1508 122.871 31.9152V27.3223H119.33V31.8858C117.843 31.9741 116.474 32.4452 115.284 33.299C114.094 34.1234 113.172 35.2128 112.518 36.5377C111.863 37.8626 111.536 39.2758 111.536 40.7479C111.536 42.1611 111.804 43.3682 112.369 44.3398C112.994 45.3409 113.678 46.1064 114.541 46.6658Z" fill="url(#paint17_linear_537_3093)"/>
<path opacity="0.4" fill-rule="evenodd" clip-rule="evenodd" d="M122.93 27.3224L119.39 27.293V31.8565C117.902 31.9448 116.534 32.4159 115.344 33.2697C114.154 34.0941 113.232 35.1835 112.577 36.5084C112.071 37.5683 111.744 38.6576 111.625 39.8059C112.577 35.949 115.522 32.3276 119.806 32.3865C119.806 30.7966 119.777 29.2656 119.777 27.6757C120.669 27.6757 121.532 27.6463 122.425 27.6463L122.93 27.3224Z" fill="white"/>
<defs>
<linearGradient id="paint0_linear_537_3093" x1="39.7719" y1="20.4043" x2="39.4805" y2="71.6336" gradientUnits="userSpaceOnUse">
<stop stop-color="#B7B7B7"/>
<stop offset="0.1054" stop-color="white"/>
<stop offset="0.6622" stop-color="white"/>
<stop offset="0.893392" stop-color="#EDEDED"/>
<stop offset="1" stop-color="white"/>
</linearGradient>
<linearGradient id="paint1_linear_537_3093" x1="80.1435" y1="20.4043" x2="79.8521" y2="71.6336" gradientUnits="userSpaceOnUse">
<stop stop-color="#B7B7B7"/>
<stop offset="0.1054" stop-color="white"/>
<stop offset="0.6622" stop-color="white"/>
<stop offset="0.893392" stop-color="#EDEDED"/>
<stop offset="1" stop-color="white"/>
</linearGradient>
<linearGradient id="paint2_linear_537_3093" x1="120.545" y1="20.4043" x2="120.254" y2="71.6336" gradientUnits="userSpaceOnUse">
<stop stop-color="#B7B7B7"/>
<stop offset="0.1054" stop-color="white"/>
<stop offset="0.6622" stop-color="white"/>
<stop offset="0.893392" stop-color="#EDEDED"/>
<stop offset="1" stop-color="white"/>
</linearGradient>
<linearGradient id="paint3_linear_537_3093" x1="79.5556" y1="0.364887" x2="80.4297" y2="92.2246" gradientUnits="userSpaceOnUse">
<stop stop-color="#949494"/>
<stop offset="0.1054" stop-color="white"/>
<stop offset="0.6622" stop-color="white"/>
<stop offset="0.9757" stop-color="#C5C5C5"/>
<stop offset="1" stop-color="white"/>
</linearGradient>
<linearGradient id="paint4_linear_537_3093" x1="119.711" y1="-0.286091" x2="118.827" y2="87.8298" gradientUnits="userSpaceOnUse">
<stop stop-color="#959696"/>
<stop offset="1" stop-color="#949494" stop-opacity="0.2"/>
</linearGradient>
<linearGradient id="paint5_linear_537_3093" x1="81.4241" y1="102.618" x2="81.4969" y2="114.1" gradientUnits="userSpaceOnUse">
<stop stop-color="#A2A2A2"/>
<stop offset="0.2946" stop-color="#9A9A9A"/>
<stop offset="0.4784" stop-color="white"/>
<stop offset="0.5324" stop-color="#A2A2A2"/>
<stop offset="0.6243" stop-color="#E6E6E6"/>
<stop offset="0.7054" stop-color="#B8B8B8"/>
<stop offset="0.7649" stop-color="white"/>
<stop offset="0.8784" stop-color="#969696"/>
</linearGradient>
<linearGradient id="paint6_linear_537_3093" x1="81.3821" y1="102.618" x2="81.455" y2="114.101" gradientUnits="userSpaceOnUse">
<stop stop-color="#909090"/>
<stop offset="0.127" stop-color="#909090"/>
<stop offset="0.3703" stop-color="#8F8F8F"/>
<stop offset="0.7757" stop-color="#8E8E8E"/>
<stop offset="1" stop-color="#A9A9A9"/>
</linearGradient>
<linearGradient id="paint7_linear_537_3093" x1="41.0394" y1="-0.646979" x2="40.2624" y2="87.4833" gradientUnits="userSpaceOnUse">
<stop stop-color="#919494"/>
<stop offset="1" stop-color="#939393" stop-opacity="0.2"/>
</linearGradient>
<linearGradient id="paint8_linear_537_3093" x1="80.4184" y1="-0.300005" x2="79.6414" y2="87.8303" gradientUnits="userSpaceOnUse">
<stop stop-color="#8F8F8F"/>
<stop offset="1" stop-color="#8C8C8C" stop-opacity="0.2"/>
</linearGradient>
<linearGradient id="paint9_linear_537_3093" x1="80.616" y1="-0.297513" x2="79.839" y2="87.8318" gradientUnits="userSpaceOnUse">
<stop stop-color="#598E8E"/>
<stop offset="1" stop-color="#598E8E" stop-opacity="0.2"/>
</linearGradient>
<linearGradient id="paint10_linear_537_3093" x1="80.7125" y1="-0.286091" x2="79.9358" y2="87.8318" gradientUnits="userSpaceOnUse">
<stop stop-color="#959696"/>
<stop offset="1" stop-color="#949494" stop-opacity="0.2"/>
</linearGradient>
<linearGradient id="paint11_linear_537_3093" x1="0.297423" y1="46.1359" x2="159.703" y2="46.1359" gradientUnits="userSpaceOnUse">
<stop stop-color="#919191"/>
<stop offset="0.6189" stop-color="white"/>
<stop offset="0.6892" stop-color="#BABABA"/>
<stop offset="0.7541" stop-color="#808080"/>
<stop offset="0.8189" stop-color="#808080"/>
<stop offset="0.9216" stop-color="#8F8F8F"/>
<stop offset="1" stop-color="#D3D3D3"/>
</linearGradient>
<linearGradient id="paint12_linear_537_3093" x1="0" y1="46.1359" x2="160" y2="46.1359" gradientUnits="userSpaceOnUse">
<stop stop-color="#E5E5E5"/>
<stop offset="0.1324" stop-color="#979797"/>
<stop offset="0.2946" stop-color="#BBBBBB"/>
<stop offset="0.4784" stop-color="white"/>
<stop offset="0.5324" stop-color="#E5E5E5"/>
<stop offset="0.6243" stop-color="#E5E5E5"/>
<stop offset="0.7054" stop-color="#E5E5E5"/>
<stop offset="0.7649" stop-color="white"/>
<stop offset="0.8784" stop-color="#E5E5E5"/>
<stop offset="0.973" stop-color="#9F9F9F"/>
</linearGradient>
<radialGradient id="paint13_radial_537_3093" cx="0" cy="0" r="1" gradientUnits="userSpaceOnUse" gradientTransform="translate(124.85 85.8505) scale(3.69726 3.65889)">
<stop offset="0.2919" stop-color="white" stop-opacity="0.6"/>
<stop offset="1" stop-color="white" stop-opacity="0"/>
</radialGradient>
<radialGradient id="paint14_radial_537_3093" cx="0" cy="0" r="1" gradientUnits="userSpaceOnUse" gradientTransform="translate(68.9167 107.046) rotate(180) scale(1.80759 1.78883)">
<stop offset="0.2919" stop-color="white" stop-opacity="0.6"/>
<stop offset="1" stop-color="white" stop-opacity="0"/>
</radialGradient>
<linearGradient id="paint15_linear_537_3093" x1="39.5297" y1="61.3412" x2="40.0153" y2="22.3793" gradientUnits="userSpaceOnUse">
<stop stop-color="#969696"/>
<stop offset="0.1865" stop-color="#C6C6C6"/>
<stop offset="0.3919" stop-color="#8C8C8C"/>
<stop offset="0.6946" stop-color="#858585"/>
<stop offset="0.7865" stop-color="#808080"/>
<stop offset="1" stop-color="white"/>
</linearGradient>
<linearGradient id="paint16_linear_537_3093" x1="79.9315" y1="61.3412" x2="80.4171" y2="22.3793" gradientUnits="userSpaceOnUse">
<stop stop-color="#969696"/>
<stop offset="0.1865" stop-color="#C6C6C6"/>
<stop offset="0.3919" stop-color="#8C8C8C"/>
<stop offset="0.6946" stop-color="#858585"/>
<stop offset="0.7865" stop-color="#808080"/>
<stop offset="1" stop-color="white"/>
</linearGradient>
<linearGradient id="paint17_linear_537_3093" x1="120.392" y1="61.3412" x2="120.878" y2="22.3793" gradientUnits="userSpaceOnUse">
<stop stop-color="#969696"/>
<stop offset="0.1865" stop-color="#C6C6C6"/>
<stop offset="0.3919" stop-color="#8C8C8C"/>
<stop offset="0.6946" stop-color="#858585"/>
<stop offset="0.7865" stop-color="#808080"/>
<stop offset="1" stop-color="white"/>
</linearGradient>
</defs>
</svg>
