<svg width="677" height="68" viewBox="0 0 677 68" fill="none" xmlns="http://www.w3.org/2000/svg">
<path d="M106.173 1.6L107.124 1.90847L107.548 0.599996H106.173V1.6ZM85.2888 66V67H86.0158L86.24 66.3085L85.2888 66ZM65.7848 66L64.8309 66.3001L65.051 67H65.7848V66ZM53.4568 26.808L54.4107 26.5079L53.4776 23.5416L52.5068 26.4958L53.4568 26.808ZM40.5768 66V67H41.3008L41.5268 66.3122L40.5768 66ZM21.0728 66L20.1216 66.3085L20.3458 67H21.0728V66ZM0.188797 1.6V0.599996H-1.18676L-0.762437 1.90847L0.188797 1.6ZM18.9568 1.6L19.9105 1.29917L19.6899 0.599996H18.9568V1.6ZM31.9288 42.724L30.9751 43.0248L31.9058 45.9751L32.8781 43.0383L31.9288 42.724ZM45.5448 1.6V0.599996H44.8225L44.5955 1.28568L45.5448 1.6ZM62.2888 1.6L63.2432 1.3016L63.0239 0.599996H62.2888V1.6ZM75.2608 43.092L74.3064 43.3904L75.241 46.3798L76.2116 43.4019L75.2608 43.092ZM88.7848 1.6V0.599996H88.059L87.834 1.2901L88.7848 1.6ZM105.222 1.29152L84.3376 65.6915L86.24 66.3085L107.124 1.90847L105.222 1.29152ZM85.2888 65H65.7848V67H85.2888V65ZM66.7387 65.6999L54.4107 26.5079L52.5029 27.1081L64.8309 66.3001L66.7387 65.6999ZM52.5068 26.4958L39.6268 65.6878L41.5268 66.3122L54.4068 27.1202L52.5068 26.4958ZM40.5768 65H21.0728V67H40.5768V65ZM22.024 65.6915L1.14003 1.29152L-0.762437 1.90847L20.1216 66.3085L22.024 65.6915ZM0.188797 2.6H18.9568V0.599996H0.188797V2.6ZM18.0031 1.90082L30.9751 43.0248L32.8825 42.4232L19.9105 1.29917L18.0031 1.90082ZM32.8781 43.0383L46.4941 1.91431L44.5955 1.28568L30.9795 42.4097L32.8781 43.0383ZM45.5448 2.6H62.2888V0.599996H45.5448V2.6ZM61.3344 1.89839L74.3064 43.3904L76.2152 42.7936L63.2432 1.3016L61.3344 1.89839ZM76.2116 43.4019L89.7356 1.90989L87.834 1.2901L74.31 42.7821L76.2116 43.4019ZM88.7848 2.6H106.173V0.599996H88.7848V2.6ZM164.404 51.924H165.404V50.924H164.404V51.924ZM164.404 66V67H165.404V66H164.404ZM112.7 66H111.7V67H112.7V66ZM112.7 1.6V0.599996H111.7V1.6H112.7ZM163.208 1.6H164.208V0.599996H163.208V1.6ZM163.208 15.676V16.676H164.208V15.676H163.208ZM130.732 15.676V14.676H129.732V15.676H130.732ZM130.732 26.532H129.732V27.532H130.732V26.532ZM159.344 26.532H160.344V25.532H159.344V26.532ZM159.344 40.148V41.148H160.344V40.148H159.344ZM130.732 40.148V39.148H129.732V40.148H130.732ZM130.732 51.924H129.732V52.924H130.732V51.924ZM163.404 51.924V66H165.404V51.924H163.404ZM164.404 65H112.7V67H164.404V65ZM113.7 66V1.6H111.7V66H113.7ZM112.7 2.6H163.208V0.599996H112.7V2.6ZM162.208 1.6V15.676H164.208V1.6H162.208ZM163.208 14.676H130.732V16.676H163.208V14.676ZM129.732 15.676V26.532H131.732V15.676H129.732ZM130.732 27.532H159.344V25.532H130.732V27.532ZM158.344 26.532V40.148H160.344V26.532H158.344ZM159.344 39.148H130.732V41.148H159.344V39.148ZM129.732 40.148V51.924H131.732V40.148H129.732ZM130.732 52.924H164.404V50.924H130.732V52.924ZM174.512 1.6V0.599996H173.512V1.6H174.512ZM192.728 1.6H193.728V0.599996H192.728V1.6ZM192.728 51.556H191.728V52.556H192.728V51.556ZM223.456 51.556H224.456V50.556H223.456V51.556ZM223.456 66V67H224.456V66H223.456ZM174.512 66H173.512V67H174.512V66ZM174.512 2.6H192.728V0.599996H174.512V2.6ZM191.728 1.6V51.556H193.728V1.6H191.728ZM192.728 52.556H223.456V50.556H192.728V52.556ZM222.456 51.556V66H224.456V51.556H222.456ZM223.456 65H174.512V67H223.456V65ZM175.512 66V1.6H173.512V66H175.512ZM243.568 63.056L243.093 63.9359L243.105 63.9422L243.568 63.056ZM230.964 51.096L231.821 50.58L230.964 51.096ZM230.964 16.504L230.108 15.988L230.964 16.504ZM243.568 4.63599L244.036 5.52004L244.039 5.51807L243.568 4.63599ZM277.7 3.44L277.296 4.35479V4.35479L277.7 3.44ZM289.476 12.456L290.147 13.1975L290.844 12.5674L290.258 11.8328L289.476 12.456ZM277.884 22.944L277.115 23.5823L277.781 24.386L278.555 23.6855L277.884 22.944ZM253.32 17.7L252.835 16.8258L252.826 16.8305L253.32 17.7ZM246.972 24.232L246.094 23.7545L246.09 23.7614L246.972 24.232ZM246.972 43.46L246.086 43.9226L246.092 43.9342L246.098 43.9456L246.972 43.46ZM253.32 49.9L252.826 50.7695L252.835 50.7742L253.32 49.9ZM277.884 44.656L278.555 43.9145L277.781 43.214L277.115 44.0177L277.884 44.656ZM289.476 55.144L290.258 55.7672L290.844 55.0326L290.147 54.4025L289.476 55.144ZM277.7 64.16L277.296 63.2452L277.7 64.16ZM261.784 66.288C255.181 66.288 249.271 64.9086 244.032 62.1698L243.105 63.9422C248.66 66.8461 254.894 68.288 261.784 68.288V66.288ZM244.044 62.1762C238.862 59.3767 234.793 55.5142 231.821 50.58L230.108 51.612C233.269 56.8591 237.603 60.97 243.093 63.9358L244.044 62.1762ZM231.821 50.58C228.856 45.658 227.364 40.0739 227.364 33.8H225.364C225.364 40.4061 226.939 46.3526 230.108 51.612L231.821 50.58ZM227.364 33.8C227.364 27.5261 228.856 21.942 231.821 17.02L230.108 15.988C226.939 21.2474 225.364 27.1939 225.364 33.8H227.364ZM231.821 17.02C234.792 12.0877 238.858 8.25776 244.036 5.52003L243.101 3.75196C237.607 6.6569 233.27 10.739 230.108 15.988L231.821 17.02ZM244.039 5.51807C249.277 2.72054 255.185 1.312 261.784 1.312V-0.688004C254.891 -0.688004 248.654 0.786116 243.097 3.75392L244.039 5.51807ZM261.784 1.312C267.553 1.312 272.718 2.33301 277.296 4.35479L278.104 2.52521C273.238 0.376314 267.792 -0.688004 261.784 -0.688004V1.312ZM277.296 4.35479C281.876 6.37682 285.67 9.28386 288.694 13.0792L290.258 11.8328C287.027 7.77747 282.97 4.67384 278.104 2.52521L277.296 4.35479ZM288.805 11.7145L277.213 22.2025L278.555 23.6855L290.147 13.1975L288.805 11.7145ZM278.654 22.3057C274.315 17.0728 268.983 14.4 262.704 14.4V16.4C268.324 16.4 273.113 18.7566 277.115 23.5823L278.654 22.3057ZM262.704 14.4C259.057 14.4 255.759 15.2014 252.835 16.8258L253.806 18.5742C256.402 17.132 259.36 16.4 262.704 16.4V14.4ZM252.826 16.8305C249.96 18.4594 247.713 20.7751 246.094 23.7545L247.851 24.7095C249.298 22.0462 251.284 20.0073 253.814 18.5695L252.826 16.8305ZM246.09 23.7614C244.529 26.6875 243.764 30.0431 243.764 33.8H245.764C245.764 30.3196 246.471 27.2965 247.855 24.7026L246.09 23.7614ZM243.764 33.8C243.764 37.5574 244.53 40.9399 246.086 43.9226L247.859 42.9974C246.471 40.3374 245.764 37.2799 245.764 33.8H243.764ZM246.098 43.9456C247.719 46.8631 249.965 49.1438 252.826 50.7695L253.814 49.0305C251.278 47.5895 249.292 45.5769 247.846 42.9744L246.098 43.9456ZM252.835 50.7742C255.759 52.3986 259.057 53.2 262.704 53.2V51.2C259.36 51.2 256.402 50.468 253.806 49.0258L252.835 50.7742ZM262.704 53.2C268.983 53.2 274.315 50.5272 278.654 45.2943L277.115 44.0177C273.113 48.8434 268.324 51.2 262.704 51.2V53.2ZM277.213 45.3975L288.805 55.8855L290.147 54.4025L278.555 43.9145L277.213 45.3975ZM288.694 54.5208C285.67 58.3161 281.876 61.2232 277.296 63.2452L278.104 65.0748C282.97 62.9262 287.027 59.8225 290.258 55.7672L288.694 54.5208ZM277.296 63.2452C272.718 65.267 267.553 66.288 261.784 66.288V68.288C267.792 68.288 273.238 67.2237 278.104 65.0748L277.296 63.2452ZM310.327 62.964L309.855 63.8461L309.86 63.8483L310.327 62.964ZM297.539 51.004L296.682 51.52L296.687 51.5275L297.539 51.004ZM297.539 16.596L296.686 16.0725L296.682 16.08L297.539 16.596ZM310.327 4.63599L309.86 3.75171L309.855 3.75392L310.327 4.63599ZM347.035 4.63599L346.563 5.51808L346.568 5.52027L347.035 4.63599ZM359.823 16.596L358.966 17.112L358.971 17.1195L359.823 16.596ZM359.823 51.004L358.971 50.4805L358.966 50.488L359.823 51.004ZM347.035 62.964L346.568 62.0797L346.563 62.0819L347.035 62.964ZM337.559 49.9L338.061 50.7645L337.559 49.9ZM343.815 43.46L344.689 43.9457L344.693 43.9375L343.815 43.46ZM343.815 24.232L342.936 24.7095L342.94 24.7176L343.815 24.232ZM337.559 17.7L338.061 16.8355L338.061 16.8355L337.559 17.7ZM319.895 17.7L319.392 16.8355V16.8355L319.895 17.7ZM313.639 24.232L314.513 24.7177L314.517 24.7095L313.639 24.232ZM313.639 43.46L312.76 43.9375L312.764 43.9456L313.639 43.46ZM319.895 49.9L320.397 49.0355L319.895 49.9ZM328.727 66.288C322.064 66.288 316.094 64.8788 310.794 62.0797L309.86 63.8483C315.477 66.8145 321.773 68.288 328.727 68.288V66.288ZM310.798 62.0819C305.553 59.2807 301.423 55.4162 298.391 50.4805L296.687 51.5275C299.91 56.7732 304.306 60.8819 309.855 63.8461L310.798 62.0819ZM298.395 50.488C295.429 45.5645 293.939 40.0107 293.939 33.8H291.939C291.939 40.3467 293.515 46.2621 296.682 51.52L298.395 50.488ZM293.939 33.8C293.939 27.5893 295.429 22.0355 298.395 17.112L296.682 16.08C293.515 21.3379 291.939 27.2533 291.939 33.8H293.939ZM298.391 17.1195C301.423 12.1838 305.553 8.31925 310.798 5.51807L309.855 3.75392C304.306 6.71808 299.91 10.8268 296.687 16.0725L298.391 17.1195ZM310.794 5.52027C316.094 2.72119 322.064 1.312 328.727 1.312V-0.688004C321.773 -0.688004 315.477 0.78547 309.86 3.75172L310.794 5.52027ZM328.727 1.312C335.389 1.312 341.327 2.72124 346.563 5.51807L347.506 3.75392C341.948 0.785422 335.68 -0.688004 328.727 -0.688004V1.312ZM346.568 5.52027C351.872 8.32138 355.997 12.1835 358.966 17.112L360.679 16.08C357.515 10.8272 353.115 6.71595 347.502 3.75172L346.568 5.52027ZM358.971 17.1195C361.995 22.042 363.515 27.5932 363.515 33.8H365.515C365.515 27.2495 363.906 21.3313 360.675 16.0725L358.971 17.1195ZM363.515 33.8C363.515 40.0068 361.995 45.558 358.971 50.4805L360.675 51.5275C363.906 46.2687 365.515 40.3505 365.515 33.8H363.515ZM358.966 50.488C355.997 55.4165 351.872 59.2786 346.568 62.0797L347.502 63.8483C353.115 60.884 357.515 56.7728 360.679 51.52L358.966 50.488ZM346.563 62.0819C341.327 64.8788 335.389 66.288 328.727 66.288V68.288C335.68 68.288 341.948 66.8146 347.506 63.8461L346.563 62.0819ZM328.727 53.2C332.142 53.2 335.261 52.3924 338.061 50.7645L337.056 49.0355C334.581 50.4742 331.813 51.2 328.727 51.2V53.2ZM338.061 50.7645C340.86 49.1374 343.071 46.8573 344.689 43.9456L342.94 42.9744C341.491 45.5827 339.532 47.5959 337.056 49.0355L338.061 50.7645ZM344.693 43.9375C346.316 40.9518 347.115 37.564 347.115 33.8H345.115C345.115 37.2734 344.38 40.3255 342.936 42.9825L344.693 43.9375ZM347.115 33.8C347.115 30.0365 346.316 26.6754 344.689 23.7464L342.94 24.7176C344.38 27.3086 345.115 30.3262 345.115 33.8H347.115ZM344.693 23.7545C343.077 20.781 340.865 18.4659 338.061 16.8355L337.056 18.5645C339.526 20.0008 341.485 22.0403 342.936 24.7095L344.693 23.7545ZM338.061 16.8355C335.261 15.2076 332.142 14.4 328.727 14.4V16.4C331.813 16.4 334.581 17.1258 337.056 18.5645L338.061 16.8355ZM328.727 14.4C325.311 14.4 322.192 15.2076 319.392 16.8355L320.397 18.5645C322.872 17.1258 325.64 16.4 328.727 16.4V14.4ZM319.392 16.8355C316.588 18.4659 314.376 20.781 312.76 23.7545L314.517 24.7095C315.968 22.0403 317.927 20.0008 320.397 18.5645L319.392 16.8355ZM312.764 23.7464C311.137 26.6754 310.339 30.0365 310.339 33.8H312.339C312.339 30.3262 313.073 27.3086 314.513 24.7176L312.764 23.7464ZM310.339 33.8C310.339 37.564 311.137 40.9518 312.76 43.9375L314.517 42.9825C313.073 40.3255 312.339 37.2734 312.339 33.8H310.339ZM312.764 43.9456C314.382 46.8573 316.593 49.1374 319.392 50.7645L320.397 49.0355C317.921 47.5959 315.962 45.5827 314.513 42.9744L312.764 43.9456ZM319.392 50.7645C322.192 52.3924 325.311 53.2 328.727 53.2V51.2C325.64 51.2 322.872 50.4742 320.397 49.0355L319.392 50.7645ZM432.199 66L431.199 66.0054L431.205 67H432.199V66ZM432.015 31.868L433.015 31.8626L432.996 28.2696L431.156 31.356L432.015 31.868ZM415.455 59.652V60.652H416.023L416.314 60.164L415.455 59.652ZM407.359 59.652L406.507 60.1746L406.799 60.652H407.359V59.652ZM390.891 32.788L391.744 32.2654L389.891 29.2433V32.788H390.891ZM390.891 66V67H391.891V66H390.891ZM374.055 66H373.055V67H374.055V66ZM374.055 1.6V0.599996H373.055V1.6H374.055ZM389.051 1.6L389.905 1.07991L389.613 0.599996H389.051V1.6ZM411.683 38.768L410.829 39.2881L411.694 40.7082L412.543 39.2787L411.683 38.768ZM433.763 1.6V0.599996H433.194L432.904 1.08926L433.763 1.6ZM448.759 1.6L449.759 1.59714L449.756 0.599996H448.759V1.6ZM448.943 66V67H449.946L449.943 65.9971L448.943 66ZM433.199 65.9946L433.015 31.8626L431.015 31.8734L431.199 66.0054L433.199 65.9946ZM431.156 31.356L414.596 59.14L416.314 60.164L432.874 32.38L431.156 31.356ZM415.455 58.652H407.359V60.652H415.455V58.652ZM408.212 59.1294L391.744 32.2654L390.039 33.3106L406.507 60.1746L408.212 59.1294ZM389.891 32.788V66H391.891V32.788H389.891ZM390.891 65H374.055V67H390.891V65ZM375.055 66V1.6H373.055V66H375.055ZM374.055 2.6H389.051V0.599996H374.055V2.6ZM388.197 2.12008L410.829 39.2881L412.537 38.2479L389.905 1.07991L388.197 2.12008ZM412.543 39.2787L434.623 2.11073L432.904 1.08926L410.823 38.2573L412.543 39.2787ZM433.763 2.6H448.759V0.599996H433.763V2.6ZM447.759 1.60285L447.943 66.0029L449.943 65.9971L449.759 1.59714L447.759 1.60285ZM448.943 65H432.199V67H448.943V65ZM513.537 51.924H514.537V50.924H513.537V51.924ZM513.537 66V67H514.537V66H513.537ZM461.833 66H460.833V67H461.833V66ZM461.833 1.6V0.599996H460.833V1.6H461.833ZM512.341 1.6H513.341V0.599996H512.341V1.6ZM512.341 15.676V16.676H513.341V15.676H512.341ZM479.865 15.676V14.676H478.865V15.676H479.865ZM479.865 26.532H478.865V27.532H479.865V26.532ZM508.477 26.532H509.477V25.532H508.477V26.532ZM508.477 40.148V41.148H509.477V40.148H508.477ZM479.865 40.148V39.148H478.865V40.148H479.865ZM479.865 51.924H478.865V52.924H479.865V51.924ZM512.537 51.924V66H514.537V51.924H512.537ZM513.537 65H461.833V67H513.537V65ZM462.833 66V1.6H460.833V66H462.833ZM461.833 2.6H512.341V0.599996H461.833V2.6ZM511.341 1.6V15.676H513.341V1.6H511.341ZM512.341 14.676H479.865V16.676H512.341V14.676ZM478.865 15.676V26.532H480.865V15.676H478.865ZM479.865 27.532H508.477V25.532H479.865V27.532ZM507.477 26.532V40.148H509.477V26.532H507.477ZM508.477 39.148H479.865V41.148H508.477V39.148ZM478.865 40.148V51.924H480.865V40.148H478.865ZM479.865 52.924H513.537V50.924H479.865V52.924ZM564.127 16.044H565.127V15.044H564.127V16.044ZM544.346 16.044H543.346V17.044H544.346V16.044ZM544.346 1.6V0.599996H543.346V1.6H544.346ZM602.031 1.6H603.031V0.599996H602.031V1.6ZM602.031 16.044V17.044H603.031V16.044H602.031ZM582.343 16.044V15.044H581.343V16.044H582.343ZM582.343 66V67H583.343V66H582.343ZM564.127 66H563.127V67H564.127V66ZM564.127 15.044H544.346V17.044H564.127V15.044ZM545.346 16.044V1.6H543.346V16.044H545.346ZM544.346 2.6H602.031V0.599996H544.346V2.6ZM601.031 1.6V16.044H603.031V1.6H601.031ZM602.031 15.044H582.343V17.044H602.031V15.044ZM581.343 16.044V66H583.343V16.044H581.343ZM582.343 65H564.127V67H582.343V65ZM565.127 66V16.044H563.127V66H565.127ZM621.995 62.964L621.523 63.8461L621.528 63.8483L621.995 62.964ZM609.207 51.004L608.35 51.52L608.354 51.5275L609.207 51.004ZM609.207 16.596L608.354 16.0725L608.35 16.08L609.207 16.596ZM621.995 4.63599L621.528 3.75171L621.523 3.75392L621.995 4.63599ZM658.703 4.63599L658.231 5.51808L658.236 5.52027L658.703 4.63599ZM671.491 16.596L670.634 17.112L670.638 17.1195L671.491 16.596ZM671.491 51.004L670.638 50.4805L670.634 50.488L671.491 51.004ZM658.703 62.964L658.236 62.0797L658.231 62.0819L658.703 62.964ZM649.227 49.9L649.729 50.7645L649.227 49.9ZM655.483 43.46L656.357 43.9457L656.361 43.9375L655.483 43.46ZM655.483 24.232L654.604 24.7095L654.608 24.7176L655.483 24.232ZM649.227 17.7L649.729 16.8355V16.8355L649.227 17.7ZM631.562 17.7L631.06 16.8355V16.8355L631.562 17.7ZM625.307 24.232L626.181 24.7177L626.185 24.7095L625.307 24.232ZM625.307 43.46L624.428 43.9375L624.432 43.9456L625.307 43.46ZM631.562 49.9L632.065 49.0355L631.562 49.9ZM640.395 66.288C633.732 66.288 627.762 64.8788 622.461 62.0797L621.528 63.8483C627.144 66.8145 633.441 68.288 640.395 68.288V66.288ZM622.466 62.0819C617.221 59.2807 613.091 55.4162 610.059 50.4805L608.354 51.5275C611.578 56.7732 615.974 60.8819 621.523 63.8461L622.466 62.0819ZM610.063 50.488C607.097 45.5645 605.607 40.0107 605.607 33.8H603.607C603.607 40.3467 605.183 46.2621 608.35 51.52L610.063 50.488ZM605.607 33.8C605.607 27.5893 607.097 22.0355 610.063 17.112L608.35 16.08C605.183 21.3379 603.607 27.2533 603.607 33.8H605.607ZM610.059 17.1195C613.091 12.1838 617.221 8.31925 622.466 5.51807L621.523 3.75392C615.974 6.71808 611.578 10.8268 608.354 16.0725L610.059 17.1195ZM622.461 5.52027C627.762 2.72119 633.732 1.312 640.395 1.312V-0.688004C633.441 -0.688004 627.144 0.78547 621.528 3.75172L622.461 5.52027ZM640.395 1.312C647.057 1.312 652.995 2.72124 658.231 5.51807L659.174 3.75392C653.616 0.785422 647.348 -0.688004 640.395 -0.688004V1.312ZM658.236 5.52027C663.54 8.32138 667.665 12.1835 670.634 17.112L672.347 16.08C669.183 10.8272 664.783 6.71595 659.169 3.75172L658.236 5.52027ZM670.638 17.1195C673.663 22.042 675.182 27.5932 675.182 33.8H677.182C677.182 27.2495 675.574 21.3313 672.343 16.0725L670.638 17.1195ZM675.182 33.8C675.182 40.0068 673.663 45.558 670.638 50.4805L672.343 51.5275C675.574 46.2687 677.182 40.3505 677.182 33.8H675.182ZM670.634 50.488C667.665 55.4165 663.54 59.2786 658.236 62.0797L659.169 63.8483C664.783 60.884 669.183 56.7728 672.347 51.52L670.634 50.488ZM658.231 62.0819C652.995 64.8788 647.057 66.288 640.395 66.288V68.288C647.348 68.288 653.616 66.8146 659.174 63.8461L658.231 62.0819ZM640.395 53.2C643.81 53.2 646.929 52.3924 649.729 50.7645L648.724 49.0355C646.249 50.4742 643.481 51.2 640.395 51.2V53.2ZM649.729 50.7645C652.528 49.1374 654.739 46.8573 656.357 43.9456L654.608 42.9744C653.159 45.5827 651.2 47.5959 648.724 49.0355L649.729 50.7645ZM656.361 43.9375C657.984 40.9518 658.783 37.564 658.783 33.8H656.783C656.783 37.2734 656.048 40.3255 654.604 42.9825L656.361 43.9375ZM658.783 33.8C658.783 30.0365 657.984 26.6754 656.357 23.7464L654.608 24.7176C656.048 27.3086 656.783 30.3262 656.783 33.8H658.783ZM656.361 23.7545C654.745 20.781 652.533 18.4659 649.729 16.8355L648.724 18.5645C651.194 20.0008 653.153 22.0403 654.604 24.7095L656.361 23.7545ZM649.729 16.8355C646.929 15.2076 643.81 14.4 640.395 14.4V16.4C643.481 16.4 646.249 17.1258 648.724 18.5645L649.729 16.8355ZM640.395 14.4C636.979 14.4 633.86 15.2076 631.06 16.8355L632.065 18.5645C634.54 17.1258 637.308 16.4 640.395 16.4V14.4ZM631.06 16.8355C628.256 18.4659 626.044 20.781 624.428 23.7545L626.185 24.7095C627.636 22.0403 629.595 20.0008 632.065 18.5645L631.06 16.8355ZM624.432 23.7464C622.805 26.6754 622.007 30.0365 622.007 33.8H624.007C624.007 30.3262 624.741 27.3086 626.181 24.7176L624.432 23.7464ZM622.007 33.8C622.007 37.564 622.805 40.9518 624.428 43.9375L626.185 42.9825C624.741 40.3255 624.007 37.2734 624.007 33.8H622.007ZM624.432 43.9456C626.05 46.8573 628.261 49.1374 631.06 50.7645L632.065 49.0355C629.589 47.5959 627.63 45.5827 626.181 42.9744L624.432 43.9456ZM631.06 50.7645C633.86 52.3924 636.979 53.2 640.395 53.2V51.2C637.308 51.2 634.54 50.4742 632.065 49.0355L631.06 50.7645Z" fill="white"/>
</svg>
